<mxfile host="Electron" modified="2023-07-06T01:53:46.678Z" agent="Mozilla/5.0 (Windows NT 10.0; Win64; x64) AppleWebKit/537.36 (KHTML, like Gecko) draw.io/21.6.1 Chrome/112.0.5615.204 Electron/24.6.1 Safari/537.36" etag="S_C3BVS8gQhd6YKnVjn0" version="21.6.1" type="device" pages="5">
  <diagram id="d2YAuVwEcbUybfhkKIwc" name="IxD">
    <mxGraphModel dx="1036" dy="606" grid="1" gridSize="10" guides="1" tooltips="1" connect="1" arrows="1" fold="1" page="1" pageScale="1" pageWidth="800" pageHeight="400" math="1" shadow="0">
      <root>
        <mxCell id="0" />
        <mxCell id="1" parent="0" />
        <mxCell id="cl37Td5tks5psFc_tuKn-9" value="" style="edgeStyle=orthogonalEdgeStyle;rounded=0;orthogonalLoop=1;jettySize=auto;html=1;exitX=0.25;exitY=1;exitDx=0;exitDy=0;entryX=0.25;entryY=0;entryDx=0;entryDy=0;fontSize=20;fontStyle=1" parent="1" source="cl37Td5tks5psFc_tuKn-2" target="cl37Td5tks5psFc_tuKn-4" edge="1">
          <mxGeometry relative="1" as="geometry" />
        </mxCell>
        <mxCell id="cl37Td5tks5psFc_tuKn-14" style="edgeStyle=none;rounded=0;orthogonalLoop=1;jettySize=auto;html=1;exitX=1;exitY=0.75;exitDx=0;exitDy=0;entryX=0;entryY=0.75;entryDx=0;entryDy=0;fontSize=20;fontStyle=1" parent="1" source="cl37Td5tks5psFc_tuKn-2" target="cl37Td5tks5psFc_tuKn-7" edge="1">
          <mxGeometry relative="1" as="geometry" />
        </mxCell>
        <mxCell id="cl37Td5tks5psFc_tuKn-2" value="Designs Alternativos" style="rounded=0;whiteSpace=wrap;html=1;fillColor=none;fontSize=20;fontStyle=1" parent="1" vertex="1">
          <mxGeometry x="40" y="40" width="160" height="80" as="geometry" />
        </mxCell>
        <mxCell id="cl37Td5tks5psFc_tuKn-10" value="" style="edgeStyle=orthogonalEdgeStyle;rounded=0;orthogonalLoop=1;jettySize=auto;html=1;fontSize=20;fontStyle=1" parent="1" source="cl37Td5tks5psFc_tuKn-4" target="cl37Td5tks5psFc_tuKn-5" edge="1">
          <mxGeometry relative="1" as="geometry" />
        </mxCell>
        <mxCell id="cl37Td5tks5psFc_tuKn-15" style="edgeStyle=none;rounded=0;orthogonalLoop=1;jettySize=auto;html=1;exitX=0.75;exitY=0;exitDx=0;exitDy=0;entryX=0.75;entryY=1;entryDx=0;entryDy=0;fontSize=20;fontStyle=1" parent="1" source="cl37Td5tks5psFc_tuKn-4" target="cl37Td5tks5psFc_tuKn-2" edge="1">
          <mxGeometry relative="1" as="geometry" />
        </mxCell>
        <mxCell id="cl37Td5tks5psFc_tuKn-4" value="Prototipagem" style="rounded=0;whiteSpace=wrap;html=1;fillColor=none;fontSize=20;fontStyle=1" parent="1" vertex="1">
          <mxGeometry x="40" y="160" width="160" height="80" as="geometry" />
        </mxCell>
        <mxCell id="cl37Td5tks5psFc_tuKn-11" value="" style="edgeStyle=orthogonalEdgeStyle;rounded=0;orthogonalLoop=1;jettySize=auto;html=1;fontSize=20;fontStyle=1" parent="1" source="cl37Td5tks5psFc_tuKn-5" target="cl37Td5tks5psFc_tuKn-7" edge="1">
          <mxGeometry relative="1" as="geometry" />
        </mxCell>
        <mxCell id="cl37Td5tks5psFc_tuKn-12" value="" style="edgeStyle=orthogonalEdgeStyle;rounded=0;orthogonalLoop=1;jettySize=auto;html=1;fontSize=20;fontStyle=1" parent="1" source="cl37Td5tks5psFc_tuKn-5" target="cl37Td5tks5psFc_tuKn-6" edge="1">
          <mxGeometry relative="1" as="geometry" />
        </mxCell>
        <mxCell id="cl37Td5tks5psFc_tuKn-13" style="rounded=0;orthogonalLoop=1;jettySize=auto;html=1;exitX=0;exitY=0;exitDx=0;exitDy=0;entryX=1;entryY=1;entryDx=0;entryDy=0;fontSize=20;fontStyle=1" parent="1" source="cl37Td5tks5psFc_tuKn-5" target="cl37Td5tks5psFc_tuKn-2" edge="1">
          <mxGeometry relative="1" as="geometry" />
        </mxCell>
        <mxCell id="cl37Td5tks5psFc_tuKn-5" value="Avaliação" style="rounded=0;whiteSpace=wrap;html=1;fillColor=none;fontSize=20;fontStyle=1" parent="1" vertex="1">
          <mxGeometry x="280" y="160" width="160" height="80" as="geometry" />
        </mxCell>
        <mxCell id="cl37Td5tks5psFc_tuKn-6" value="Produto Final" style="rounded=0;whiteSpace=wrap;html=1;fillColor=none;fontSize=20;fontStyle=1" parent="1" vertex="1">
          <mxGeometry x="280" y="280" width="160" height="80" as="geometry" />
        </mxCell>
        <mxCell id="cl37Td5tks5psFc_tuKn-8" value="" style="edgeStyle=orthogonalEdgeStyle;rounded=0;orthogonalLoop=1;jettySize=auto;html=1;exitX=0;exitY=0.25;exitDx=0;exitDy=0;entryX=1;entryY=0.25;entryDx=0;entryDy=0;fontSize=20;fontStyle=1" parent="1" source="cl37Td5tks5psFc_tuKn-7" target="cl37Td5tks5psFc_tuKn-2" edge="1">
          <mxGeometry relative="1" as="geometry" />
        </mxCell>
        <mxCell id="cl37Td5tks5psFc_tuKn-7" value="Estabelecendo Requisitos" style="rounded=0;whiteSpace=wrap;html=1;fillColor=none;fontSize=20;fontStyle=1" parent="1" vertex="1">
          <mxGeometry x="280" y="40" width="160" height="80" as="geometry" />
        </mxCell>
      </root>
    </mxGraphModel>
  </diagram>
  <diagram id="HT5mHX7FWqOjJORoLBgi" name="IxD Opaco">
    <mxGraphModel dx="1050" dy="621" grid="1" gridSize="10" guides="1" tooltips="1" connect="1" arrows="1" fold="1" page="1" pageScale="1" pageWidth="800" pageHeight="400" math="0" shadow="0">
      <root>
        <mxCell id="MZok9jrrbGF9HeDI4nrz-0" />
        <mxCell id="MZok9jrrbGF9HeDI4nrz-1" parent="MZok9jrrbGF9HeDI4nrz-0" />
        <mxCell id="xjCHL1lW9ZMJMm2sNrfe-13" value="" style="edgeStyle=orthogonalEdgeStyle;rounded=0;orthogonalLoop=1;jettySize=auto;html=1;exitX=0.25;exitY=1;exitDx=0;exitDy=0;entryX=0.25;entryY=0;entryDx=0;entryDy=0;fontSize=20;fontStyle=1;" parent="MZok9jrrbGF9HeDI4nrz-1" source="xjCHL1lW9ZMJMm2sNrfe-15" target="xjCHL1lW9ZMJMm2sNrfe-18" edge="1">
          <mxGeometry relative="1" as="geometry" />
        </mxCell>
        <mxCell id="xjCHL1lW9ZMJMm2sNrfe-14" style="edgeStyle=none;rounded=0;orthogonalLoop=1;jettySize=auto;html=1;exitX=1;exitY=0.75;exitDx=0;exitDy=0;entryX=0;entryY=0.75;entryDx=0;entryDy=0;fontSize=20;fontStyle=1;" parent="MZok9jrrbGF9HeDI4nrz-1" source="xjCHL1lW9ZMJMm2sNrfe-15" target="xjCHL1lW9ZMJMm2sNrfe-25" edge="1">
          <mxGeometry relative="1" as="geometry" />
        </mxCell>
        <mxCell id="xjCHL1lW9ZMJMm2sNrfe-15" value="Designs Alternativos" style="rounded=0;whiteSpace=wrap;html=1;fontSize=20;fontStyle=1;" parent="MZok9jrrbGF9HeDI4nrz-1" vertex="1">
          <mxGeometry x="240" y="40" width="160" height="80" as="geometry" />
        </mxCell>
        <mxCell id="xjCHL1lW9ZMJMm2sNrfe-16" value="" style="edgeStyle=orthogonalEdgeStyle;rounded=0;orthogonalLoop=1;jettySize=auto;html=1;fontSize=20;fontStyle=1;" parent="MZok9jrrbGF9HeDI4nrz-1" source="xjCHL1lW9ZMJMm2sNrfe-18" target="xjCHL1lW9ZMJMm2sNrfe-22" edge="1">
          <mxGeometry relative="1" as="geometry" />
        </mxCell>
        <mxCell id="xjCHL1lW9ZMJMm2sNrfe-17" style="edgeStyle=none;rounded=0;orthogonalLoop=1;jettySize=auto;html=1;exitX=0.75;exitY=0;exitDx=0;exitDy=0;entryX=0.75;entryY=1;entryDx=0;entryDy=0;fontSize=20;fontStyle=1;" parent="MZok9jrrbGF9HeDI4nrz-1" source="xjCHL1lW9ZMJMm2sNrfe-18" target="xjCHL1lW9ZMJMm2sNrfe-15" edge="1">
          <mxGeometry relative="1" as="geometry" />
        </mxCell>
        <mxCell id="xjCHL1lW9ZMJMm2sNrfe-18" value="Prototipagem" style="rounded=0;whiteSpace=wrap;html=1;fontSize=20;fontStyle=1;" parent="MZok9jrrbGF9HeDI4nrz-1" vertex="1">
          <mxGeometry x="240" y="160" width="160" height="80" as="geometry" />
        </mxCell>
        <mxCell id="xjCHL1lW9ZMJMm2sNrfe-19" value="" style="edgeStyle=orthogonalEdgeStyle;rounded=0;orthogonalLoop=1;jettySize=auto;html=1;fontSize=20;fontStyle=1;" parent="MZok9jrrbGF9HeDI4nrz-1" source="xjCHL1lW9ZMJMm2sNrfe-22" target="xjCHL1lW9ZMJMm2sNrfe-25" edge="1">
          <mxGeometry relative="1" as="geometry" />
        </mxCell>
        <mxCell id="xjCHL1lW9ZMJMm2sNrfe-20" value="" style="edgeStyle=orthogonalEdgeStyle;rounded=0;orthogonalLoop=1;jettySize=auto;html=1;fontSize=20;fontStyle=1;" parent="MZok9jrrbGF9HeDI4nrz-1" source="xjCHL1lW9ZMJMm2sNrfe-22" target="xjCHL1lW9ZMJMm2sNrfe-23" edge="1">
          <mxGeometry relative="1" as="geometry" />
        </mxCell>
        <mxCell id="xjCHL1lW9ZMJMm2sNrfe-21" style="rounded=0;orthogonalLoop=1;jettySize=auto;html=1;exitX=1;exitY=0;exitDx=0;exitDy=0;entryX=0;entryY=1;entryDx=0;entryDy=0;fontSize=20;fontStyle=1;" parent="MZok9jrrbGF9HeDI4nrz-1" source="xjCHL1lW9ZMJMm2sNrfe-22" target="xjCHL1lW9ZMJMm2sNrfe-15" edge="1">
          <mxGeometry relative="1" as="geometry" />
        </mxCell>
        <mxCell id="xjCHL1lW9ZMJMm2sNrfe-22" value="Avaliação" style="rounded=0;whiteSpace=wrap;html=1;fontSize=20;fontStyle=1;" parent="MZok9jrrbGF9HeDI4nrz-1" vertex="1">
          <mxGeometry x="40" y="160" width="160" height="80" as="geometry" />
        </mxCell>
        <mxCell id="xjCHL1lW9ZMJMm2sNrfe-23" value="Produto Final" style="rounded=0;whiteSpace=wrap;html=1;fontSize=20;fontStyle=1;" parent="MZok9jrrbGF9HeDI4nrz-1" vertex="1">
          <mxGeometry x="40" y="280" width="160" height="80" as="geometry" />
        </mxCell>
        <mxCell id="xjCHL1lW9ZMJMm2sNrfe-24" value="" style="edgeStyle=orthogonalEdgeStyle;rounded=0;orthogonalLoop=1;jettySize=auto;html=1;exitX=1;exitY=0.25;exitDx=0;exitDy=0;entryX=0;entryY=0.25;entryDx=0;entryDy=0;fontSize=20;fontStyle=1;" parent="MZok9jrrbGF9HeDI4nrz-1" source="xjCHL1lW9ZMJMm2sNrfe-25" target="xjCHL1lW9ZMJMm2sNrfe-15" edge="1">
          <mxGeometry relative="1" as="geometry" />
        </mxCell>
        <mxCell id="xjCHL1lW9ZMJMm2sNrfe-25" value="Estabelecendo Requisitos" style="rounded=0;whiteSpace=wrap;html=1;fontSize=20;fontStyle=1;" parent="MZok9jrrbGF9HeDI4nrz-1" vertex="1">
          <mxGeometry x="40" y="40" width="160" height="80" as="geometry" />
        </mxCell>
      </root>
    </mxGraphModel>
  </diagram>
  <diagram id="Ze7a6LC26kbzUrQK-0m9" name="Etapas_Execução_transp">
    <mxGraphModel dx="1786" dy="916" grid="1" gridSize="10" guides="1" tooltips="1" connect="1" arrows="1" fold="1" page="1" pageScale="1" pageWidth="800" pageHeight="400" math="0" shadow="0">
      <root>
        <mxCell id="ISnSPc6OifKHeiko2NHP-0" />
        <mxCell id="ISnSPc6OifKHeiko2NHP-1" parent="ISnSPc6OifKHeiko2NHP-0" />
        <mxCell id="ISnSPc6OifKHeiko2NHP-2" value="" style="rounded=0;whiteSpace=wrap;html=1;fontSize=20;fillColor=none;dashed=1;" vertex="1" parent="ISnSPc6OifKHeiko2NHP-1">
          <mxGeometry x="20" y="60" width="240" height="600" as="geometry" />
        </mxCell>
        <mxCell id="ISnSPc6OifKHeiko2NHP-18" style="rounded=0;orthogonalLoop=1;jettySize=auto;html=1;exitX=1;exitY=0.5;exitDx=0;exitDy=0;entryX=0;entryY=0;entryDx=0;entryDy=0;fontSize=20;" edge="1" parent="ISnSPc6OifKHeiko2NHP-1" source="ISnSPc6OifKHeiko2NHP-3" target="ISnSPc6OifKHeiko2NHP-9">
          <mxGeometry relative="1" as="geometry" />
        </mxCell>
        <mxCell id="ISnSPc6OifKHeiko2NHP-3" value="Disponibilidade do professor" style="rounded=0;whiteSpace=wrap;html=1;fontSize=20;fillColor=none;" vertex="1" parent="ISnSPc6OifKHeiko2NHP-1">
          <mxGeometry x="40" y="80" width="200" height="80" as="geometry" />
        </mxCell>
        <mxCell id="ISnSPc6OifKHeiko2NHP-19" style="edgeStyle=none;rounded=0;orthogonalLoop=1;jettySize=auto;html=1;exitX=1;exitY=0.5;exitDx=0;exitDy=0;entryX=0;entryY=0.25;entryDx=0;entryDy=0;fontSize=20;" edge="1" parent="ISnSPc6OifKHeiko2NHP-1" source="ISnSPc6OifKHeiko2NHP-4" target="ISnSPc6OifKHeiko2NHP-9">
          <mxGeometry relative="1" as="geometry" />
        </mxCell>
        <mxCell id="ISnSPc6OifKHeiko2NHP-4" value="Recursos de infraestrutura" style="rounded=0;whiteSpace=wrap;html=1;fontSize=20;fillColor=none;" vertex="1" parent="ISnSPc6OifKHeiko2NHP-1">
          <mxGeometry x="40" y="200" width="200" height="80" as="geometry" />
        </mxCell>
        <mxCell id="ISnSPc6OifKHeiko2NHP-21" style="edgeStyle=none;rounded=0;orthogonalLoop=1;jettySize=auto;html=1;exitX=1;exitY=0.5;exitDx=0;exitDy=0;fontSize=20;entryX=0;entryY=0.75;entryDx=0;entryDy=0;" edge="1" parent="ISnSPc6OifKHeiko2NHP-1" source="ISnSPc6OifKHeiko2NHP-6" target="ISnSPc6OifKHeiko2NHP-9">
          <mxGeometry relative="1" as="geometry">
            <mxPoint x="360" y="190" as="targetPoint" />
          </mxGeometry>
        </mxCell>
        <mxCell id="ISnSPc6OifKHeiko2NHP-6" value="Previsão de demanda" style="rounded=0;whiteSpace=wrap;html=1;fontSize=20;fillColor=none;" vertex="1" parent="ISnSPc6OifKHeiko2NHP-1">
          <mxGeometry x="40" y="440" width="200" height="80" as="geometry" />
        </mxCell>
        <mxCell id="ISnSPc6OifKHeiko2NHP-20" style="edgeStyle=none;rounded=0;orthogonalLoop=1;jettySize=auto;html=1;exitX=1;exitY=0.5;exitDx=0;exitDy=0;fontSize=20;entryX=0;entryY=0.5;entryDx=0;entryDy=0;" edge="1" parent="ISnSPc6OifKHeiko2NHP-1" source="ISnSPc6OifKHeiko2NHP-7" target="ISnSPc6OifKHeiko2NHP-9">
          <mxGeometry relative="1" as="geometry">
            <mxPoint x="360" y="190" as="targetPoint" />
          </mxGeometry>
        </mxCell>
        <mxCell id="ISnSPc6OifKHeiko2NHP-7" value="Grade dos cursos" style="rounded=0;whiteSpace=wrap;html=1;fontSize=20;fillColor=none;" vertex="1" parent="ISnSPc6OifKHeiko2NHP-1">
          <mxGeometry x="40" y="320" width="200" height="80" as="geometry" />
        </mxCell>
        <mxCell id="ISnSPc6OifKHeiko2NHP-22" style="edgeStyle=none;rounded=0;orthogonalLoop=1;jettySize=auto;html=1;exitX=1;exitY=0.5;exitDx=0;exitDy=0;entryX=0;entryY=1;entryDx=0;entryDy=0;fontSize=20;" edge="1" parent="ISnSPc6OifKHeiko2NHP-1" source="ISnSPc6OifKHeiko2NHP-8" target="ISnSPc6OifKHeiko2NHP-9">
          <mxGeometry relative="1" as="geometry" />
        </mxCell>
        <mxCell id="ISnSPc6OifKHeiko2NHP-8" value="Políticas internas" style="rounded=0;whiteSpace=wrap;html=1;fontSize=20;fillColor=none;" vertex="1" parent="ISnSPc6OifKHeiko2NHP-1">
          <mxGeometry x="40" y="560" width="200" height="80" as="geometry" />
        </mxCell>
        <mxCell id="ISnSPc6OifKHeiko2NHP-15" value="" style="edgeStyle=orthogonalEdgeStyle;rounded=0;orthogonalLoop=1;jettySize=auto;html=1;fontSize=20;" edge="1" parent="ISnSPc6OifKHeiko2NHP-1" source="ISnSPc6OifKHeiko2NHP-9" target="ISnSPc6OifKHeiko2NHP-10">
          <mxGeometry relative="1" as="geometry" />
        </mxCell>
        <mxCell id="ISnSPc6OifKHeiko2NHP-9" value="Definição de grades e atribuição preliminar de salas" style="rounded=0;whiteSpace=wrap;html=1;fontSize=20;fillColor=none;" vertex="1" parent="ISnSPc6OifKHeiko2NHP-1">
          <mxGeometry x="360" y="320" width="220" height="80" as="geometry" />
        </mxCell>
        <mxCell id="ISnSPc6OifKHeiko2NHP-16" value="" style="edgeStyle=orthogonalEdgeStyle;rounded=0;orthogonalLoop=1;jettySize=auto;html=1;fontSize=20;" edge="1" parent="ISnSPc6OifKHeiko2NHP-1" source="ISnSPc6OifKHeiko2NHP-10" target="ISnSPc6OifKHeiko2NHP-11">
          <mxGeometry relative="1" as="geometry" />
        </mxCell>
        <mxCell id="ISnSPc6OifKHeiko2NHP-10" value="Publicação das grades, inscrições e ajuste de demanda" style="rounded=0;whiteSpace=wrap;html=1;fontSize=20;fillColor=none;" vertex="1" parent="ISnSPc6OifKHeiko2NHP-1">
          <mxGeometry x="620" y="320" width="220" height="80" as="geometry" />
        </mxCell>
        <mxCell id="ISnSPc6OifKHeiko2NHP-17" value="" style="edgeStyle=orthogonalEdgeStyle;rounded=0;orthogonalLoop=1;jettySize=auto;html=1;fontSize=20;" edge="1" parent="ISnSPc6OifKHeiko2NHP-1" source="ISnSPc6OifKHeiko2NHP-11" target="ISnSPc6OifKHeiko2NHP-13">
          <mxGeometry relative="1" as="geometry" />
        </mxCell>
        <mxCell id="ISnSPc6OifKHeiko2NHP-11" value="Atribuição final de salas" style="rounded=0;whiteSpace=wrap;html=1;fontSize=20;fillColor=none;" vertex="1" parent="ISnSPc6OifKHeiko2NHP-1">
          <mxGeometry x="880" y="320" width="220" height="80" as="geometry" />
        </mxCell>
        <mxCell id="ISnSPc6OifKHeiko2NHP-13" value="Definição final das grades e salas" style="ellipse;whiteSpace=wrap;html=1;aspect=fixed;fontSize=20;fillColor=none;" vertex="1" parent="ISnSPc6OifKHeiko2NHP-1">
          <mxGeometry x="1160" y="280" width="160" height="160" as="geometry" />
        </mxCell>
        <mxCell id="ISnSPc6OifKHeiko2NHP-14" value="Coleta de informações" style="rounded=0;whiteSpace=wrap;html=1;fontSize=20;fillColor=none;" vertex="1" parent="ISnSPc6OifKHeiko2NHP-1">
          <mxGeometry x="40" y="680" width="200" height="80" as="geometry" />
        </mxCell>
        <mxCell id="ISnSPc6OifKHeiko2NHP-23" value="Estágio I" style="text;html=1;strokeColor=none;fillColor=none;align=center;verticalAlign=middle;whiteSpace=wrap;rounded=0;fontSize=24;fontStyle=1" vertex="1" parent="ISnSPc6OifKHeiko2NHP-1">
          <mxGeometry x="75" y="10" width="130" height="30" as="geometry" />
        </mxCell>
        <mxCell id="ISnSPc6OifKHeiko2NHP-24" value="Estágio II" style="text;html=1;strokeColor=none;fillColor=none;align=center;verticalAlign=middle;whiteSpace=wrap;rounded=0;fontSize=24;fontStyle=1" vertex="1" parent="ISnSPc6OifKHeiko2NHP-1">
          <mxGeometry x="410" y="10" width="120" height="30" as="geometry" />
        </mxCell>
        <mxCell id="ISnSPc6OifKHeiko2NHP-25" value="Estágio III" style="text;html=1;strokeColor=none;fillColor=none;align=center;verticalAlign=middle;whiteSpace=wrap;rounded=0;fontSize=24;fontStyle=1" vertex="1" parent="ISnSPc6OifKHeiko2NHP-1">
          <mxGeometry x="670" y="10" width="120" height="30" as="geometry" />
        </mxCell>
        <mxCell id="ISnSPc6OifKHeiko2NHP-26" value="Estágio IV" style="text;html=1;strokeColor=none;fillColor=none;align=center;verticalAlign=middle;whiteSpace=wrap;rounded=0;fontSize=24;fontStyle=1" vertex="1" parent="ISnSPc6OifKHeiko2NHP-1">
          <mxGeometry x="930" y="10" width="120" height="30" as="geometry" />
        </mxCell>
      </root>
    </mxGraphModel>
  </diagram>
  <diagram name="Etapas_Execução_Opac" id="8OOi3goubPoBmblBVvEV">
    <mxGraphModel dx="1050" dy="621" grid="1" gridSize="10" guides="1" tooltips="1" connect="1" arrows="1" fold="1" page="1" pageScale="1" pageWidth="800" pageHeight="400" math="0" shadow="0">
      <root>
        <mxCell id="1N5iYHW5ukGO7OfZCZJD-0" />
        <mxCell id="1N5iYHW5ukGO7OfZCZJD-1" parent="1N5iYHW5ukGO7OfZCZJD-0" />
        <mxCell id="1N5iYHW5ukGO7OfZCZJD-13" value="" style="edgeStyle=orthogonalEdgeStyle;rounded=0;orthogonalLoop=1;jettySize=auto;html=1;fontSize=20;" parent="1N5iYHW5ukGO7OfZCZJD-1" source="1N5iYHW5ukGO7OfZCZJD-14" target="1N5iYHW5ukGO7OfZCZJD-16" edge="1">
          <mxGeometry relative="1" as="geometry" />
        </mxCell>
        <mxCell id="1N5iYHW5ukGO7OfZCZJD-14" value="Definição de grades e atribuição preliminar de salas" style="rounded=0;whiteSpace=wrap;html=1;fontSize=20;fillColor=#C2C2C2;fontColor=#000000;" parent="1N5iYHW5ukGO7OfZCZJD-1" vertex="1">
          <mxGeometry x="360" y="80" width="200" height="80" as="geometry" />
        </mxCell>
        <mxCell id="1N5iYHW5ukGO7OfZCZJD-15" value="" style="edgeStyle=orthogonalEdgeStyle;rounded=0;orthogonalLoop=1;jettySize=auto;html=1;fontSize=20;" parent="1N5iYHW5ukGO7OfZCZJD-1" source="1N5iYHW5ukGO7OfZCZJD-16" target="1N5iYHW5ukGO7OfZCZJD-18" edge="1">
          <mxGeometry relative="1" as="geometry" />
        </mxCell>
        <mxCell id="1N5iYHW5ukGO7OfZCZJD-16" value="Publicação das grades, inscrições e ajuste de demanda" style="rounded=0;whiteSpace=wrap;html=1;fontSize=20;fillColor=#C2C2C2;fontColor=#000000;" parent="1N5iYHW5ukGO7OfZCZJD-1" vertex="1">
          <mxGeometry x="600" y="80" width="200" height="80" as="geometry" />
        </mxCell>
        <mxCell id="1N5iYHW5ukGO7OfZCZJD-17" value="" style="edgeStyle=orthogonalEdgeStyle;rounded=0;orthogonalLoop=1;jettySize=auto;html=1;fontSize=20;" parent="1N5iYHW5ukGO7OfZCZJD-1" source="1N5iYHW5ukGO7OfZCZJD-18" target="1N5iYHW5ukGO7OfZCZJD-19" edge="1">
          <mxGeometry relative="1" as="geometry" />
        </mxCell>
        <mxCell id="1N5iYHW5ukGO7OfZCZJD-18" value="Atribuição final de salas" style="rounded=0;whiteSpace=wrap;html=1;fontSize=20;fillColor=#C2C2C2;fontColor=#000000;" parent="1N5iYHW5ukGO7OfZCZJD-1" vertex="1">
          <mxGeometry x="840" y="80" width="200" height="80" as="geometry" />
        </mxCell>
        <mxCell id="1N5iYHW5ukGO7OfZCZJD-19" value="Definição final das grades e salas" style="ellipse;whiteSpace=wrap;html=1;aspect=fixed;fontSize=20;fillColor=#ABABAB;fontColor=#000000;" parent="1N5iYHW5ukGO7OfZCZJD-1" vertex="1">
          <mxGeometry x="1080" y="40" width="160" height="160" as="geometry" />
        </mxCell>
        <mxCell id="1N5iYHW5ukGO7OfZCZJD-21" value="Estágio I" style="text;html=1;strokeColor=none;fillColor=none;align=center;verticalAlign=middle;whiteSpace=wrap;rounded=0;fontSize=24;fontStyle=1" parent="1N5iYHW5ukGO7OfZCZJD-1" vertex="1">
          <mxGeometry x="155" y="10" width="130" height="30" as="geometry" />
        </mxCell>
        <mxCell id="1N5iYHW5ukGO7OfZCZJD-22" value="Estágio II" style="text;html=1;strokeColor=none;fillColor=none;align=center;verticalAlign=middle;whiteSpace=wrap;rounded=0;fontSize=24;fontStyle=1" parent="1N5iYHW5ukGO7OfZCZJD-1" vertex="1">
          <mxGeometry x="400" y="10" width="120" height="30" as="geometry" />
        </mxCell>
        <mxCell id="1N5iYHW5ukGO7OfZCZJD-23" value="Estágio III" style="text;html=1;strokeColor=none;fillColor=none;align=center;verticalAlign=middle;whiteSpace=wrap;rounded=0;fontSize=24;fontStyle=1" parent="1N5iYHW5ukGO7OfZCZJD-1" vertex="1">
          <mxGeometry x="640" y="10" width="120" height="30" as="geometry" />
        </mxCell>
        <mxCell id="1N5iYHW5ukGO7OfZCZJD-24" value="Estágio IV" style="text;html=1;strokeColor=none;fillColor=none;align=center;verticalAlign=middle;whiteSpace=wrap;rounded=0;fontSize=24;fontStyle=1" parent="1N5iYHW5ukGO7OfZCZJD-1" vertex="1">
          <mxGeometry x="880" y="10" width="120" height="30" as="geometry" />
        </mxCell>
        <mxCell id="Vlu5gIIiWKwj2odsxIbF-6" value="" style="edgeStyle=none;rounded=0;orthogonalLoop=1;jettySize=auto;html=1;fontSize=24;" parent="1N5iYHW5ukGO7OfZCZJD-1" source="Vlu5gIIiWKwj2odsxIbF-1" target="1N5iYHW5ukGO7OfZCZJD-14" edge="1">
          <mxGeometry relative="1" as="geometry" />
        </mxCell>
        <mxCell id="Vlu5gIIiWKwj2odsxIbF-1" value="Coleta de informações" style="rounded=0;whiteSpace=wrap;html=1;fontSize=20;fillColor=#C2C2C2;fontColor=#000000;" parent="1N5iYHW5ukGO7OfZCZJD-1" vertex="1">
          <mxGeometry x="120" y="80" width="200" height="80" as="geometry" />
        </mxCell>
        <mxCell id="Vlu5gIIiWKwj2odsxIbF-5" value="" style="group;fillColor=#C2C2C2;strokeColor=#030303;dashed=1;strokeWidth=6;gradientColor=none;gradientDirection=south;glass=0;rounded=0;shadow=0;sketch=0;" parent="1N5iYHW5ukGO7OfZCZJD-1" vertex="1" connectable="0">
          <mxGeometry x="100" y="180" width="240" height="600" as="geometry" />
        </mxCell>
        <mxCell id="1N5iYHW5ukGO7OfZCZJD-4" value="Disponibilidade do professor" style="rounded=0;whiteSpace=wrap;html=1;fontSize=20;fillColor=#EDEDED;fontColor=#000000;" parent="Vlu5gIIiWKwj2odsxIbF-5" vertex="1">
          <mxGeometry x="20" y="20" width="200" height="80" as="geometry" />
        </mxCell>
        <mxCell id="1N5iYHW5ukGO7OfZCZJD-6" value="Recursos de infraestrutura" style="rounded=0;whiteSpace=wrap;html=1;fontSize=20;fillColor=#EDEDED;fontColor=#000000;" parent="Vlu5gIIiWKwj2odsxIbF-5" vertex="1">
          <mxGeometry x="20" y="140" width="200" height="80" as="geometry" />
        </mxCell>
        <mxCell id="1N5iYHW5ukGO7OfZCZJD-8" value="Previsão de demanda" style="rounded=0;whiteSpace=wrap;html=1;fontSize=20;fillColor=#EDEDED;fontColor=#000000;" parent="Vlu5gIIiWKwj2odsxIbF-5" vertex="1">
          <mxGeometry x="20" y="380" width="200" height="80" as="geometry" />
        </mxCell>
        <mxCell id="1N5iYHW5ukGO7OfZCZJD-10" value="Grade dos cursos" style="rounded=0;whiteSpace=wrap;html=1;fontSize=20;fillColor=#EDEDED;fontColor=#000000;" parent="Vlu5gIIiWKwj2odsxIbF-5" vertex="1">
          <mxGeometry x="20" y="260" width="200" height="80" as="geometry" />
        </mxCell>
        <mxCell id="1N5iYHW5ukGO7OfZCZJD-12" value="Políticas internas" style="rounded=0;whiteSpace=wrap;html=1;fontSize=20;fillColor=#EDEDED;fontColor=#000000;" parent="Vlu5gIIiWKwj2odsxIbF-5" vertex="1">
          <mxGeometry x="20" y="500" width="200" height="80" as="geometry" />
        </mxCell>
      </root>
    </mxGraphModel>
  </diagram>
  <diagram id="Uxjk4VKu5y53PT5NG7S5" name="Funcionamento">
    <mxGraphModel dx="1036" dy="206" grid="1" gridSize="10" guides="1" tooltips="1" connect="1" arrows="1" fold="1" page="1" pageScale="1" pageWidth="800" pageHeight="400" math="0" shadow="0">
      <root>
        <mxCell id="C1SsH0Z7lR1WdP4EDRss-0" />
        <mxCell id="C1SsH0Z7lR1WdP4EDRss-1" parent="C1SsH0Z7lR1WdP4EDRss-0" />
        <mxCell id="C1SsH0Z7lR1WdP4EDRss-2" value="" style="shape=image;verticalLabelPosition=bottom;labelBackgroundColor=default;verticalAlign=top;aspect=fixed;imageAspect=0;image=data:image/png,iVBORw0KGgoAAAANSUhEUgAABDkAAANUCAYAAAC5Q/YeAAAAAXNSR0IArs4c6QAAAARnQU1BAACxjwv8YQUAAAAJcEhZcwAAEnQAABJ0Ad5mH3gAAP+lSURBVHhe7N0HgBTl+T/wZ7Zcp3dFxEKzIEQNiAgaILEiiBK7sWAhGtGoIf5VbD81aixRiUbRn2LUaNSIJf4CxmCISogRFaOCRkWUeke7vrsz//f7zrx3c3N7d3v9du/7ScYpOzs7M3vc7fvs8z6v5ShCRERERERERJTmQt6ciIiIiIiIiCitMchBRERERERERBmBQQ4iIiIiIiIiyggMchARERERERFRRmCQg4iIiIiIiIgyAoMcRERERERERJQRGOQgIiIiIiIioozAIAcRERERERERZQQGOYiIiIiIiIgoIzDIQUREREREREQZwXIUb5mIiIioXRUVFcnSpUv18vTp0/W8Lm+//bZs3LhR9ttvPxkyZIi3lYiIiDozZnIQERFRh1FYWCizzp+lp4YsWrRI77dq1SpvCxEREXV2DHIQERERERERUUZgkIOIiIiIiIiIMgKDHERERJRRVq5cKRdccIH07tO7apoxY4bMnz9fysrKvL2q1bX/iy++6O1RbeHChTJ37lxZt26dXh43bpzen4iIiDoGBjmIiIgoYyBgMXnKZHn+hef1+nnnnicTJ0yUpW8tlevmXSdz5szR2w0ULw3uP3TIUL0/6n0gMOL38ccfyyMLHpEVK1bIZZdfJqvXrPYeISIioo6AQQ4iIiLKGM8884yeI1ixZfMWue222+T555+Xle+v1NsRzEBgAzCSy9Tjp+rlK35+haz+bLXe/4033pCnn3pab0dgZM2aNXrZDwGQGSfMkHfefke/DhEREXUMDHIQERFRxjABiTFjxui5MXDgQB3oQFBi9OjRett7772n58j0QBeUnj176vXc3FyZMmWKDnzA4sWL9dwPz3nooYc4dC0REVEHwyAHERERZYxJkybp+R133KFraiBbw0CgA0EJBDEAGRtgnhN04IEH6vkHH3yg5351PYeIiIjaF4McRERElDHOPvts3Y0EtTLQpWTosKFVRUeTdTsBdEnxFx010ymnnqIfN/U6/AYMGOAtERERUUfCIAcRERFlDGRp3HPPPbLopUVV3U1M0dFDxh1Sq5AooOsJanjUNxEREVF6YJCDiIiIOiR/V5Nk6srMQKADQ7uizgaKgi5ZvKQqUIFghyk8akybNk0XHK1vIiIiovTAIAcRERF1GL169fKWqguDJoMABzI0YI899tBzIxgcGTVqlA5UmEAHhpmFfffdV8+XLVum50RERJT+GOQgIiKiDgMjnJhgxLx585Jma6xbt07OOussvYz6GwhiALajlsaxxx6rl4OCxxo7dqyeo+ZGste54IILdEYICpgSERFReghfr3jLRERERO3u0EMPlXAoLC+/8rIsWLBAvvjiC4nH4/Lpp5/KSy+9JGeedaYUFhXqAAfqb0SjUf08zF995VVddPSTTz6RyspKKSkpkX/961/y+OOPy4t/coMVt9xyi84YwWTbtrz9ztvy97f+LllZWZKXlydvvfWWPi6CH3idm268Sbp27aqfu2TJEvn3+/+WqcdNlREjRuhtRERE1HFYjuItExEREXUYKBKKGhrJINsDmR5mOFgDGRyXXnppVVcWv6FDhsqdd96pszOMsrIyeeyxx5K+DvbHOZhMEUCdj0cWPCIP/+5hmT59ureViIiIOgoGOYiIiKjDQn2NtWvXypdffqnXUX9j0KBBultLfRDswPM2btyo1/fbbz8ZOHBgraCIgddBpoh//yFDhuhlPxwXgRFkgTR0DkRERNT2GOQgIiIiIiIioozAwqNERERERERElBEY5CAiIiIiIiKijMAgBxERERERERFlBAY5iIiIiIiIiCgjMMhBRERERERERBmBo6sQERFRRmvKRx3LsrwlIiIiSicMchAREVHasB1bHLG8VFRHHMdSa1hy19VHG3duY7Il4cTVhP3UumWpua0fRgzD3RaSkOWo41kSjmSJWsFR1XpYbcEr4XAhsUO2WjZb1OPqeURERNTxMMhBREREHZ75uOJ4MYyQY4ttJyQRssR2EvhAI3asXBLxnSKV68Sp/FhCFWvESpSKxIvVUyrVpx41SUwHLUTCap6l5llihbIkEc6XRGSQWj1AJLKLhKJdJRztIVZE7WclJBQOqT2jan91AurpyPTAOTHjg4iIqGNhkIOIiIg6LPMxRWdeiC1iWxKXmMTtkITKN4ld/IE4ZR+JJN6XUGyVRBPfim13VfuXiWPF1O6WhBzkaeijID6CZA3Fze5A0ERnZ7ipHWpyM0PiVleJhUeJHTlArOheksgZKuG8YRLNDUuOky0SVsf0BTgY7CAiIuoYGOQgIiKiDst8TEG2RjxeKYnyLWIXvynh4pclVPlvCVlF6sGQWCGkVzhqP2RpxHR3E8cKi4TUHMERHd5wWWofvYa4hpqFJCGW7XZ9QThEv6Q6Fh51Xx9dXPIkLvtIedZEiedPlqwuIyQnJ0cikYgOcITw+kRERNTuGOQgIiKidqNrZOgMC2RC2PhgouML8ZBX9yLuSEWsWOzif0l4x2Mi5W9JWCr0vnpSOztqP+RfuDkY6pg6q8Jddre5GRzuJm/ZR8czdCBDhzX0fnovfETyzkcsWy2qB5wwVqTC2k8qck+SeN6PpEuXXhLNyZVwSJ2XnSsSRvcZdz92ayEiImpbDHIQERFRx4CYgpohqJBQ/0GNjVhJodjbrpVw6XOSZeeLZZWKbeWoubuvrtERQn0NHADUhpAX8ECQxNuuZ1VxhqoFF4IQmKv/IOiigxJ6O4qNYq6ebSOgYp7nSMipkEQiLKVZu0mp9VvJ77OvRPO7S3Y0ps4/KrY6JYQ59N4MchAREbUZBjmIiIio3eBTiIVsDHwaQSxBLcfjFeIUrxFr5x8kXLJEnMQ6saQC9T7F9rql6IiE2oKsDdTdcNcxQ/aE6Tri267oDzxq1c3u8DEvrqbqj0XI4FDLatJH0dvd7BFke1iJiITQhcYJSSLcRYqzposVPlFCXfeU/IIukhWNuMEXPJcBDiIiojbDIAcRERG1G9sLIiBrwnHKJVG6XuzN94pd/pyEEgkJhbLEstA9BSOpZLsBCh008Ap/qgndVdSCDnhgQgwEH27cYAaCHm4QRfc2UQvJh3/FDghiuNBdxQ1yYA3zhLeIfXC8SrWPLeFEROJ6uFlbQnZcKkIHS0n+lRLtdrDk5+dKNIoRWVwMdhAREbU+BjmIiIioTZgPHAgeYNkEHVAINFa5VeyiZ0QK75WItUlQAlSssDihmNovS68j8IBlnbmh4xcIY2BZhyT08fQD+v94vtqGF9KZH77X9+ZVvAdwFL2Cc8KSPjecq9pmuTU73MfU/xIIdCTUayYkbMf16+hn2Y7ErTwptY6WeJfZ0q3nYMnKyZdQ2C2AiiwTSz8Pr2c6tBAREVFLYZCDiIiI2oYOGFSqpn5ErVgSUuuVGA52+0cS2XS5JOxPJJpwdCBAZ2fosV4RrHAnnanhBS/cbXhczdT/3ACHXnGfi0lxwxXVGRrJ4IMQ9qo6BGpxYLQVveZ9TPI+LuExRz2mAyJqGwIW+lXsuJ7r3XCd6mAxu6tsicyTnF5HSq9uXSQUQVaK+zrI/oiYFyQiIqIWwyAHERERtQ31icNGNgMWYiIVVqU4GxeKbJ8n2UiUCCMAgqFf3SCFHhYWe6vl6sAFogTu5G6rGSlAaCKhtqFriA5FqJfSr+dTFRAx1Aa9CYfVgQuEUvCc6h3dLjAIZrjdVUy3FRQkRVeVGtvVMj5ehfRySLZFjpeKgjnSpfdgycvNkjCGsFUHDFkI9hAREVFLYpCDiIiI2khcnDga+AmpLN8osvEqCZcslnBYpNKKS0jy1CcTW00IXqiNOpCBQIOaQnieuw3MdnRdwQcZE47AHMEN/Vw1T+1jjvtsHBIBDh2sCAghG0Q9poMg2KB3QRAjobfjdfQrOgl1CQn1CAIdtmSp5bhkSbnsLqWReZLV9xDp2iVfXXNUB2KIiIioZTHIQURERK0DnzCsmGrso/hmQnS9ipAlFVs/lOiWCyVUuUacUEiPmILSnSIRvY4gh8nS0MGMqowNd10/png5Ie7L6C1uRoYXhlDU4whAeGuGebQanqe26v9jf3PUajpbQ811hocOaKg1R23zght2wj0bdGdBkVJLXa+lLjkRikk4jnoitlTYXaQw/AvJ7nOcdO3ST7Ky1FH0yeA/ZpmIiIiag0EOIiIiah3qEwZyGhCSQPWNyspSsTc/JeEd8yVkb9HdUdBtww1qhHW2hoVio14gww1wuAEAN3NDxMZ2LygA7oeY6nVsMPtWafCTTnAH9QqBQyCA4c69ZQQ4sIwgh/4o5QY7EABBkAMBHV2vQy9j7gZPrERUNshPJV4wQ7r36S1dc3qKE3EkbKN7TuBFiYiIqNHcr0KIiIiIWhi6paj/ShwFOOK2yOb54my7WyxrvYRsSzXqy0RnaXjZG3o0FcsNaLgBDgQ61OTP7vDCDHpCcQ1dYAOTouMQ3nJzuXGLqskNYegwhjvX5+Odq+/89Lp+3N3H7XaDTA617lSKE4lJn/C9kr3zCdm6aadUxMoknKhE6Q4iIiJqAczkaEWbNm3ylogok+Xn5+uJiGpCTQrLsaRCNe6lcLHI5gtUY75cQmpbxEpIRShPj7PiBgiQyYHJ8gUM3JZ/VWBBr7lBBHfFC2hgptbN42apmrdfnYL7J6EPoV/ZfQXLdFVx1/WZmiwOPVePoyipnmMbhpm1JJSIi21lq3uwQzbHz5NYzyulX9+ekhWNihVmpIOIiKi5GORoQSUlJfLFF1/I559/LlsKC72tRNQZRFUDZbfddpPhw4bJwIEDva1EnZz6iBFzKsTe8pqaLpGoHRfUqkDmQyKUJaGQ4wY3fEEOnZyh9jJZEQghmACH+4EFORF6J73d/NfdT6/i0w2WfNw96lZ7f/0aPrY+ZnVQw0bNDf0/d5s6W/VfvDRqciC4gWX1mK32c9Q1W7aEYtijRGz90StXbS+RosS5UtHzYunft79kZeVhByIiImoGBjlaQCwWk08++UTeXb7c20JEnVmXLl1k0g9+IH379vW2EHUO+gMFGvmqhe/YlWo9KrGtf5XQxp+qRv5WiWDoVOQ8hNRcBzQQyPDWdbADwQ1vQtgAc3XQ6tACju/N25s+DfMRypGIqOvWMFdnrB4K4eSRxaGHmcU2LGP0lbjeBm6Njp+I1fOn0qNPL8mJZumjWuoAqE9CREREjcMgRzNt27ZN/vrXv8rKDz7QWRwVO9fL397+wHuUiDLZ4eMOkOwuA2SvvfZKmr0xdswYGTlypLdG1BnYYiPIgQCFatCX7/hQIt+drrZukSz1cSMRDqlHIurhcJIghxfUQDhAfTLR23VowIQSLGzUSx1H9dm5NUPddYykos9erVZndqi5DnCg64ob+BCpUMtRdc8SsjF+tUT7nyq9e/WVSAgZL1nmoERERNQIDHI0AwIcd/7617J0ySL55PNv9bZzjhHZZ0+Rglx+MCHKZMVljvznvyKPvuqu9+/TTaYcebyMGDHC3eDZd9995dBx47w1osyGjxT4n2qjS1nFd2KtnyaRyrUSloTEQxgeNiqWCWpgXS3b6s8lRlnBqCm2/kTiBTe8gIb+lFL1J7Uj/m2t/hhl4Vq8QAcCPrgSdaVuQMMLdoR0nQ43yBHCLFTh3rd4N1knN0iXXY6VHj0K1D0LqduEIxAREVFjMMjRRDt27JAzzzhFlr29XCaMFLnsVEtGDRPJzfZ2IKJO450PRe5+ypG31PyA/feVY6dOr1GI9HujR8tBBx3krRFlLhsBjkRCyp1SsddeJNHSP6tWflScUEwSoTyJOiHVqK8Z5FCb1LMssb0sDh0W0IU5vIoX+JiClAj9GKaO8rHFfy7e+elN6GbiTtiODA4dtsF1eAGOkJ1wAxtOXMI63lGpu7aUObvIhvCD0m+3faVLXq5Y4Sz1TCIiImoMBjmaYN26dXLMUZPl2w1b5MGrLJl2uPcAEXVqf/qbyIW3O9Kvd3c565wLpHv37t4jIkcfdRQLklLGcVB80wl7TX10v7Ck0ikXe/2jEi2a53ZP0ekNXvcUBDh0gdGQ2x1FbUP5TjwPAQ49IeqREWx17V6gQ0/I4nCDHm63FfWYg/uHKIdXo8MOy1Z7jJTk3yn9dx0o2dnZYqn7h4mIiIhSkymfJNpMUVGRTD/+GMkNF8n/3csABxFVw++Dvz9kSZfsHfL4ow/pLm3GkiVLdJFiooyCgISlGupWvCpzQXZ8INbW28RBzUw0zr3MDT0h2IGMDQQ40D1FH6Q6wIGnZw5ck8u9M8ha8YI7OoMlpG6Pe0/coXPVvYlUSC9rqVg7nlGfN7ZJIpFwn8/vo4iIiFKm/rpSY/xy7pXy5dpv5bHrHDlgiLeRiMgzZDeRP/yPIxu3bJMlr79UFdioVHMUJybKPI44iYjYsbAkYrZI0f2S5ZSJY6MBn3Ab92jU4yMHGvVo0HuBjqrghjfpfTKKuT5clxv0QJDHHTJXrXtBD0dwT3B/1D20cqVn9GnZvu1bqaysxEHU7VL7MtBBRESUkkz7NNGqXnzxRXn+xZfkyXmWbsgQESWza1/Rvyf+/eGn8vHHH3tbRf79/vveElGmQMMblTPUB4pQQpyyFWKXvaE2RVR7HSOpRPGAbsi7DXvT2HezOHSDH3NMGdeGR2DCBG9wjeiw4gY4cE+qszjcdX1v1I5WJCFZ1gbJrXhdtm/fXpXNQURERKnBpw1KQVlZmdzxq5v16CmTx3gbiYjqgN8T+H3x7LN/qMrmKC4ulpKSEr1MlAnQcE940YlEYpvENt0i4VCl2KGEHjUFjXhL1GQCHCE3e0FncuhnYUQV9ZgvGBCkM0EQHtAFPG29L0ZwwUgltqVeB8Ot6kKlyBrRZ+Q9s+nQ8wav6eA6MOSrhZKqaqMeCsaWBM5fzdUG9XruOQW516L2w/mi4Kpa05O6X3quj4EJ9wP3JiRhJ6KfE1Xr/bIXyNaNX6jfGaVS6VSq47nFSomIiKh+DHKkaNmyZbL6i6/l7Km1P8gQESVjfl98/vnneg4MclAmQUBBNdMlbsXELnxTwuX/kpDtNtzNULFuloL6t6AWEYJAMx2NfGwwwQ13Mv+tKSRxtT0sthVWr4PjJHQEwZKIROyoRCuz3eNFIhJSx8N+zRUPWTg7CcWzxApni2VH9DlgbNxQIiRZCTVX28SJ6qBFsvOu3oYlNTnqnuAmILDhbXa7rniT2mCHERASSagpKsXSw1kghZs3i1MWF9tWj+nIEREREdWHQY4UvbH4VT1ULLupEFGq8PsCvzc+/uCf3haRDRs2eEtE6U/nVtgiFcUbJbH9NglLeXVmgprcLAw04jECi9vAR2PezcZAkMM9Tn3cQAjyKGzVyA9JOBGWrdvD8shTIj+7dqP8z+9KZc3ahFhxBA3UAVELpJnCEpeEZEsiFJeiHQl58iVHrrhms9xyT5ks/09IKvUpqXOyYuqSMAKKevGUeNeNe+O7T1UTio9ayOZQy0rvyF+lbMf7snXrFqmMl+usFWZzEBER1Y9DyKaod5/ecuclIqcfxW9RiCh1T/5ZNY7uE7nlllv1+tgxY2TkyJF6mSjdJTD8aWmJlGw+QbJL35OwkyWO7pKC4WJRTFM12LEcDiNEoRvybjaHJbYOdLj1POqDDykhFDC1Q5JQh/zDiyLXXPe1bC0pw4cYtUNYIuGEjB81UK67Lqr+feVJqJkfbRx1XWXxHLny/22WZ/+4VZ1DuSTUddmOLbmhLPnhD3vI/ff0kC5Z6tx0N5mo98z64YrRF0ZfuZqH9Kq6MwlEaJChkpCQjVlMba/Uj2+q/L4Uyl0yYFBf6dK9m0RDyJLhZxEiIqK6uF8VUEoKcvmhgogap39P9/cGu6lQJsH3I/o7ElvNdzwnuTv+qRru2epThWqsm6wEZCzogIcbzEDmglvBQjf1U2ahngW6eoTC8tSfonL5FWtke7H696SDC2qy0JXDkTf/vUlOOHO9rPoPureghoaCAIL6X4NwPXpPR9fKQJeX8y/cIE++8J3YEWRdqOPYCUGORUU8Li//33o558wtElfnhS4rViK1IAdexfu/G+TRy+690Zkdehm3T/8HVye9IislWvGSFG7ZLFalm8nB76eIiIjqxiAHEVEr2n0Xd84gB2USZBJgisVKpHL7AglH8tRGFOBE5oYX5NAZB9UNd0DT3EyQQvhBHUM17NX8P59XynXXfiExG0U48Vz8D5kharJtnQFRtLNCfnZZoRSXo34GwgdZiHM0DJkRKCSKri7qCffNd+T/3tgiYSckCXu7ui48jvNWxwwlBIVO//5esfzP7UUSRyHScCr/vt2rdv/rXrlbeBSr6j/efdOP6/OJqFXUF6mUfl1+J+U7PpHi0lI8qh52n09ERES14dMHERERUYOqswgcPepIfMe/JBL/WBBHsJy4+lQR0Q11M7mNeN2KR3iguoHvtuz1WkPQFQSN+l/dVSnbykp09oifLn4aQsCjXE22fPRFoTz9/E61G6p4qDNDodIGoJaHZbuFRYu2huXXv1sjiTCOaUsImSSo9RFQGS+Rhxduk43f5ajnp/pxyn/d7v3Q9UlM0KLqvpm5en31WDf1Wl2txbJ1R5HE46zLQUREVJ9U/yoTERFRJ1edQeBIwo5JqORVCTu5YjkV6rGo2gGNb7WP10jXy3pvd9LresEcx8zrZjuVUp5IyN/eKhMbw46gK4ePG4pAqAMBibDuuvL0Hyrd4IalzjGFTzqWel7IsnW3mP97s1x2FkfU0dyuMI56zDv5GiJWRCoqKuX/lhQKxl5pGPYx+5llNZlNehmTd++wrF4bmSO2VSrdI+9L2fZiHeQgIiKiuqXwp5+IiIhI8Rr76LaBxnaoYonYIVvCTrbagjoYGEXFzdrQjXbTcNfLSo0AR2rQZeON12NSXLFZshwEImo+H3EVvK6EsgQFQ1Gsc9XqLbJlQ5Z6pajYKQy7iuKfjsTUknqtpXEJ2xU4IsImelsoSSZHHFktibC88kZprXOqn9rX3EfvfmDmZnPg9TB376GuLWKHJJ6VI3nhLyVesUbKysrUNaFrEGtzEBERJcMgBxEREaUkrgMZ6n8x9fGheLmEE+sFo4TEwmpbKEu1zdV2PaHRrqYQimeizoTbcHcnv4Yb6WEnIa+/XSF2IuYdp+ZHF7yO7rKiJjyMrieJWFyW/MORsK2WEfVoiOUWG610suVvf9vkDtWKEIc6uGUh+BE8b3UW6rAhp1L+/s9tUlFe+/H66ECQOjbOHV19bHXPcK+qCrUi4KHXc8SJhCRkIzPFkq7Wm1K8bZvEdKERBEGY1UFERBTEIAcRERERERERZQQGOYiIiCglYbF0BkMsVC5O8cve1uo8B51p4dWTqM6f8C83HjIsViyvFMdGgU9bTw2xwiH56KMiSVjqjBreXY/OgsyKz9fEZUcxMjca5qgbgePH4jF57/0mZlQgm8MsqoWq+6fvKJbVyWPEGtx5q1K6Z/9TCnfuELu8Um3HALOpDV1LRETUmTDIQURERClCMEBNqmEfLvu7t01B9wo9mWWMDIIGPDYoaMyjb4ZZbwRbNeS//qZQrAga9iYAUL94PC6ffmYLBkxBYKYhGMEE5/vRxyVqrp6hz7V+/hFXvviy8dcF+gj+1/LfO73sruOaUZ+jS3it2GWfS1kZhpJ1h9IlIiKimhjkICIiopSgUW2rhrdd+h8JJb7RbXBDL+rGOdrtWFONdWxrprLSsCTiqpFvOxJyUHuj4Y8uGAXmy/9WYHwUd8CXBqmd1HO+21iinlPmRR/qZzk4dkishCWbtm7ztjaWdwO9AJB+Wdw7b0JBVdQ8cYNL6rrVfl2df8rW4h0ST2TzQxwREVES/PtIREREKUGGQ1xNodIV6gOE2w/ECUXEDkX1HAEINwvCHdYVARG3C4bbbk8pehBQXFLqBlbUc3FMsRLeI3VD1khxZYVbeNR94XrZli0h25YYapcm1HWkEhlxIvqMdOxB0KWk8cyZ4ZbhPumiro66SpyzOgV1N9Vj6gVC2WKhEKkVk27RT6W8tERicWRyNP5+EhERZToGOYiIiCg1Ohig2t+Vy3XjW8cz9HY3mOF2s9Dtc7cFX9UGNxsbL4rRRfBaOqtBHT+FYVMRI4iGLPUMfMxJoSiHPrZ6HiIWls7/8LbXDVesr8vWoQh3Y5PgtczructuYMi9v9VHdh/LzftMKneWSGUMQQ6OrkJERBTEIAcRERGlxHHCYseLJVSxQjWwETxAUKC6ga4b5QhEeFtMwxwb3MCB2Td1PXrkqidjSFewdcAjFQMGZOkuLlWnVw+dEaH+36M7AipqsfoC6oTn4NDqGZKbk8ITkvKfnBvccI+ktuM+6sgL9vGmkCM51nZ1/7+TykoUY42kFPQhIiLqTBjkICIiopSg/GUisU0i8SK15jauq4IXpkGOVY9un6vd3H2axnHKJC8vpI6FAIA6WAqJGZFwVAYNLlAfctD9w9tYD/c8Q7Lb7nkSsqISCjX88citO4LnOtK/fxe93DTqOFUpMe690qeM69WvoSbvtbA97CQkGv1K4hUxtSGVLBUiIqLOhUEOIiIiSonO3ohvVQt1dOnQAQ13QkAEAQYsV21tQtZBWE0Dd+snIX0wXxcZDzIZgtkMdtyRgf1D6EmidkhyngF6pFbLkd13y5GscI44durnaakn79I/y1trGrwa7mfVmWJBXVP1KC9qrgMduH4MHLtOyirL1S5ud5Vk94CIiKizYpCDOoxvN4lc/YCjp46q/9FO1WR0pPNOh3tIRK2rqAhZFq1D51LEvtQNclSi0I1xPeE/7txCdxKzjka6WQbfYspU433s2IiufYHhXREO8EOGhy7U6UFj37Yq5KADctX+ttohhawMBBTUFQ3dy5Gu3ZBB0fBzLAsBhrDk5+TLgaObcmHJ4H65tw1X6YY91H/Rh0YvueVec0NbpLyiXGwmchAREdXCIAe1mKId1UGAJcu9jQ246DZ3/1897khphcijr7pTOulI552u95CIWs7tt98uM2bMkIULF8q6deu8rS1Etaqtyv+4QQUda0AzvPqjhAk2uAVI1bK72iyOJOToI7IkKxtBC/Vq9WQsmNfPzymQiRMRGMF6wyfhhNVedkgdu0yO/OFA/ZoNiTgYUcaWSRO7SFao5QqAuhky7jnr+6iW9TZ9TzGMbkiyIhskXl4m8QSjHEREREEMclCL6dlV5LIfu8u/e7HhTAJkHbz4lrt85DhLenUTefAqS0/ppL3OG9ka/owSSNd7SEQta+lbS+Wyyy+TUaNH6YDH/PnzZeXKld6jTRe3bQnF1omtGtuOrluB3zXVE+IPukGOuTc1l+NkyxHjo7L3HnlqJaGHbPXzd9PAMuppzDyhu/TMt8WWiPqgk8JJqIOGQrY4dljOOClHIkgYaUDCsSUaDslPTuup1lrmd64b4MBcTTpgoyZvboIfyKDJiiLIUS7xuLof3vX7s1mIiIg6MwY5qEUhWAFvfegGMeqz6C33g9mEkSIHDHGDJNMOd6d00l7nnSxbI13vIRG1HgQ8rpt3nUyeMlnGjRvX5ICH7gaiGvahxE7V4Fa/vxEI0NkFeFT9R7fBqxvaVaGFqoWmsUJxCdsxufjiPXVDXrfp1YRmvzvCS8StRWohSGFJbk62zPlpHze4gWFYnYazMiy1a0Lth/oaow+IybFTdtNHd68zjP961CvpYp/qEXUuYw7uJxPV3z27yQGG6iNjycRr3G4qQfoG6/chJ7xTKmMxse2Gr42IiKizsdQfy+q/sFSn3n1662/H2Xhs2My5jg5yzDtH5KIT6/7gd9gsR9Z862Ye4L6WVYis8wIjQ3Zz5wYCJiv+460oBbki3xvhNuqN+p4POAa6cyDbwf88QFebf38iUlzmbVAO3kdk177eisefObHhNffakr0ujle43V2uS7Lz+GCNyJfqnhjJrhPX8cmXIqff4J7L3x9yzwOv3dA9CB6/X0+RUcNEcrO9DR5zrwZ6149jfvyFu4xzOnRU7edQcmu+UT/rFzgyZ85l0rdvXxk7ZoyMHDnSe5So5c2dO1ceWfCIt1a3oUOGyumnny6jRo2S0aNHS26u+sddD3xcKK8sk8jXZ4pT+SaGMFGfIiIiIUxh1ehXUziiG/+2hCSB71F0BKTuvwOpQOaGFVfHDNvy08vi8odX1C9AJyZqgzonvJIjYfXrMK7OIxwV+dW8veScU9Q5NRKCJghfWBKRbzZlyTHTvla/CzerA6vzV8e2LfWa6lHUHMEnp37dusjrrwyW3QdW6MKlzfveSB1QvQyCKmF1FgirWHZcQiiAaifUh7WEejAhth2TcCIhCSci/yx8UvbZb5T06NFTB39MJseGI8bruV//N5d5S6723gf8+7XUPtCa553KPtDY826pfaCp591S+0Bjz7ul9oGmnndwHyJKbwxypIhBjtT96W8iF97uyJBdRf5yv5W0MfzOhyLT57o/ev95xtKNeNMYBH8A4aZHnDprTNx5iWrsH+Xum+z5fujegeME38cn/+zIFfd5KwHofvOLs6qPlSzIkex1zT2oj/88cJ2X3+1Udd8JevE2Sw7x2sXmOoLw2nXdAwQtLrvLDT4F4X26X50LsmkM8xr/d68lDz5f+7zwnJd+7b5vVD8GOVpfWVlZy9eeUEpKSuTLL1WDuoUVFxfLxx9/7K21nDVr1uisjaa64udXyIQJE+oMeOggR0WZhNfOlFDlu2JHwqphHRHHC3DoQEdrBDmQPBGOSyQRkZ1xS86/eKcsfmODOn65ekAdHaOhOOWSF+ohF1/aTX5xcRecrPfsFGF3dZoYDhYZHRHLln/9J1vOPHetbNhULnGnUiJ2ROxQhfrgFJXevfPk8d8NlHEHYAQXS0KJsJo3J6sCF+LOddBG3UELwQ1UFkWwQ90ES00Jp0LdB0fitiPLCx+Xffb9vvTs2YtBDp/WPO9U9oHGnndL7QNNPe+W2gcae94ttQ809byD+xBRemOQI0UMcqQODfY9prs/Vv7GuZ9pRPuDCA0FC3D/91CN69IykS++rQ5MmNdoSpADmQ0/utR9DjJPRg21JE99tn/7A0dueFRvlifnWTJ5jLucapAD20zmg9//vVsdMEAAwQQWfvvH6tfD+e27l8jX37m1TUxgwgSD6svkSHYueD/OmuceZ/oEdT9nWNK7m8iW7SJ/+It7T4JBC3OvsB3ZNrg3k8dY+prM+9FQpg65zHtyxhlnSq9eveSAkSNl+PDh3qPNt2rVKm+pZS1fnmL14EbYunWrPP/C894adWQm4IHuLYYOcpSVSXjd8RKufF/siC+DA9kNyOhohSCH5WBEEdXYD0fFsct1CODZ5+Py9B8r5D9fbJX+fXrIcUeH5cRpPWSPgcUSttV+bmpFypARElbXYtvohmLr67ESlhRtC8mzf4rJG28n5IOPt0j3gmz54YR8uejCHNm1d0KssCWoOZoIIwiRQiGPOqnfq/o24eoQ6MDx1PHjiPDEdeADQQ/brpCwOq+EE5N3tzwmw/c5VHr3djM5APOWauS15j7g36+l9oHWPO9U9oHGnndL7QNNPe+W2gcae94ttQ809byD+xBRemOQI0UMcjSOabSjUf3buTU/4KIrxz4nVzfQTbeKZA1009hO1qBGBsZ//ity3GFND3KYLA7UBXn2tprPMd1uzjlG5Jafuo+lGuRIBsGJA3/i7ufPQAHTdSd4nf7n+ANGdb1msu0Y6cYEREygxPAHQPzn5A9yBLNxzD3z3xeqm/89IUoHM06YISeeeKKMHz++RkYHPi6UlZZK+NvjJFz5gTjoG4J6Fa0c5LDDMQnH0exXrxPKlkgiJolopcTsiERQAFW9RiTuSFY0LCVOXLLiWeo5jRvtBBkc7qchdHNxJJwQiWdXim3bkp3IldJQhWSp66lUVxVW5xCKq7NR1xm31Lk5OeoyEYxoXGClJvXi+jalEOSIhyXuVMi7Wx6V4SPGS5++7K7i15rnnco+0Njzbql9oKnn3VL7QGPPu6X2gaaed3AfIkpvzelASlQnfOsPyFpAQ93vtX+4DT4EFpLVjfDbrZ87//Bzt0HuhwY5GtnJMkVShWMgGBAMcMDUid5CC8C5o7sIIPDjD3DA3x92zyMYyEFNENwn2FjkzhvrvU/d10XWTLB7CYIX5joRMAq64ITatTcKct1z/HvzB2ogog4CgY2nn3paVn+2Wh566CGZMmVK0i4rYSusMytQl8KukS2hGtn4VaMjBQhyNDe0US2UQGYGusaoZdW4t0O2WImIZKmXCtmWrsfhhC2psG2JIOujkQEOQKDEPWN0ObHdzIx4RMJ2lsSthHqtiNoppOZRCSfUY2pXG8EItd0R9XrNCnDUDa+j7qy+rwgyYdlR54OgTFh9hEOhVCIiIqqJmRwpYiZH45lMiLqyFvzdQCBZFkLwW3A01A8cbsmIPWoXBa0ru8FIlskBCED8QzXY13zjyDcbvY3K5+p4LZXJ8avHHbn7D7W7hfghGITiqp997cj2Ym+jgmCCv0Ar1PWaybbXdd2Gv0tQKs9J5Xqpmv9+UepQFBPdJVpa9+7dZdiwYd5ayykoKJDBgwd7ay0HgYaBAwd6a6nB6CkYTaUhEydM1IVHJ06cKD17YhjU+uHjQnk5anKcKKHYCrEjqpEdQuaGm82hu654U1wHDEK+4AHVT/2O0LepZk2OkK7JkdBZHZg7uhipO2zsu5sel2H7HSy9e/cWZnJUa83zTmUfaOx5t9Q+0NTzbql9oLHn3VL7QHPOOyj4PCJKHwxypIhBjsYz3STQsEemAvhrYHz5Ys1uEHU1ntH4T1Y0ExkO//PT+ru7+CVruOPYJ/8/N+hSl+YGOfzdRfx1OPwaW6i0rtdMtr2hIEdjn9PQ9VJN5n7tt9/+kpeXJwP695c+ffp4jyY3Zowv+teC9ttvP2+pZQ0ZkuSHmtrNiy++KLPOn+Wt1YTAxrRp0+SII45odPAEHxfKKkol8vUZEootEyeCrAIEN9xAB4IcehSSUIhBjkZTv1P1bfIHOQKjq+jgBgIfGDo2Iu9seFyGHzBK+vTqUyPIQUSNk2oAhYjSB4McKWKQo/GQIfHDi90AgqknYTIaktXYaKjxjIAECm7+9V9uA9wwdT0aen6yhrvJNkEgJjjCiAk8NCfIgXOuqw6H4d8Hr/XTk6waWSrJzruu10y2vaEghz8Ik8pzGrrPVJO5XxxdhdpKMMiBrJiLLrqoSYENPx3kiJVI5Ktzxap4U5yo2ugNIYvsDfECHgxyNIX6napuE+5x2HKHkMWoKuFaQQ5bQjZqhWTLuxufkBGjRkqvHr0Y5CBqBgY5iDIPa3JQq0GWxqk/cpffeh/fAIoOcICp2dEYaPijewsCDiigaWpVvPBXt8Hth+KmDUFwwWSHBAMcgG4jzdFQHQ4DXVQMXJs/wIFj+AM6zbF+S/LrKS5z5zhHIsoMCGzceMONsmTxEnn77bfljDPOaFaAwwjbltiRfN0gD6E2h/q1omtxoDGumO9Navy20yvYbiaqVn2nsIQPZai8oSttOMiUUVPVfbPVI6j/EZJSu0BCIUdN0ap7TkRERC4GOahVTZ3gfoBDcAN1LyCVgqOABj6yDDCaB5b9UNPi1CPdY5v6Fb26uXMo3O4teJIFC0p9x8zL8RY8CIC80swA/m+eqc4S+Z/Z1R9k62KCNn7mnjXH9/d1X/vNf+lZLRjWFkburWdElOZQYwOBjdmzZ8uoUaO8rS0jrBrViTAqQsd0fQi38W0a2f5lt9He8G8+8kMyhp68ZfEFMPS9tBH0CEllZW+JZuVLOIyCrPoRIiIi8jDIQa0KWQkmQ8B0ibjs1NQ/kN3wiDtc6f++7NTIzkAQ4qnX3eOZEVgQ+EBAAR5bVP3B8J0P3WFSgwb6MiaWLK8OpKB7Aep0GAiOBIMsDUFwxmStIEskWaFRo8AbwAABEdQsARPgwT0zwY+6MjFwL+oz4XvuHMfH0L5+6JKDEXCgKdk1RNTxpFJEtKlC6I4SHara3qgcgd8nvkk3yB30g63exl8rjYIQBu4f5vp+4hb6b6NjixOKSVllL4nmRCSsPsWZIAczOoiIiFwMclCrO/Po6k+5CEKMSnFgA3R3uf0S97k3PCqyz8mOHpkFdTFQw8JkSZhsEcCQp4DABPbD/tPnOtKru1sTww/HR20QwPFRPwT7o37Cfnu5o6AYeAzBklShboiBQqs4l+CEuhdw6Kjq4Az2xTnsMd3RAQ7UxDBBIZzjRbc5Oqjhz1rBvcDxEJxJBgEW1EQBHAPHx2tjboqd4nVSya4hIrKig1WLOqIa3gh0GP4GNhrpaHy7a9QI/gCRvo+++6oW9RCyTkgqKnpKJCtPIhEURiGi5kDtjWQTEaWv8PWKt0z1uP2O2+XYQy0Z3vIjBGa83t1FdhaLjB4qctIkS/avo1tEeYVIPObuN+n77qdjZGkcP8GS7vkiWWGR9z/Xm3V2yHlTRa47z5J+vi8tRw6xZO9dLYmqfT/9WmTiaHc/BAoqKy3Jzxb53nCrKvtjv70sGbG7JTt2useepo57wXRLF//sql5zijqPPt1Ev8Ywtd8flrjPgytOc88x2XmvLxQZ2MfdVte0z57u+UYjIj8a655b4TaRAb1ETjhc5OITLTl6vHv/cI591RyBGXQ/wfkcuj+uSaSvOr9JB6n1ke6xgucC/vu4s0TkT+pvd6+uImcdLXLHzyw59ABvR485f/+9MpJdL9UNGUiPvSIyduwhkp+fr+si9OsXuKlEaQAZA7YVl3hlTCLFD6oNKDSK70rU7wErpB53J/f7E6+uhFq2qoqPumGRiJOj/qt+iajfV+F4SGLhuDpUWMJOTD0nC814/cx051joWKKuTd0T28qVkBNX166uTt0eG8VFcR+shN5X3x31HzwHmRshB8/FPUQdDjOMrK3uTFw/9k3ZjySn2z7Sq2dfCYdx31l4lIiIyODoKini6CpE1BQcXYUyScJ2pHzHBol8e6hqhBerBrtqWHtDx2JuhpK1VcM+oSY01dVGL2zhNtrD2C9hS9yKSMiK6aBHwqlUy2pX1ZBHwCQjIPPCiqorLpNQSF1vIkckHFM3MUvCVlxfu+1k6x1xhyzdL8V2Axy2O7ftmJondGQZ21AHJaH2e//bm6Xv3j+UQQMHSyTqBjmIiIjIlSGfJIiIiKi1hZCBEO0u8eh+YjkY6cPGtyW6ke7WkHAnNLnd0AYa7t4cDXmJSiJRKWEcy3ZELeogQBjhD91Qd/M/MkHISqirianLzhYnEVXr6norbHUH4vrDV4Ueg9d/j7Co5pjUNnwHhUCHe38VtQ8CIZVWgVQkdpe83FwJhTPnfhG1Fwwhm2wiovTFIAcRERGlSDXAo6qxHj1YN8Z1kVFMttcYRyaGabhje0AYGRt2tvzn6yw56IhvZdCor+T3L1Ui2UMcG10uEP7IDLatPmJZtlihSvm2KFvGT94ou49cL79+uExdb0jdxuD98e6buXdeAAnLJukWuTDFpXuIlZ8v2VnZbvYHERER1cAgBxEREaXGibhlOLL3Uw31KFrdXmPcdhvm2KDm2IzEjKpsDk8CD0cdeeW17fLVt1slXh6T/7llm5RWhtRx4+qpmVNIM2xFxHbcmiSPLyyXT74qksryYlmwYIfaXim2zmcBc4/c+xbydT3RI9jgfuqsmYRaC8vOkr0luyBHsrPzdVCIXVWIiIhqYpCDiIiIUoPuKlZUnOzRYltddNvcLTHqZnC4w8q6S27T21037XBsDcei8v0DC/R6worJpsIieeqP28VKqI8koZjenglsq0J3wynaHpbHnlirszKccELGjM2XkKPuoS82gUUzucEid3LvJwJI6hFsd2zZEh8iXQu6SlYENU98ByEiIiKNQQ4iIiJKWUiiEsrvL/HI/mqtqmmu2uBohLuTZbtzfMgwzXDMUYDTSURk/BhbxnxvoNovrNrtIbn7t8VShmQFb7SRTJDAfbJC8sDDFbK5eIeEkO0SzpXZ53VX16nuDa4V3U30DVJzE7LA/cN9xLrOkME9UY9YYalM9JJi2V+653WVcNhSx+HHOCIioiD+dSQiIqKU6MyCUEKyIyKx7OPVFjTLVWNbNcodL5vDDXR49STQUPcmNOgt9FfJLdVt+8sv7iZWSD1PrXzz3Va56/5SERujjWQGZLh89Z0ljyzcrK47rO5AVKaM6yEH7R/XdyqEsWT1fkpVUMO9d2JX1+PQY85a5WI7lqzfPkry8vpIfn6eoLcL7iMRERHVxCAHERERpUY3qi2JSJY4eYeLY3VRDe2EhNBqV013jAaiG+lqpsMfmHsNeAghGwEPqwcmT7Dl8Al9xQolJKwa8vMf3SCffV6u9lQfTfTzEQBBh480gfob+qzx0QpBH0uuvnanbC3bprdGIwm57ureYtnIzIio+4IrM0Eg7z6pyQ1cYNnWGTHYro+pdtpcfrD06V4gWTk5ah1Dx2JfImqO/m8uSzoRUfpikIOIiIhSYumGtfrooP4fzuklMWu47nLiBjbiokdZ0Xuike423JHRYLbFVQM/imFPHUuy1HFOmdlTPZYvESsipeVl8tgTat9wmXqNsMSlUj2W0HUt0oIVk4S6PsspE0dd38r/iLyxbJNEKrPEUdd8+KGDZdgQdS2hCG6M+n91hKI60KH+o+8Zlt0giOPEJCuUIxWxLlIa30Py8tX9ikTUPgiqEBERURCDHERERNQoGNEjOztbKrOmoBkudiiuPlBgKaEb6Wic64KZel7diA+HwmLHy9SCI/GEJccemSP7DO8uMatSQomw/P6P38jKjyJq75h6jVyReFhC7iE6PGRbhMIRiUqWuh6R6/9nm8RiFWKFKiQnlCNnnxtVj1li68hETO0d9u6LmrAN983cOxPgwD20EuJUVEhh6XCJ5PeV/Px8CekhboiIiCgZ/pUkIiKiRkM2gdPlKKkIF6i2uSWWE1Jz1WBHoUxbNc7RLcPLSnCpxjtGZwnlqTa8asCjtodTLHfd3FeyotmSCMekvCIu519cJJu2WhJ1StWLhCWWJn0yHNTOUNdbZiXkll+VyT/e3aiuOC7xSK78+PjeMmV8lr5HtoMRamyxQ2X6Q5jOdsGtQYBDZ8QgGwRzBDpQmyNbSiOOfLtjgvTs20MHORBk4tCxRC1jwxHjk05ElL4Y5CAiIqKUmIa1aWRn5+8i8dBUCduWJNBQd/tbIF9BN/gxd1Rj3e22oprsVly13bMkrLtqqI8gVlQOOqBSrvn5cFSpEFvt9/naDXLOxVtkZ2mBWAl1nDQZcSWCa7dteeaFsPzm4bXqOivUtUdl/6E95OZ5PcUJlUsiZEnYiqlLylb3LewGN3BPcY8QBPLumxvscGucIKtl7dapUmaNlF5de0k0Gq16H/SINkRERFQDgxxERETUaOgykZuVJ3bXs6Qi3Fs12OMSQqQDGRx6dBDVUE9grhryan804lFgNGKV61FVdIMej9ghuWiWyFE/3EXC0YhquFvyzjvb5eyLv5SdqoEfdrJUox5tfhzBVlPH+OiCa7LN+TiO7KjIkat/JfKLa9aoR9S9yMqV7l2y5MF7+0qX3ISEnKi+R4JOK6GYRHELLHUPdNYL7puavICQDnLY6AJkybaKQfLFpuOld59+0qVbN/Uk9TR1Q3TWjBfsICIiomoMchARtaH+/ft7S0Tpz444Eu06VLZn3SZxqwBbdIPf7W6BVjyWvUY7GvA600Mtq8ltnzuSiCQkqhr0v72rh4zet7farpr2Tlz+8vedMvp7X8vrb5a7WSIRBFbQBQbPb384iwiCLxKXoh0ROfkn38ojj34jpZWV6vxDkh0Ky29/M1hGDq4QW508Yhi4ZjdjAyvuvcF61WTuFR53LLFtS1YXHi9d+u4ivfr2lGhudlU9DgY4iIiIkmOQg4ioDaE/PVGmCNthyc7JkmiPQ1VD/kxJOGjguwEN1JZwMzoSethUbLeQtYAGvG7Uu0GPaCIkcYlIfrYt//tQH9ln754Sj4hE1L6FO0rl7Nkb5OGnYpJQh0PigxsoaX/6POIiX3wTkmNPXifv/nOzxGIl6rpCEg3lyF237yk/nJAt8XBUHKtSovojl3vtOsiD+4EJy7gf+v5grg6Ke6e2FpUOl2L7IBncu7d07dpLsq0wgxtEREQNYJCDiKgVffyFO+/Ro4cUFBQwyEGZJRSTcChLunXtJpXdz5CEtZtqoLtBDmQlhNCAR2ADGQvIUtD5DwhwuI19zONhkSxJiBMOyYA+MXn60d1k/z0L1J7qASskZbFiufqaNXLltSVSWJqNV+0gLFn0d5Gjj/9aPlm9TV2BOuNIXLLCEbnzV7vLycehuGql2i+hg0GJUMINZniTrqeBe6Xvj7p+757pAIeeW/JJ0XTp23+wdOvXU/JzIt7ILERERFQfBjlSNHSv3eWzr/GhjIgodeu3OKrh1lUXC9xv3329rUSZAvUl1IcJ1bDP7t5fdmZdIBWITahGekIq1Bz7qP8gowNZCqo9j3Ic+PChG/uq0R5WjXs7hMexryW7DiiRPzy1pxw6dqBEIxh0FUEBWx7//TqZ8ePv5F8r1eEwkotXkNRx4ngFxATUHBkj6gSaSYch1Mnjf3bCfX1MOPOE2r6tJCS/uLZUfnL+GinaXqKuwZFwOCo9uvWQh+cPkTOm47wi6lpRoBUX7Ogiot6R9bXqe6MedxDk0HVM4mpbqY57YPs328eJnT1KBvTrI/kFXdQ9zpIQbjYRtaj+by5LOhFR+uJfyxSdfua5cvcfRMoqvA1ERA3A74un/k9kn30PkKxoVEaMGOE9QpQZTM8J1ZSX7Gi+WAVTxYoP0gGBkJ0luo8JMhRUw97NTnAnBEH0U80cj6tWP5ataI7061Eij/6uQIbt2k/CiWy1HQVJy2Xlp0Uy4/TPZNk/cQy8qtoezhULdSrskPpQgyKlzf9DHXISEkHhT3VMZKo46CZihyUrEZGYky8nn1kmT7y4USSGPI24mkKy525d5Z2/7ibTfmhJpdrfFmRxeNekj+pISC0guOEGbjBV3xsdGMIQsyFHbDtXvio8Vvr27aszwMJht5sKR1MhIiJqGIMcKRo3bpye/987ekZE1KB/rBRZ863IHnsNk8mTJ+tsDqJM4za8LQmHIpLbpa+URH+iC2ZGpEJ0toXufoEMC7cuh85a8Br1er2qwY/Wv40eMBIK50ifPFteW9xDZl84VCQnKk4kLOFYVLaXi5xy7qdy4+1lsrFQ7R8vFSteKVF8osFQtm5EoVkw1GvMyhFHHTMRKpGEOvfKsCXPLKmQyUd9IStWfikVJepEELFQ5/q9UX3kiQWDpH/3SrErHHUv1DXo+hm4N+6krxHXjHUEfrzrN3U5EC4JibrGuCXrt35PJH8P6d69u2RnZ+sAh5mIiIiofupvrP50Qim4YNZP5MMVr8hLv7akZ1dvIxFREsji+OHF6tdr9iC5/c575bDDDvMeIco0NmIWimqqxx0p2r5BIpt/LnmJNyUUiqvN6L+iplBEnFBYHN2/Bd1NMKnnYK6P484tOyJxKyIW6lmo/4eyKmTx37rIVdesla/WbVVPdcRWLxgKR6VbXlhOntlfTj25qwwbGpOwLeIkohJy+740XSjhlsuQqHy3IUv+/laF/PbxLfLZ6o0SU+eHR/AK+VmWnHfqIPnlFXmSnxOTCidbIpEKnQGCcIalzsMEcBDUQJcVHdhB4EcXGcUc3VQS6rrj+qjl5QPk3Q3Xy+6Dvye7DR4gOTk5VSOqEFHL23DEeG+pJnZZIUpfDHI0wpo1a+SQcYfIOceI3PJTfptCRHW7+gFHHn1V5L7f3CennHKKt5Uow6hPEI5uyHscSypiMdm2fo3kFZ8uOdbXOogRccISD2dLWDXWbWQj6DmCHejWoahlNxwgklDLYScmCUc17lGzQuKijiCbdoblznvL5PGFX0ksjnofbiFOJxKXbCdPhu+RK+PH58u4w7rIlMMsiajt6sBqB/U6Fgp9qhmCLUoIgQacBx7GsqIfRwAlEZHV/3Vkyd8t+dMrG+SjVaVSaZcJklIQtECtDTsUk7H79pVr5vWR8aNRVBSBClyWOj5qeKBfijpvf4BDz1GbBJkbOrihjiUJCSdi4uiAh62eGpXlX/1c8gdMkT2GDJBu+b10gIMZHESth0EOoszDIEcjLVy4UC67/DKZd47IRSfyQwcR1fbbPzpyw6Mis2fPlhtvuNHbSpT5kGHhSKWUlFVI2TdvSpfYzyQ7VIqRViUcRqAhV5ywau7rAEcEUQVxQu46wgCq6a+3IViiJwXZHohDoOJGPFwhq7/oLrfdsUFee2ODJOKVErYjktCjmITVMTDCSVgi4bAcOnY3OWBfW/YaFJbddsuR/v2zJSdnm3TriioaYamsDMuOIjUv7yprPi+ULVvD8u8PK2TpP7bI5i3qeE6FWLYOTahziKipQp1rtgzdvZtcPnuATD8xIlGnVL1+VAdo1CcqNeH/+FjlhmxwBfrK9Agq7oRl1PzAckgt2065ui9hfCCTVetnSHH0VNl76F7Su3dfiUSQNaKOySAHUathkIMo8zDI0QTz779HrrvhZh3o+MlxluR2pBHtiKjdoIvK/77sBjh+PucS+eX/m+c9QtQ5IMSBbhgJKy7F27dLyYbHpF/s1zqwAUikMEPDVgc51IS5ntwQgXpAhwgcHehIqOWI+q8tEfU0iWM/W1aticojj9vywsvrpbxyp8TiMQkha8N7DiIMCHq4wQ8UKUXgQT0XsQjdHUVtxWtiXZ2Y3heBB4zOoo5vqykcKtCvK6Fy+d6IgXLJrAI5+kfqiKFsddSYThLBNYfUXpaFgIQ+az3Xy+rg6hWqgxxqbjlxtY4gB7Zj/1JJOFnyVeFY+brsZ7L3iKGya99dJJIVZjcVojbAIAdR5mGQo4nmz58v1827TiaMFPmfn1oyZDfvASLqlNZ8I/L/HnDkrQ9Fbpx3jcy+eI73CFFnElcNeYyEktDFOou27hBnw93SI/yQegzdLhBoQG2O6iCHrbaj+wrqdagd3PCAniM8oDYhwIF+KZGYmufo10BwIIKxaNX/i0py5NX/K5Pl/0zIm8s2yXeFpXq7naiUkBNVywgohPT5OHhOSB0xloVXESuMTAo3IIJsCXwk0jESJyJduoRk4pi+MmFsgRx2WK4M3RvdZhBIcYMgyAcJhXLU85H1kSMRPaoLzhiBCwQ11G4IZCB7w0wIdqAGhxfkwAvH1AsW7txHPi26XAbvvbfsuusukp2bpx4K69FYiKh1MchBlHkY5GiGt99+W6647Key+r/f6Dodxx1mybDBwqKkRJ1E0Q6Rz74Sefnvbv2NoXvuJjfcfLtMmTLF24Oo87HRuLdQoyIilfFK2bRpnUS33Sq9nZe8Ohxo4IfFQhFSU4gUGRUIfGCOYIOedA6EmmP/KD6wCLp1oB6GJVEdI7DV64WRhYHgQQhDsIbli89yZNnKEvnoA1s+/LhC/rN6vVRUliOO4cYVEIJQ54coBLrAIMEiFIrIoF37y/77dJVRB9gycv9sGXNQtnTJ2an2duuGoDMNCpEiwIHQDK4BGRwocurFK/RrIJihz0xnaaDYKJaxf1wtq2OoRcuplHDCUeeRkC3lw+Xf314ug/fcV3bdfTcpyOuC26Cfi0wTImpdDHIQZR4GOZqprKxMXn/9dbnjtht1sIOIOh8EN66ce50ceeSRkpub620lIlENeR3o2LxRItuukd7ysmq450rcikvYciQejkoYfT50sCOs57qYqG7lY7sX6ECAQx0Oy2qjmhAC0Bs8NT/KRBxkkiBjBN1cYlJc3l+++nKTbC1S2xPZOhCDkV/y8xOy625dZJd+IQnZOxG/kIjO7sA4J249DK06QoJkk6p1HYhQ85DaiGWcpw5yeJMuNKoDHgl1L9T1Sbl6HWSUqGOr+1JYPkRWfXeV9Nt7b9l9110lv0t3dV4sNEpERNQcDHK0IIy+8tVXX0lxcbG3hTqLhx56SC644AJvjTqLgoICGTx4sAwZMsTbQkR+OolBYlJRkpCNG9ZJz4qTJcf6TqzQTkmEciQajyIhwhfkcAMbCA24WR0Idqjj4D86jGCWEfzQKy4TE/DWY1aW2oTyogm9p+2EdPAgbqN2hqUObUkiHpdIOKKeg8cT7pPDWWqfiM6+CKNbDA5WFXBQF6O429T/vSAHno9uJag7qvfRWRvehCAHjq2msI1rKZZYQr02rjPWQ/7+xVXSa5d91O+RvaRLr/6SjZ4wDHAQERE1C4McRM20bt06GTV6lCxZvERGjRrlbSUiIhTzxECpoXhMtpWWyfZvV0jX+F3SVVboYqTIcnCsaHWQA11PdBDCDXDoMAIa/d6ETyxV2xBp8KaqDzLmI42ttmI4WCyja4yOQOD5bhYI6EPg/JzqoqHusK/muGrd3VVxz9WF/dANRZ2JelwfGlkbWNcPo/uKOibSRXSwA8sIonh1PBK5srl4iHyw/hzJ6bmHDN1jd+nWr7/kRSxBtxlgoIOIiKjp8NeeiJrhzTff1HPUaCEiIh/Vzg/ZltiRqHTPzZeeA8ZKSe5vZb1cInaiQBwUBkXmgze5xTkT4iQw+ombAeFmQuBxtSzqccsNJiC0YbqG6GW9zeVEUO8CQRMM/YpACoIt6jhWpZ6sUIV6Rrma4jqrQ1BDRO2DYIc6olqveUx3GZPZ7k7ueeMc3bmTiOvz1gVG9ZHUpM8f12NJxAnL2qKx8nHRZdJ/8AgZvuee0qtvP8mNWuq11b3AazHAQURE1CzM5CBqphkzZsjSt5bK0CFDGeggIqqHk7CltKJYtu/YIbFNi6VX6DbJlu3iRGJi2REdwNDBiZAJUKCLBwIKIbcwqZ7jSJbO5tBJFHpyAwPuBxrs7X6Ho5MpsBGjqmjufvqZehgVA0dAoMHdDxVAsOS+Ajj6iDrggQPqrA31KAIzOpCBKa6mkLoO9QiGiVVTQsolnECdnkq1nC2fbDxetsSny+6Dd5EefXeRLnl5kpWFkV7UcRncIGoXLDxKlHncTwFE1CToqoIAB6xes1pWrlypl4mIqDa04/Nz8qR3nz5SsMtxst56UHbICInEEORISMxkUCATQgcK3KwIBwGEBIanVdt09oTaT03oMhJWxw2r55gJ29BRRXdWQdAipPZV27Ad1T6wD84D3VnUQdSEDA8su4EN9cLu/mqOyT2u+4FJBzjw2jpzA+eCc1LP19kceJ5alko1VUgC2SHxXHW4EimO9ZIVX10mOyInyV4j9pbdBu4uPbp20wEOXSOEAQ4iIqIWwyAHUTOYrioGMzmIiOqG5AnU3oiGLOnRo5f0G3SQ7Mx5SNbGL5aYkyNRxAjQVQUBjXhMrHilWImYHpFEBzwQRMBjatJ1LrBdTSEEPGxHT2EHgQwM84rghBvUiFhqGZMOXCA44k4mgOFuN497y1XHVPupSb+mOjfTnQYBDp2x4QU73McQrKnUgZAwriMUk3Xbx8k/198mOQMmybBhQ2TXvgMlKydXrLA6Ju4JAidERETUYhjkIGqGP/3pT96S68knn/SWiIioFp1CgUwHDJNqS0FelvQdOEgi/S6Ub+P3yfbECLT6dRcQBCF0UMMXzHAzJvCYP6MCAQizj5u14QY+1IR98bh+zH0uJh0IQSBCTdUBErPsTnpf9Rw36OI+V9f/UMdHMKT6vNwMk6oJ5+aEpayyn3yw7kL5vPJKGbTHvrLn3oOkZ8/+Ekb9jbC6fl93GQY6iIiIWo76W82/rERNYUZVCeIoK0REqbNtWxKJhJSUlMimTZskuv016Z31sOSGN4uEkBURQaqF2FZEkIWBYqU26nPoLib4rgYBEzVT/0F4BLU6Qo677D4ANT/qVIcX/PAcBCjU/3Fs9VpuFxS11VZzdGfBut7BDYS43WLU0RwEVRC4CElcCmR14ST5rmyy9OqzhwwYMEB69uwp2dnZ6hjsmkLU0bAmB1HmYZCDqIkWLlwol11+mbdW7cYbbpTZs2d7a0REVB/zMQTziooK2bpzixSvXycR+1npFnld8sIbxbKzRI97gniCrqWBhbCbj6qHmkXQww0eoFgpYhT6qHpb7aBC7S2mHofLfRyZGziQDmO4wQ7UBtE7hvWyJXEJq/PAuW+v7Ctfbz9MtpSOlvxu+0o/L7iRn58vkQiKqrpHZZCDiIiodTHIQdREZlSVII6yQkTUNMjqsGOOlJRtk28LN4m9pVS6JF6R3l0ekzzZKjGJiKC7h43gAzI4HB3UED1crJe9oYT0tur14Aed2mEGdw+zHR+N9BC27ppeD2PIWdsdCQUZJhhuNlIZl/Jwjny99VD5vPA0yerRVfoUDJBd+nSX/N49JCcrW0IhnCcDG0RERG2FQQ6iJqirq4rBLitERI1jPo7YEpdYQv23IiGlO0plx/YiqdjxvnQN/0l6ZP1DskNlaq+wWKjtgboWeshZBBHUZD7RIKigAwu6c4m37FPrk4/XDUUv4T/qv/p81ISnorsKNuF/eBknoTZFZPPOg+SbHWOlXL4vPfv2lx49u0pufhfpVtBNolFLQiE3g8NcG4MdRERErY9BDqImqKurisEuK0RETeOgwKdtiR1KiG074sQSsrOsRLZuLZOKos8lEn9LukffkW5ZH0hEKsSyUAbU68piqedZKCyKkEVIr+vohA4uYAf9CviPB9uxriYdvcA20z0Fi17wwwm556PWd1QMkw3bR0tRxcFi5e6hgxs9u+VJt649JZwTkawQam/E1eEi+jjA4AYREVHbYZCDqAnq6qpisMsKEVHz+D+eYDkej+uaHSU7SmXbji1SXPyt5MX+LV3D/5bc7C8lO2uDZDkVEk2EJBZGaCImqE+Kw1goTuoeSB8PQY+q46tllPbQg6dYMR3isJwIniQVVo6UVvaS8rL+UlSxjxTF9hU7MkT6du0qXXp2lW7dukleXl5VzQ0zGQxuEHV8LDxKlHkY5CBqpIa6qhjsskJE1Hz4mIJgAeaY4hjVJBGXytJK2V6yXXaWF0vFjnKxS7dL1P5WsiIfSY71tWSFSyQa/kaysjeo9bg6hnqeV8vDzdVQ/w2pSa1Xqqk83lsqKneV8lhPKU30lpLYELVtsDhZXSSanyc5uV2kd5euUpCXLTn5uRLNypZwGN1magc3iCh9MMhBlHkY5CBqpIa6qhjsskJE1Hz+jylVwQ71P9TJQLCiMh6XWLxU4rG4xCtFystLpTxWKpUljiQqKiRWvl0q7BK1b0xnbIgTEdu2REIYjjYmjo0ipSEJR7tINKuLRHJDkhWNSl52geTmZkk0GlbrBeqxkEQxmm1IPR/D2XoxDQY3iNIbgxxEmYdBDqJGaqirisEuK0RELQMfVaqCCTrIYekSGiHHRrijCoIXNoqCJkQSTrkkEraaQmq9Qj1WqTM5HGRyqElndogtISssobA7Cko4bEskFJFIJCqWWg+FkKlh69fGq9sYtUUt4XURGCGi9McgB1HmYZCDqBFS7apisMsKEVHbMR9pqjI+qtaxrBcVLCQPUNSVlcFsDaLMxSAHUeZhkIOoEVLtqmKwywoRUdtriY82DGxQZzd37lw9v/jii2XgwIF6Odk2IqKOhkEOokZAJkdZWZm3JnLIuEO8pWrvvP2OtySSm5vLDwFERB3Ehh/9wFtyhfr2l74Ln/LWiDIDAhGPLHhEL+MzyZAhQ/RyY/Xu01vP/cdIto2IqKNhh1KiRkDAAn/UzZSM/3EGOIiIOpDKyhqTvWmD9wBRZigqKqoKcMDixYu9pZbx8O8e1lOvXr28La1v/vz5VcEVIqJUMMhBRERERJQBXn31VT2fccIMPb9u3nU1MlCba/r06Xrq2bOnt6X1vfHGG94SEVFq2F2FqBmSfbOwZfMWb4mIiDqKxNatsvmE47w1T1aW9P+/v3orROlv3LhxsnrNal34/KabbtKjwT391NMyZcoUb4/a0BV3xYoVenmPPfaQYcOG6e62ybqmrFmzRs+RqYp9wGxLluFquvki8yMYGMHzVq1a5a3VfG1AVkphYWFV12DTHdj/2i2BhUeJMg8zOYiIiCjjJbYWeUs+obC3QJT+MGw9AhwYwh4ju51++ul6+4MPPqjnyaCgOkaNm3X+LD1NnjJZdhu0mw5OJIOAAyb/42ZbMvfff79+bOnS6qH38VwMx4/t5nXNa0+aNKlq+H08x39c8zp1nRsRkcEgBxEREWW8rD33kvBeQyQ0aLA79R8g0QMP9h4lSn+LFi3S84suukjPJ06cqOfI5jDZFn7YZkaMQ2AEtTaQLXHFz6+QmTNn6u2tAYEPnNPECROrXhPZJuhigyDNFVdcobM/cP7YbmA/TKx3RkQNYZCDiIiIOoU+jzwmfR9/0p2efk563XyL9whRekN2gyk4esQRR+g5uocgYAHJCpA+//zzen7euefpuheotYEuJxidZerUqfqx1mDO8+c//3nVa6I7zT333KPPZcKECbqbCs5/8ODBel/AfphasqsKEWUmBjmIiIiIiNKYyeJANoQ/0+HII4/U82QFSM1z0EUkGDgwz2sNyOCAlStX6rmBc7jtttv0xGwNImoOBjmIiIiIiNIUghdPPvmkXj7rrLP03EBtDnRFgWXLahbSRNcQ8GdLGIMGDfKWWt60adP0HIEX1OZAXRAEPFpyFJjGQIHRZBMRpS8GOYiIiCjjFd1ys2x/7FEpfu1VqfzvF+KUl3uPEKW3999/vypg8fjjj+vuJv7JqK8AaVBrDhF7xhln6FocCL6gNgfqgpiCp/Pnz2+3YAcRZQ4GOYiIiCijYfjYysWvS9kTj0rxHbdK0blnycajJkvhvGu9PYjSFwIbxvMvPK9rXvgnEwCpqwBpMq0daEAtDoyigqFu777r7qouLMjuwKgwDHQQUXMwyEFEREQZrfLz5A07p7DQWyJKTyg4isAGLHppUdUIJMEJtTogWQHSzZs3e0vVmjJMa1Oeg+40yOxAEVScPyAYg+wUIqKmYpCDiIiIMlrlqlXeUk1WQb63RJSeTPFQZEKMGzeuagSS4GRqdfgLkJrAR7AAKLz77rveUuqC2RdYf+utt7w1V1FRkbz44os6iyMI52/OaePGjXreFjYcMT7pRETpi0EOIiIiymjhfv3E6tXbWyPKDAgimIKjF154oZ7XZfTo0bUKkI4f7zbkEfhA4MEEKdCl5be//a1eToU57oIFC/QcEDiZM2dOVVcZY+3atTLr/Fky9fiptbJK8ByTldJP/ZsNShaMISJKhkEOIiIiymgFRx8j0e8d5K35RCLeAlH6QbDCBBFMwKIuGJ4VtS7AFCA98cQTqwIUCDxgKFmMdnLIuEOq9k3FRRddpOeo/9G7T2+dkYFColu2bNH1NvzQPcVka5xy6il6/wsuuEDP8RzA4zgG+IeSxePYDwEZIqL6hK9XvGUiaqTb77jdW6p21VVXeUtERNRh5OSI1b2nWF26SHjgbuKUlEiPG26SkFonSkfo8rGb+llGkGH//ff3ttZtwIABEo/HpVevXvK9731PunbtqguA9unTR7799lsdMJkyeYpceeWVcvLJJ+uuJdjv0EMP1fuC+dxz3rnn6ePAAQccoLvE7Ni+Q77++ms5/PDD5ZSTT9GZHOFwWPLz83WwYsSIEXr/yZMny/cP/r706N5D/v3+v+WTTz7R23FMXMvFF18s0WhUb8McAZzvvvtOsrOy9fkeeOCBsttuu+nHW0Lx4496SzUV/OQcb4mI0o3lKN4yETUSvlEI2rJ5i7dERERElDnM5x4UM0VgIxPUVX+j/5tutx4iSj/srkJEREQZqWLVKild+jdxysu9LUTUVKkOP0tE1N6YyUHUDMzkICLquDZfOEsSn7mp8LlnniP5Rx4pkQG76HUiSh3qYCxfvlzX3QB+1iGijoxBDqJmYJCDiKhjqvzvF1J0rjtspl/3u++TkFdfIJSby6AHUQr8n3ce/t3DujYGEVFHxSAHUTMwyEFE1DEVzr1SYsvf8daSy5pypPS8+hpvjYjqgq4qmzdv1kPRYqQWIqKOjEEOomZgkIOIqONJbN0qRb+8qqqrSl0Y5CAiFh4lyjwsPEpEREQZJdyjh/R58GHpdvtdEh7mDltJREREnQODHERERJSRcg/+vvS+5z6x+vTzthAREVGmY5CDiIiIMpaVkyORPff01lxW9x66q0p0yFBvCxEREWUK1uQgagbW5CAi6hic8nIpuv5ayZ5wuBQcfYy3tab4+u8kUVgkdlmpzvIgImJNDqLMw0wOIiIiSns7nn5Kj6ZSfMetUnTLzbr4aBCGi83ebz8GOIiIiDIYMzmImoGZHERE7a9sxT9l+1WXe2suq09f6X7djTqoQURERJ0HMzmIiIgore244zZvqaasvfdOmtFBREREmYuZHETNwEwOIqL2Z+pxoLuK0eO+B3WQY+NRk/UwstF995P4Z5+J1b2bWHn5eh8UHu1y0ky9TERERJmBQQ6iZmCQg4ioY0CgY/vDD0n5C89JwZW/1MVHK1atkq2XXOjtURtGWOl59TXeGhF1Riw8SpR52F2FiIiI0goCGhgpxQ9DxXa/5FLpdvtdVaOrVH7yHz0nIiKizoNBDiIiIkobpmtK4aUX1wp0gH/klMr3VnhLRERE1FkwyEFERGlrzZo1eiorK/O2UCZDEVFTe8PZvKnOQIeRe9QxknPCSXqkFSIiIuocWJODqBlYk4OoZa1cuVK+/PJLb83Vr18/GT58uPTs2dPbUs38G3zn7XdkyJAhepkyEwIcWy44Vwc3/BDA6HHbHZK1517eluQq//uFJAoLa2R6EBGxJgdR5mGQg6gZGOQgahkIbsyePVtWr1ntbant7rvuljPOOMNbczHI0blsf+xRKXviUW/NhSBHr3vvl8iAXbwtRESpY5CDKPMwyEHUDAxyEDXfwoUL5bLLL9PLQ4cMlYsuukj22msvycvL01kdTz75pCx9a6l+/Lxzz5PbbrtNLwODHJ1LcKhYDA3bY94NDHAQERFRFQY5iJqBQQ6i5kEGx+Qpk/UyAhjz5s2T3Nxcve53wQUXyPMvPK+XH/7dwzJ9+nS9zCBH5kJAo2z5u5I38XBviwvbt8y5RELdu0vP62/So6oEoU5H8R+fk+yxh0jO/iOT7kNERESZiYVHiYio3dx00016PnHCxDoDHHDPPffofTAVFBR4W2tavHixzJ07Vwc+MM2YMUMHUYJQpPTFF1/Uj5t9MeG5yfYHFDdFBol/fzwfWSjJip6+/fbbNc4FEwI1eN1ksD8e9+9f3/lkOtTPQCBjx/XXSOnSv3lbXQhY9Lz19joDHFC2bJmUv/CcbL/qctl41GQpnHulPmbxa6/WmMpW/NN7BhEREWUKZnIQNQMaIkHM5CBKzbp162TU6FF6edFLi2TcuHF6uTHMv8Ebb7hRrpt3nV6eccKMqqwPWPn+Shk4cKC3VjMrBPv26NFDBzFMl5jguSAAMfX4qXoZQRaTMfLIgkf0HMdAEMYEaPzdbwAZKmZfuOLnV+gAhjF//vyqc4fg+Tf13qQrHYC441ZvzdX7qWcb1SVl84WzJPHZJ96aq8d9D8rWSy701lxZU46Unldf460RUWfEmhxEmYdBjhQla8wSEaWKwa/a/MGDb9Z+U2cWR338v5vRjeXII4/Ux0EAZebMmbqQqb97C7I9Tjn1FL0c7OLiDzas/my1Hs0FWRqTJk3SxwkGJ+p6DQQkku3vv14TeEFw5ZBxh+htOMbEiRP16xYVFcmrr75aFSwx55PpTFeUYIACtTd633NfSt1O0FVly6kzvTUXipP2e/aFWo0ZBjmIiEEOoszD7ipERNQuNm7c6C1JkwIcfhh5BUEGcxwEECZMmKCXly9frufwxz/+Uc+R+RGs4XH22Wd7SyLvvfeenr///vtVI75ceumlem7gNVAkFVAc1TD7ozuLH4IfSxYv0cGVXr166W0IugCyPXD+JpCBOUaSQeYImPPJdAhidLuqOjDkl9ha5C3Vzy4rk5wTTvLWXDlHHestERERUaZjJkeKzLeF/DaWiBqDvzvqhvoUs86fpZeben/M/U1WeNQc3z8ii9kfwYZRo9yuMn7IvEDXEjNcrTkGupA89NBD3l7V/JkY5hpMdxgEKH7+85/L6NGj6wziIBCCbjL+TBA/0/UlmBWSKSpWrdLz7P3203Nj53PPSsn83+hlBCy6zbqg0cVDkRVS/tGHUvHuO5J7xCT9GszkIKIgZnIQZR5mchARUaeTn5/vLdXUvXt3Pf/444/13GSBoG5HQ9B9Ba699lo9FC6CF+iestug3XTgAwELdEPxM3VAEEhBACY4me4q27Zt0/NMgS4lRbfcrGtkbLvxOh2Q8Cs4bqpExxyi62h0v+TSRgc4AM/JPfj7+vkmiNJzweM1pq5nn6O3ExERUeZgkIOIiNrFHnvs4S1VBwhaUyqv0bVrV2+p8cwoK+jG8sorr+jsDGSAADI7ELAYOmxoVRcVP+yHjJO6pn333dfbM/1tf+xRXTOjcvHret3ZvEmKX16klw0EKHrddketDI/mytpzrxpTY4qZEhERUXpgkIOIiNrFoEGDvCWRFStWeEt1QxYEuo8kG7I1Ff4RVuqydu1aPTcZHf5zbIj/+Kipge4n6OKCoqoYIcXU10DhUxNwQcYHnHjiibpLTV0Tus5kisT677ylauiaguyO5khs3SobZ56ggyjNPRYRdR7olpJsIqL0xSAHERG1CwQCkKUAd9xxR4OZFrfffrvu1jFnzhxvS+OZoMIqrxZEEGpswLBhw/Tc1Pl466239Dzoq6++0nMct666G9iOoqPPP/981et/8ok7eogpjmpeN9Mg8BAMOHS76KfeUk2xZmbzlL3zts4KKXvCzRQpnHulVP73C+9RIiIi6iwY5CAionZz8cUX6zlGJMFwrMka+8jcQDYDCoKCGdGkKU4//XQ9x2gowYwQvLapkXHwwQfr+YEHHqjnOD8MARv04IMP6rk5LvZBLQ3U4AgeP1kGCoanBZxPMMiD/VGYFNPKlSu9rekBwQ1kVGw+4TjZoeZ+4R49JPfM6loYKP7Z+6lndf2M5ihb9CdvyRVb/o4kCgu9NReCHv6JGR9ERESZh0EOIiJqN+jiga4cgEACRipBgADdUjAhuIFAwJ2/vlPvg32TjYqSqpNPPrmqKCgyQhA8QHADr3XWWWfpfTCSiel6gmwTjLQCV1xxhd4P++N5GO0Ex8HxcFwYPny4nqMGBwIf2B/7Yn7DDTdUDS9rgifjx4/X9ThMkAdBEnM+eD6Ov379+kZ1m2lvJriBjApA7Y1gRkXBtOkSHjbCLQB69TXNro1RtuKfkvjMzY4xrD59awVOis49q8YUDMAQERFR+uMQsinCN3PAYSCJqDH4uyM1yGK4//77q7I1glDPAgGP4DCx5v6mOoQs4LUuvfTSqqwNPwQ48Ji/6wkyKh577DG5bt513pZqyc4LgQoERExAww8BkTvvvFN3XzFQa+SXv/ylDowE4fj33ntvSvVEOgoEHLZfdbm35mrtoVoxOkvJX9/Q2Rwm2FFw5S+l4Ohj9LLBIWSJKIhDyBJlHgY5UsSGChE1BX93NA4a/J9++qls3LhRrxcUFMiIESPqbOSb7i14PFgTA8cqLCzU25M9HxkWX375pV7G6yC7ApkbdcHx3nvvPSkuLtbr++23X63AioHACIIp/tofGE0GtT7qqt2B/f0FWOs7fkeArh4lr78uOQd/v8YoKAg4bDrzVF0fww9dUtpiNBMEWYoXPCw9b71dd43xY5CDiIIY5CDKPAxypIgNFSJqCv7uoEyCAEbZ8nel5OnfV2VMRMccood79St+7VUpvuNWvYxuKQXnzmp2zY2WwCAHEQUxyEGUeRjkSBEbKkTUFPzdQZkEtTVQyyIomKWBwqM7n3xC8o45VrL23Mvb2v4QfPEL9+nTIYIvRNR+GOQgyjwMcqSIDRUiagr+7qB0hIyN8o8+lFBuXo2uKLD5wlm1inxitJRuZ1ePmNJWMExsBJki06bX6ppCRJQKBjmIMg+DHCliQ4WImoK/OyidVKxaJWVvviHlLzyn19HVpM+DD+tlw98VxUjWZaW1BQucItDCYAcRERFxCFkiIiLSKj/5T1WAA5CxgcCHX+4h7sgweojWM8/Rw8C2dYADUFzUD0PWFv/pRW+NiIiIOisGOYiIiDoRBC12Pves7naCbAi/rBH7eEvVygP7IFOix30PSt8nntJdVNqj5gaySYJdZgCZHPVBTRH/hBFiiIiIKLMwyEFERNQJoFGPvudbL7lQSub/xs3SePcd71EX6m8gQ8Ov/M+veEvV9H45Od5a24sO2l13pfHLn/2zBruqoGiqf9rx2KPeI0RERJQpGOQgIiLKIMhOKF36t1pZCuEePb2lahV/X+otVcs56lg9R52NrtffLL0fWqDXOxIEWXrfc58UXPlLHZTBVHDcVO9RIqLUIfibbCKi9MUgBxERUZpDlkbRLTfrD+ZbTp0pO66/RsqW1RwZAFkOCFz4OZs36ef6octHnxde1nU28iYe3mELeSKTpODoY3QQpvt1N7ZrZgkRERF1HAxyEBERpQlkZ6CORjAwkSgslMrFr3trrsr3VnhL1bIOPNhbciEDAs/1Q1CjIwY2MKwtpiCca3CYWyIiIuq8OIRsijgMJBE1BX93UEtAloY/iJE15UjpefU13ppIYutW2XzCcd5atX5/XlIjwwHBkeJnnpacQ8dL1tChEhmwi/dIx4diqaXPPaOzNpoa1EDBUr9wnz6Se/D3vTUi6ozq6prS/82a2XBElD4Y5EgRGypE1BT83UGpQPAh/s03kti0Sa93OWmmnhsYCcU/mggyMPo9+4K35to48wTd/cQPo6BkQpaD7o5z7lnemkjOCSdJt1kXsIsKETUbgxxEmYdBjhSxoUJETcHfHeSHjItgV5BkH7CDH6633XevlL/wnLfmQt0M/7HMPsjyiA4ZqoeDzdp777QPBKCLypY5l9QaMhajq/R58GFvjYiIiMjFmhxEREStAAENdI9AVxNkYiCYsfPJJ7xHqyEoERQcGSWy197eUrX4t996S64up5+pgyPoxoJMkPYe5rWlFL+8qFaAA7pefKm3RERERFSNQQ4iIqImQBcKDNWKQAayKFAzwi+xtUiK77hV19IwjfTEt+v03C+cpC5GbF3N/bKGD3fnU46U/Nk/k2633yWRXXfV24yOWCy0JSBgg2v2Q3eVpnTDwXsVnIiIiCizZEx3le3by2X9hp0yfFgfb0vLao+U87lz58ojCx6Rh3/3sEyfPt3b2rGY+wLm3rz44osy6/xZHeK8O/o9XLNmjZ7n5ubKwIED9XJ7SfZemm3vvP2ODBkyRC+3B9ynQ8a5Q1+mW7eP1vzdgUyBig8/kOyRB2RsA7e94N4iSIGRRxKbNyctUBnsZhIsBgqpdEVBoARDvvoVXPlLPTwqVUNQaevcKyXUs5f0vue+JmWppPJ+EFFmwu/1snfe9tYaj4WKidJHxmRybN1WJjfd/k+Zfdlf5Jk/fiSffrbZe6T9LF68WDdwMBUVFXlb67Zy5cqq/U3jl1KHe5bKfe4oTMMd06WXMu3awHvIn/+64UMaGsWFqrGH0TTQOEZjnFKHriBoMGMoVnyTj3kQ7i0KXW6/6nKdjYF5ULCbSWzlv72laigQGoT30A+jnOBYCGygUGjvp55lgCOJrD33kr5PPCU95t3AgqNE1Gih3Fz9+7ypU+WqVd6RiKijy7juKtt3xOTlP6/tEAGP8ePHy9AhQ/Xy0qVL9bw+b7/tRpcnTpiovzW/+OKL9TfoEydO1NvTBc63rc/bBAyC97kj30MEwYylby3VQa6OBvcOU1tmmfzud7+rytow8PrmXDojFF5EQ1zXdvACG7HlnfNe1Af3yd+FBFOwtgXu45ZTZ9YIYJQt/ov3aLVkdTKCQl26eEuu4MgmEB31PW/JLZSZ7LgYxhUZIAhsoAtGOg3r2lrws56sKwmCG7w/RNQU+P2Brm5NlcMsDqK0kdE1Odo74IEuCKeffrpefvLJJ/W8LmVlZXLdvOv08oUXXqjnaNgh2NGzZ0+9ni5wvm193l999ZW3VFNHvYf+9/uKn1+h56+//rqedyS4d5jws9xWVqxY4S1Vw+ubc+ksTGADtR42HjVZN8hR26EzQGAimO2AdTR60fg1UzADI/bdtzp4gSCQ+eYtWNsi3KuXt9R4CKD4JSsGGtyn69nn6MwMdInASCAIZrBrUf22P/ao/lnH+4dl/FsgImoJ2WNrfomSKmTlZcJw3ESdRcbU5Pjq663y/25MrZ9dt65RmXDoABm1f/+Ua3g0tV/9OvUBe9ToUXp5yeIlMmqUuxyEb/VPOfUUvfzN2m90ow6ZHRs3bpT91C9Vf+MO6fzIWFi+fLm3RWTMmDE6W8HfmEd2w6pVq6Rfv34ybtw4b2s11M6A4PPQAF+2bJm88cYb3haRQYMGyZQpU2o1Ms19AXNvzOv6z9tcS32CNTNwnHfffVc+/vhjb0vy68R14F6g9sZ5556n9zHXXNc9BBwf933t2rV6vXv37nLggQfqDBx/o97cb8A5Bs9r0qRJtZ7TEPN+zzhhhlx77bVVPyOrP1udNCDjf69KS0t1IMC8//vuu68cc8wxdb73o0ePlvfff19niuBacZ1HHnlkrZ/FZO9lY35G6roP2Bev/9Zbb8m2bdv0NpzDhAkTavxcmnNGPRdAHRXAa4P/PfBrzM+r/+cBATA8D69r7suMGTNqPae5GvO7A4258o8+lIp336k1XGh9ei54XKfyd0QIWJSr998v95BxNRr6qdSkwL1BsMcP38h1v6S6qxdeC1kafsHjIAiBQEhQsC4DioiWzP+Nt+YK3mccq/LTTyU6aHex8nI77HuQThC4CnYNio45RLr/4uoWCQ4Fg1DA942o80j2tyQVuWeeI93OPsdbI6KOrlMGOfxSDXg0NcgBF1xwgTz/wvP6G3sUwkwGjSt0Wbjxhhtl9uzZeluyoplopE09fqpeTmbRS4uqGo6mACga/rfddpve5meuCV0ATMMOQZmZM2fK6jWr9XrQ3XfdLWeccYa3VnfDOFh41FxLffz31hwjGXQBevbZZ6u6UPjPwTDXXFfh0fnz51dlUgQFj49GsOk+gfub7P4jWPHQQw95aw0z7/fTTz2tG+Nmva4CqeYasb8JhvnhnF955ZWqQIT/vYdk9z6V9zLZzwiCPrNmzdLnGxS8dwhAzJkzR//8J+P/N1HXe266qJj3wP9z0tDPq//fE5ifB1w7AhzJzqu+YGRTmHtY3++OilWrpFw17sqeeNTb0jh1BTnwYQ71OoLp/QgG2Oq9Aae0TGJrv65VAwKNTRTcTGzcKAmvy0e3i35ao6GJbIpgdkkwWJBsn2TBgmDgIdkHyqYU+kxWwDOV4pO4/vhXX4mVn6+LzSEDJLrLrqwF0YqQrYPuWEH4BrXXvfezmwoRtQhkSDbmiwRAvSRmchClj2Z3Vznt3FeTTn7JHk82BSXbJ9nUHG3RpeWss9wP73f++k7d6AtCQ800GKdOrTuAAVdc4XZtQOMVjT80nDA3XR7weLLXSNVNN92kG4yoC4LGHrJKMDeN5csuv6xJxT1NbQz/hOMaCBIYuhHtNXZxXdgX54EAA84L53f//ffrxwGPm+ejUYt1vF5d0Jg2AQ4EDXAPzX3EcYLH90OAw5wTsi7QWAY0lhEMSQUyKsz7jcwHMF2UGurWhACHee/x+rhewDmjlkUQGvTIoMC9w/7mHkJT38vbb79dnz/u1cr3V9b73jz22GNVgQRzDniOOW/8m0DgDpCxgffDwDViMgGTZFCwFa+p3zd1bLyPOB8EiwDvszk+IMsHcO0fffSR3g/743XMffntb3+r560NgQ2k4m+ceYJsveTCJgc4/BAsQAPeTPi2aod6jSBsQ1ABE14b3QKCUGBN16tQ54UgBaZggdOsUaO9pZZnAivNVbmyZhYJIDiCIUkRAMFQrAi6BKGCPoYuRYAEywjKMMDRuhBAw/sR1P26GxngIKIW09guK+yqQpR+MromR2O1VsAD3QVMAVJ8exy0aNEiPUdDrb4GHYIXaNABGvHmm3XM0dhDg/vKK69sVpCjh/qQiUa07kIxapTueoC5P2jw6aefekupw3XhPP3TM888ox/Dvbn11upGFroO4BwwnX/++XpfnAcyVKZNm6b38Wcm4HGcNwwYMECv13cfTSABDW1kURh4ngki4fgIPgWhUYxsAOyLrAlkQpj3Fl0tUmFqbyBYYrp2mGAHggf1FSDFa82bN6/q9ZGlYAIDCBgkg58J3Dvsjzmu35yz6QKSKtwTc+/xnuE+m/fm5z//ud7uv3ddunTR7yPumzkHPAfnbc7BdGPCY4MHD9bLgGvEFOz+YiB4YYJFOBc8H7A/smHwuoAgTzLIfMF+2B+vg595qCvrpCUkC2wkK1bZEYT79fOWOg4U7vRLrP3aW6rW9fqbq0YpQfACNTGCkP0RDGBQx4D3A++bGZUGQQ82LoioJeXsP9JbSk3OUcd6S0SULpoV5GhuFkVHFgx4DN//J94jjYdG1EUXXaSXH3zwQT03EJAwjW6T8VEXHMc0DBEY8Qcz8Bga3Gi0mcZeU6CLB6Zguj4apuab7oZqa6QC2RSmsfz444/XOGe8tjmP4LWMHTvWW2oaXV/Daxj7AxwGGrvmHn/yySd67mfqQ/ihtkSq8PomGIG6GAbeP5PdUF8BUgQssK/fiBHVDb9k2STB7i94vjnnzz77TM9TZYqC4mch+N4giIEsDWRTmCATfibxPibrgtNQ1lJDvvjC7VuP4GCyn3lz/GTBHwRAgs/Jz8/3llrelX16pUVgoyUEC4Ymgy4yfuEePXWjFhkWVVOSLBEMHYoGcL8/L6kq5BmUN/FwHbxAwxjBC2YAdGzJfl7wvqF7CrJtEPRoSf7CtWYios6lsaOscFQVovTDTI56DNo1T04+YS+ZN/cQ+fSj//W2Ng0KQwIa2P6GKAoyIjsDDWtkfDTkhhtu0HOk4e82aDedVYCAQbKsg6bCN+RomOLYqCdgJhMcaC5cv+mOgm/4EVgIQjBg4cKF+hxQ08ScQ3Bo0cYqLCz0lkR61THKggkAFBcX67lfssZ0Y5jMCQQJgoEkBAkAjfK6upHsscce3lK1+rJWTDZDkOm2YQqBNlay9wySnQveb9RAwXuJazTvZV2ZJ6kyhV9NFk9Qnz5119gx199W7thcKL0fWqCzDFBEsSNKVpAxFbgef3DCKa8ZwCg4+ZQamRWYIrvu6j3qQjeFfs++oDMszBSsowEIWLDbSObQhWIvOFcHGoIjqOC9RrZNSzNdr/wTEXU+qXZZYVcVovTEIEeACWzcdcsEufXGI+S4Y4ZLv35dvEebDo1j0+DEyBoGshgAQ80Gv6FPBtkHqGWBb68B2RAIGGB0DgQDmhvswDFQdwINUBwbr4PzxmQyHJoD2ScmYwXHTPYNP67h2GOP1XUTcA6onWDOwVx3S2huwKIpTNbO+vXrdaPfP5nuO1BXN5LWzDZoDQhUITCFoBzey/3337/qvTSZQc3V1gGLpkJDHlkGvW67Q/q88HKrBDxC6neIP+CAKZrk323ulB+6BTl9E7Ip/DACiglKmOyJYLcOBCJwPf7gRDBzAs/xZ1ZgaolRMii9IcBReOnFOqsJgYai66+tFeggImotqXZZYVcVovTUKkGO3y+o+Q0c1lOZgpLtk2xqrtYKbASZ9Hk0+NDYR2Pe9P8/+eST9TwVyADASB6mkKQpOopjYaSJptbkQAaHOR9kWKDbAV7HdB1BvYvmQiaKyVxBbYlkEAgw+6AgpMkswWRqZrSEphTdbA5/wVFcHxr9wckwwZB0hvuLQBXgZxQFPv0/TxhytiX4h1JOF8kCHghINBcCDP6AA6Zk34ajCwACD/4pGHjAuglKYGL2BLUUf4DDiC1/h4EOImozqXZZYVcVovTUaTM52iqw4YdUfZMNgW4qb775pl7Gt9pNySrAc3BMZAGgFgKg8ZxKnYVkGR+m1ga+YQ9mWKDB2tzuKsE6HHVlrphCrKhjEuwW8dVXX3lLTePvooICp8mYcywoKNDzlmJqbeD9NiO6BCcErgD3OlkB0mTFTevL3qmr6KYJDHTv3l3PG6uu46JrCiYE2vxdg1BANvh+v/HGG95S0+y77756vrWOGhDmZ6UlMpBakwl4ICCBbAkUWmxMX2GidIOsoVDP5N0FiYjaSkNdVthVhSh9daogR3sENoJQOBLQSPzTn/6kl1MtwIjGI74BRxeAIH9h0M2ba44Ik6xBagpIpsrflaIpUqnDYSBQkwwazv7CrU3JWEFgyNwn/9Cihj+wcOCBB3pLzYcgkalBUd/77e/WlKwAabJt/gKpwfuKe4l774f7Zn4mGnuNBx98sJ4nOy7uJ7qmYPIHOCAY4MC+JmhWV1CuofcXXV8A2UfJsnJMEKW5BU7bEr5ZQpZF90suZcCDMhZ+zlFE1oygAui61fP6m1o9YwgFa4MTEXVODXVZYVcVovSV8UGOjhDY8DOjc6DBi0YevmVGNkYqELzA89AFAFkRppGJOQIfptFoRtswRSrRIMXjaAhiX2R+mICDn8lcwHFQNwSNTOyPwAq6T5h6GI0dkQPHMXU4EGDYb7/99HGDk2nUmkY+gkAIOmA75nPmzJHevXvrxwDZMEE4TxyrvuwGM9Qpug3566PgeRjaFJqaXVOXV191RyJK5f32jwoSbLyjQY8inrgneAzLp5x6in7MjM4ShHuPawMEF1D/xQSSGhvkQDDNvD8IZuD1ca9x3F//+td6O35OsJ8/sPHYY4/p88W++NlF3RdznC+//LLqvfc/BwEdnHeyAAag25b5mfzlL39Z9Z7jWDgvk5EzY0bL1XFpS3UFPPwNQ6J0ERxFBV2rMIIKfp7bKsBBROSH3zn1fZHAripEaczJEF9+VeSces4repp77V+dRa984mzYsMN7tPl69e6lp5Zw6623Vh3viSee8LbW9otf/ELv88ILL3hbHOeBBx6oem6yyb8vnH/++Un3+8c//lG1vHr1ar1vaWlpvfv7n4MJz/OvGzgHrJtzCe5X12TOo679cW44R//9wz2Cv/zlLzX2NduT3UOo7z6a1zH855NMXa/hd8ghh+h96nu//cz+5pjm9es67xNOOKHGOZv3ANdS33vq53/MMOvmvYHCwsI6j4nz/uabb7w9a/6s+yecH/bzbzOvgWvxb8e+db0HOIa5V8mm4DWa+2Luq19D73NTtcYxyz/6yNn26AJnw0nTnfWHH+pUfPG59whRx2KXlVX9rMa++9bbWi1eVKT3ISJqD6X/XK7/jgYn/M4iovRl4T9evCOtbdy4U/75r2/l+wft2iqZGhjyElA3obnwjbPpLoLMjroyBvDtOOpkIPPB3w0B326/++67VUNoAuoTjB07tlZ3BXyrvWzZsqrUfYxEYY6Hb9TBfw7Y/49//KM+Nuo14Jt+ZIaYoUGRUYHzQhFSPG/osOp6B+be4PxQO8K8Dr6Jr2u0ED//eeAYyLJA3YxBgwbpb+2HDx+uH8fx3nvvPb0PtpvMCOyP6zT7Y3td9xD8rwG4XgwfG8y08J9/stFg6nsN8D+/vvfbD/cZGQ79+vXT52N+/lCIFfznjQKe48ePr5EFgfcW2TrIlkCBV//PAO4PRukJnqt5DTDvZbKfETA/V3gfzDC0yc4DzPsC/p8/MO+B+XnCa+DfB+qy4PrM/qilUtd7kOxc8O8BwzYH73XwZ9Ovofe5qVryd0cyFep6MCQrRyyhjgbZG9t+dYsuKgrM2CCijgbFjjceNdlbq5Z75jnS7exzvDUiSjcZE+Roba3dUCGqjz/IkSyQEuQPcqC7EbUf/u6gzggNh01nnlpjBBVAoAOjCrWXoltu1kPW+rEuB1Hntu2+e6X8hee8NVeP+x5k0VGiNNasmhynnftq0omIiIg6L2Rr5J1Ue2h0ZHVU/vcLb42IqP0FR1nhqCpE6a/TDiFLRERErafLSTMla8qR3prbcOj91LOStede3hYiovYXHGWFo6oQpT8GOYiIiKhZkJ2BriDopuLX4/IrJDxshO6m0vuhBXpUFSKijiQ4ygpHVSFKf82qyVFX15TfLzjGW8oc7FdP7QkFMyE4NGtdUESzsLBQ72uKxlL74O8OymQIahS/vEhK5v9Grycr1ocCpCH1u6gjFBwtW/FPSWze7K25Co7OvM8sRNQ4+N2w/arLdcZZv2df8LYSUbpikCNFbKgQUVPwdwdlquDoKQYL9hFRujGjrHBUFaLMwCBHithQIaKm4O8OymSFc6+sFeTQtTceWsBhjduB+X1DRI337J67y1+37ZAHi7Z6W4iosTrK510OIZsiNlSIqCn4u4MyWXz9d7Ll1JnemgvfhHY95dQO0T2lM2GAg6h5Tu3WVZ7avsNbI6KmYJAjzbChQkRNwd8dlAmQyr3j6ack3K9frRoWxa+9KsV33KozOLpfdyO7qrQT/q4hIqL20tH+BjHIkSJ+eCCipuDvDkp3pUv/Jjsf+I04mzfp9T4vvFyrK8rO556VguOmdvjsDZxnbM1qb83V8+prvKX0xt81RETUXjIqyMGaHERE9ePvDkpn2+67V8pfeM5bc2VNOTJtAwMY5rZy8evemqv/m8u8pfTG3zVERNReOtrfoJA3JyIiIqoh94hJ3lI1BAkw3CIRERFRR8QgBxEREekhYSv/+4W35kJ9DWRu+IWHjZBwr17eGhEREVHHwiAHERFRJ4aioigeuvmE42Tr3Cv1ul/Xs8/RcxQWLbjyl9LnwYcla8+99DYiIiKijoY1OVLEvq5E1BT83UEdWbCoKCCQERxBBd1TsvYeUqvgaLrBkLd2WZm35sqUgA1/1xARUXthTQ4iIiLqEGL//W+NAAeU/O+CWtkcuQd/P+0DHBAZsIsOavgnIiIiyiwcQjZF/IaEiJqCvzuoo0DNjVBubo1hXhHM2HTmqbUCHV2vv1nyJh7urVE64O8aIiJqL8zkICIiojaDYqLbH3tU19wofnmRt9WFgEf+T8711tyiot1uv4sBDiIiIkpbzORIEb8hIaKm4O8Oai/I3Nj2q1sktvwdb4tbPLTvE0/VyubYMucSKTh3lu6WkslYk4OIiKjldbS/QQxypIgfHoioKfi7g9oLghcbj5rsrVVLVli0syi65WapXPy6t+bq/+Yybym98XcNERG1l472N6hZ3VUwukqyiYiIiNpOxapVegQUP2Rr5J7pDv/qh8KiRERERJmKNTmIiIjSELqjFL/2qmy+cJZsveRC2X7V5bVGRck/8khvyZU15UjpeuVcb42IiIgo8zDIQURElIZKlyyW4jtulcRnn3hbRMqWv+stuTBkanTMITqjo+eCx6Xn1ddkfN0NIiIi6twY5CAiIurg0B0Fo6T45Y4f7y1VK3n6995StV633SHdzj4nYwpsthSMJIPMFiIiIsosDHIQERF1QBgJZOdzz1Z1R9n5uwe9R1wmS8MPWR14HiWHTBYUGsXU58GH9ToRERFlFo6ukiJTMZaIqCk44gE1FoIb/q4o0PupZ3Vww0CxUdTiwNCweSedrLM7/I9T58HRVYiIqL1k1OgqRERE1DzohoKMjWDR0JxJU7ylamXLag53mrP/SOl2+13S79kXpMtJMxngICIiok6PmRxELWDu3LmyZs0aef75570tRER1Q5eSktdfl/I/vyLO5k16G4IV/qKgGD1l8wnHeWsu1JFANwuiIGZyEBFRe2EmB1EGemTBI7L0raWyePFibwsRUd1i69ZJ2ROPVgU4oOLdd7wlV7hHj6qaGwhu5M/+mfSYd4Nep6ZB9x4Mu+ufiIiIKLM0K5PjtHOTfzj4/YJjvCWizsFEL4cOGSpvvPGG5Obm6nUi6pzQ9aTy88+l8pP/SPkbiyX/lNMkb+Lh3qPJszSg35+XiJWT4625XVlC6vcJu6G0jKJbbpbKxa97ay4UIc0EzOQgIqL2wkwOogyzbt06b0lk9ZrV8thjj3lrRNQZoSvKxqMm6xFRSub/RhcPrfzwA+9Rlz9Lw6/8ow+9JReGfWWAg4iIiCh1DHIQNVNZWZm35Lpu3nW6PgcRZTYEM0qX/k1nW/iFe/T0lqqVv/Cct1Qt68CD9dx0RcHIKf6aHERERETUeAxyEDXT5s2bvaVqd955p7dERJkEAY1t990rG2eeIFtOnSk7rr9GypYu9R51obtJsiyNYDCk4Lip0ueFl3UhUY6M0n6C7wsRERGlNwY5iJpp48aN3lK15194Xt5++21vjYjSERq/wWFdAVkZ/oKhlctrFgwFk6VhIFsjUVjorbkQDEG3FWo7Xc8+R3oueLzGFN1lV+9RIiIiygQsPErUTAsXLpTLLr/MW6vGIqRE6QXdT8qWLZPYmtVVxSm7Xn9zjYKhsOGI8d5SNWRk+AMWCJAUP/O05Bw6XrKGDmWWBrU6Fh5NH6jlNXPmDFm9hllERNR+Fr20SMaNG+etNU9H+xvEIAdRM82dO1cPIZvM3XfdLWeccYa3RkQdBYIQqJ3hD0xgeNHtV13urblyTjhJul9yqbfmSjZCR7fb72I9DWpXDHKkB9TsOuus08Sxd8icSyd7W4mI2sbd9y6Wz78olBOmHyf33ju/xb6MZZCDKMPUF+SAle+vlIEDB3prRNQeMGRr6ZLFUvneCol53UtQ7BO1MIxkw7qimwlqZvgVv/aqFN9xq667gW4pWSP2kay9964x9CtRW2OQo+NDN9apx0+VvffqJU8+cZ7sugu7qxFR23no4b/Jzbe8LjNOmC733PObFs0272h/g1iTg6iZ3nrrLW8pufvvv99bIqLWprucrPinVKxa5W1xhdQfcgznagIcgG4pfsjqQFDDD8O/Ivjhl/+DSdLvz0uk12136CBJ9n77McCRJvDzgSwe/5Ss7gpRS3vxxRd1gOP4qfvLa6/MYYCDiNpMWXlMrp33og5w3HD9PHnooYczvjs9MzmImslELuvTkn3eiKi2YBeSrClHSs+rr/HWXJsvnKWDFn7931zmLbkwcooZ7hXHyBo1Wgc1GMTIDMm6GqH4aNaee3lr6YuZHB3X/Pnz9fDyPzlzjFz9y2MlNyfqPUJE1LoQ4LjyF8/KS4s+kmv+3zXygx/8wHuktqysLBk+fLi31jgZ1V2FqLMrKiqSocOGemt1YxFSoqbDN+2x776Vyk8/lfgXn0u4/4Aa3UwAQ7r6RzyB+gIYRrCBi6wNp7yMhUIz1PbHHpWyJx711lwMclBrKSsrkxtumCePLHhUrrn6SLlgVs0ixkRErenb77bK6Wc+omtwnHfuebLnXvX/rSsoKJBTTznFW2scdlchyiCFgSEh67J6zWp5/fWa3x4SUW3BriGw8ajJUnTuWboOBoIUpc894z1SLTrqe95SNXRN8MsaeYCeW3366iyNgit/qYuP+qHLCgMcmSvcr5+3RNS68CXInDkX6wDHA785mQEOImpTn3++SQc4SktF/S66rMEAR8+ePeX4qVO9tfTHIAdRM5SUlHhLDZt1/iz9oYeIXAhooIgnMiwK516ph2bd+eQT3qPVgnUykLERrKOAbiVBsXXrvCVX7pixeqjXfs++oLuyFBx9TI3RVYiIWgKGiD322KPk+RdekueemSVTjxvlPUJE1PreXf6FHDHlLtm5U+T0M86Tvn37eo8kN3DXXXWAIz8/39uS/liTg6gZUEgMwYv6oKvKhAkTZMyYMTJx4kQdKSXqLBDISGwt0l1NsoYPr9EtAIEKZGn4JRvNJJU6Cmb4V2RoRNW/ucjgwZK19xAGMagGXWxU/Sz65R4yLiN+TthdpWNYuXKlzJ49Sxx7pyx84lwWGCWiNvXU0+/KL67+kxx04P5y3NSTJBqtvwbQCPXZ7LDDDvPWmi6janIwyEGdXUNBjvt+c5+c0sS+bUTpDF1Ftpxas25GzgknSfdLLvXWXMmKgWLkEn+hTzNkqx+6miATg4hcDHK0PzNE7PhD95A7b5/JAAcRtSkzROykHxwuEyb+oMEAx9gxY2TkyJHeWvOwJgdRBlm/fr1c8fMr5OHfPSzvvP2OHkXFb2uS+gJE6Q4BDAQeUMQRWRboZoJ1PyundpHdxLc1u49AeNDu3lI1FBn1i6p9cs88Rwc2kMGBIAgDHETUkSxcuLBqiNhHHzmHAQ4iajMYQeXiS3+vAxzHHHOkTJr8owYDHJMnTWqxAEdHxCAHUTPMnj1b5s6dK9OnT5chQ4bIoEGDvEdcH3zwgbdElF4QyKhYtUoHL4LFQBOFRTqzAqNUmG4kGPXED+n/KPDpF1v+jrdUzV9LA11V0N0kFBiFKHu//aTb2efowAa6qHA4VyLqSB544D657PLL5NKLD5c7fjWTQ8QSUZvZurWkaojYM844Uw49dKL3SHIIfkw7/njZc889vS2Zid1ViFqYSdcyvln7DYeOpbRRuvRvsuP6a7w1V7BrSLKuKNExh0iv2+7w1lzJamn0furZGqOXmJod0V12ZfCCWp0ZjtgvU3722F2l7WGI2DlzfibPv/Aih4glojbXlCFijz7qKOnevbu3peWwuwpRhsMvGT9UWSfqCFB0EZkZCD6gFga6mSBbwy+y227eUrXExo3ekivZEKvJsjRQABSZGf6uJsmGbGV2BrWVkr++oYcj9k/BoAdRKvC3/dJLZ+sAx/8uOIsBDiJqUx9+9I2cdoY7ROxVV/0ipSFiTzrxxFYJcHREDHIQtTCMouK3KtCIJGpNCGRgpJFk3Uzi33yju5kgu8IU+4yt/VrPjWAQAhLrv/OWqiFzw0C3FAQzgq/X5aSZeqhWdjUhokyCAMfMmTPkow/f0UPETvpBzWGuiYhaE4aIPWbqAxKJdNVDxDYUuEDXFAwR21CdjkzCIAdRC9tjjz28Jddnn33mLRG1np3PPaszM/DNNIZS1cGMz9d4j7pSydJINpRmsMsJFJx+VlUR0H7PvqCDGRyulYgyHUZQmTlzmjj2dj1E7Ngx9X97SkTUkjCCykknPyyjR+8vp552doMBDgwRiyKjnSnAAQxyELWwYcOGeUuuRYtqjrhC1FhmNJNt990rhXOv1MEMZGz4hfvWLPIJic2bvSUXag8EJcvSwFCvyMzIn/0z6Xr9zTqYEYRioMzMIKLOxAwRO2JEFx3g4AgqRNRWMIKKGSIWI6hMm3ZSg4GLCYcdJoepqTNikIOohaHI6MQJ1ZWNV69ZLUVFRd4aUXIoiGhqZgS7fZS//77OzCh/4bmq2heJwkI9N5JlaVSufN9bciEg4R/xBKOZJNP9kkt1Zga6m+RNPFwHM4gyQbhPHx3Aw6QL6qopWRctoqD58+dXDRGLEVQY4CCitoIAB0ZQQYDjRz86Uo+gksoQscOHD/fWOp9mja5CRMnddtttcuev7/TWRJYsXiKjRo3y1oiqoX7GjjtuE2fzJm+LSI/7HtSZEgaKg2695EJvzRUc8QRBko1HTfbWXAhi9HnwYW/NZTJAGLggyiwcXaV1YASVRx99ROZdf4MeQeXMMw7lELFE1GYwgsqtv3pNDxGbyggqCH5MnzatzQuMcnQVok7gwAMP9JZcH330kbdEnQ2CChiWFTUzMKoJup74hXLzagQ4IFgMNLJr7W4mybI0/N9Qd7v9Lul21Vzv0WoIbjDAQUTUMDNErAlwYAQVBjiIqK2YIWJXrPgupQAHRlBpjwBHR8QgB1ErGDx4sLfk+vjjj70l6kwQ1EAh0B3XXyMl83+jC3jGAkMKJwtgxL/43FtyBQt6ostJOMkwruhiggkZHrkHf5/BDCKiJsIIKqed/mM9RCxGUOEQsUTUljCCythDfyUlJaJHUGkowNG7Vy89ggoDHC52VyFqJSZty2AKcWZBRkbl6tUS++9/Jf7ZJ7pWRv83l3mPulBfA7U0/FDME7Uu/FBI1A/Ds/a67Q5vzYUuK1Zeri4eymKfHc+aNTVHsqnPwIEDde0eah1z586VRxY8Ig//7mGZPn26t7UaunbFvvvWW3ML8mbCvyl2V2k57hCxJ4hj75B77v6xjNy/ds0jIqLW8sZfP5GfnPu4HHTg/vKDSUenNILK2LFj23UElY72N6hZQY7Tzn3VW6rp9wuq+4kTdVYXXHCBPP/C896ayDtvvyNDhgzx1ijdbb5wliQ++8Rbc/V+6lmJ+DIsUG8Dw7n6oTsJsi38kPHh7Ngu4V0HSmSvvSVL/bFiFkZ6CQY168PfBa2rviBHssAjRg/KhH9vDHK0DDOCyt579ZInnziPBUaJqE2ZEVQOGLm/nDCj4RFU9t13Xzl03Dhvrf10tL9B7K5C1ErGj6/57fxXX33lLVFHZ+poYMhWBDMwBUX3rS4MagS7okQHDvSWqsVW/ttbqoagBzI3MKoJupowwJG+ZpwwQ/ebrW9iFgdRx7R48eKqEVReeG42AxxE1GYwgsqdv369aojYH598akojqHSEAEdHxCAHUSvZK9B3rjHp7NS+tt9+m66jgSFbka2hp8CwrlkjD/CWqiU2b/aWXMjqMIVAMWIKMj36PfuC9yhloiuuuEKPrlTfhO4qRNSxYIjYU049pWqI2B498r1HiIhalxki9t77/ybHHz9NDxFbHwQ/EODYc889vS0UxO4qRK0EfXpHja4eNnbihIny/PPV3VeofaA/fuXnn0vlJ/+RyvdWJK2lsf2xR6XsiUe9NVdwWFdke6CoqIFioHknnVyr3gZ1DiZNsyldUZAev2jRIm/NhfTTY445RldKD8LvFuy/du1ab4vImDFj5Mgjj6yRJYJuG3DxxRfXCqyY18TrnHHGGd7W5MdGX+AJEybIuEZ8W1TXcXCOweG0Fy5cqIszT506VUaPHi2vv/66LF++3HtU9PZkr+2/bzj2sGHD9PFvuOEGdlehlGEElXvuuUt+fdfdVSOoEBG1FYygcsVVz8qyf3ypsz0bKjCaFY3KtA44gkpH+xvEIAdRK8IH89VrVntrIt+s/Yap6u0slVoa6KqCTA6/ZAVD0WCKDtpdj5ASHAGFOpemBjn8tXuGDhkq+++/f431Z599tkaAwtQLSAaB1CeffLLqd0x95/Tiiy/KrPNn6Q9UyC6BlStXyuQpk/VyMjfecKPMnj3bW6tbQ8e5WzUm/YEVcy7YvmzZshq1jIxgwMI8x8C9wu9adBcCHCNZkAPBycpPP/XWXLmHjMuIf78McjSeGSIWI6j86pZpcuopY71HiIha3+efb5JZFz4upaUi06af3GCmJ774OOrIIyU/v+NlmnW0v0HsrkLUivDtpx++3aTWh4YMAhC6oGd5ubfVlTNpirdUDaOk+GUNHeotucLDRoiV5A8K6mcgu4MBDmoKNNRNg37J4iU6gPHQQw/J6s/cxjoa7Zdeeql+HNAgQ3cYQMABQVNMi15apBv5S99aKo899ph+vCluuukmPUfgY+X7K/UHFZwLggVw3bzrUvodZo6DoIs5DuY4Llx2+WVSVFSkl/2wfcuWLfp6cF3mPgCCNwaeawIcOCaCOLh32B+SBUkMZGzg361/4r/fzgk/y5MmHa4DHBgilgEOImpLGCL2iCl3yc6d7hCxDQU4+vTpo4eI7YgBjo6IQQ6iVoQUcr9Vq1Z5S9QaMJrJxpkn6G4kSEmvXPy67prilzViH2+pGoaB9UNWh6mj0e/PS6TPgw/rxhBRS7rjDneYYGQw+Ltw4JsaE8xA4MIEFpDlgMAHAhrIqEDGBiZkjF155ZV6HwQimgqvBegeYj5s4VyQDfH0U0/rYEevXr309rogEDNp0qSqDBFzHMzRbcYoLCz0lqrhuhDMwPXguoL3wXjvvff0HPvjNUyWCva/9daaXVGIkkGNrJkzp4tjb5c3F18uY8ew2DMRtZ1FL6+Uk05+WA8Re96si1IaInb6tGntOkRsumGQg6gV7eer4QD+fubUPBWrVumMDb9Qbp44mzd5a67yFf/0llxZe+/tLblQSyNUUOCtVUNQA1kaVk6Ot4WoYXfeeaeuhVHfBMhGMF3ZMLZ9EBruaMTDJ5+43atM4x5BiCAEIpAx0Zw0UZNp8fjjj9cqlDxlyhT9Gg11t8PjCMD4gw9GQ99SIfOtoeODuQ/BTDlAoAMZJER1QdbPIeMOEdveIQufOFf23ruv9wgRUevDELE//dkzcsghY+S4qSc1mJnxvdGj5bDDDvPWKFUMchC1ouCH+rfeestbosZCtxNkaqAoKLI1tl5yoZQtrf52F4IBDKhc/o635ELQAvU1ul5/c9VoJywWSi0FXSVQ9LK+CfyZDHU1/k0jvri4WM+3bdum5yiw2RrOPfdcHVjBNaARiIwKBCvQKESGRqqwL7rioN4I+uj6p/oEM9/qYu5DXfvXVxMFoyTpuhzehPo7wWApZS78XJohYl97ZQ6HiCWiNoMRVK6d92LVELHHHddwZgZGUDnooIO8NWqMZgU5UGA02URELnwr6f9WEd/cJuuLTg1LbC2S7Vddrkc9Mdka5X9+Rc8NBDAwZKsfiowG63IgqJE38fAaxUaJWgK6daBGRH1TUCrZC20BwQEUOkW9DwQ78Pvqzl/fqRuF6IKCYEdD3EKOc3TNDARLUFMDGSJmam9l77ytu7OZCQWGg4VIKTNhiFj8XP7kzDF6iNjcHKZ9E1HbMEPE/u8Ty2XmzB+nNETstOOP5xCxzcBMDqJWhsaB36f8QF0vk7ERX/+dt8WFgAS6lvgh2BH8Fjbn0PESHXOIztbA0JAYHpZdTqitDB48WAcL6puC2iPwabJDgpBVgu4mCGggIIN6ISbggWBHsBtLkH90FBRTRSFVZIOYqSXVdQ1Efgi8XXDBLF2vBkPE3nTDdAY4iKjNYIjYo4+9R15a9JEO9geHUQ/KysrS9Tf69mVXuuZgkIOolQUbNV98wdToIBPY2HbfvbLxqMk6Y6Pk9de9R6vlHHWst1StwuufbyBDo9dtd+hsDYykQNQR+buorF271luqyXRt6devn54PGjRIz5PV9kGgBKn4mFLx8ccfe0t1w+8uDPX6xhtvVNUHaah4sqmXgQyO4Ae5lhpdytyHuq7B3LdkMOQzdR74dzFnzsV6BJUHfnOyXDDrcO8RIqLW9+FH38hpZzyih4idM+cy2XOv+j+Xoq7Uaaee2mAhUmoYgxxErQzf7Pql0rjobMo/+lAHNspfeM7bUrsrCuQc/H1vSTVWvGyN3PHjvS1E6QNdVMzwqK8nCej5u4YMHz5cz03QAI34YMDgmWee0an4ZsQWv82bN3tLLjw3GAhYuXKlLoqKOhrB+hs41wEDBnhrTYNjmqFlIXhOjWECx7iG4Lk21KXGyusYXYOo9eHn/Nhjj5LnX3hJDxE79bj6vz1tLnxbiyEhMWoCps8/3yRbt5Z4j7YuvN5ue8zV/f1bA46NCdfU3jrSuSSDbgk4tzf++ol+XzBv6Fyb8v51lPuA1zfnQjXh98ExUx+QSKSrHiK2ocyMgbvuqoeI5QgqLaNZQY7Tzn016URE1YKZHPV9y9gZoBtKsCtKzv4jvaVq6IqCEVT8MNoJCob2eeHlqmwN1tWgdHXRRRfpOepeIAMD3zqj0Y6Guhk6FfUx8M0OoBCoqfEzavQoXWMA3UcWLlxYNXSsOSaYIAqOhSAG9sVz8FyTmWEgOwK/m9DV5N5779XngEaieY4ZwjU4YlTQgQceqOc4Dq4Jz8exUKfjo48+qjonFGEOBihSZV4D0B0Qr4Nz9d+3ukR32VV3Y/NPuYeM8x6lTIGf95kzp+khYt/9xy9adYhYNGJPOf0hGXvor/SQkBg1AdMRU+6Skd+7STdcEQBpKThWSx6vo0KACA1oBA3SAc4To2YMHXGtfu9/cu7j+ucAc6wfMfkO/Xi6XE8y5j2hhj319LtVQ8SeetrZKQ0Re/TRRzPA0YIsR/GWG62ugAaLjxLVhG9I/cEN9HVP1jc/U+nuKMvflbI/vyqx5e9I7pnnSLezz/EedaGrij+TA5LtR9QRmZFDGvtvGwGKyy6/zFurCX13582bV6MwKRrzl156aVXQwS+4Pxp6k6dM1st+V/z8Cj1CCzI/8BxTKwNBAtTdqAvqc6D7Sn0QuEBAw9TlMBBUQVFTDId7yqmneFtFD3mLIAXO5eHfPayHqfVDkAQjvYB/eNy6zhVBoR07dujAUbLjZTLzM9icYYQzgfnZGH/oHnLn7TNbbQQVNFZvufUVXUgQ9t6rlxxz1P4ydGh/vb7iX19WPQbIJmmJYAu+MUfxVNQWyWTIbkCQ4M3Fl3f4YX4RdDr9zEfk8y/cUbPws3fcMQdIQUGOFBeXy8uvfiDL/vFl1WPBn0tzrR39fb3z16/Lvff/Tb75smXrK2UaBLMwgsqkHxwuEyb+oMHAxdgxY2TkyNpf9qWbjvY3iEEOojYQbMhgBIYpU6Z4a5kNQzZuPuE4b61avz8vqVEQFFkbGBYWck44SbLHHqIzPFg0lNKBqYUxceLEqsyLVCGDY+nSpfLZZ5/pdQQgkDFRV7AEgYT3339f1/dB9zcMpbrHHnskLWZmjo06HmY/HB/BEtTXQL0PZIgY2B91NTZs2KCPjQwPdFU5+OCD6xzqNgjnhwKkOM6uu+4q+++/vz6OuS8IXJjaHghCmPVk12zOH4IBC1zDihUrqq7NPL++42UyBjmq/9ZiiNjWHkEF39T+4uo/6WUUND3zjENrvR4av7f+6jVdcBCa22DHt+g6S6ATBDmQAYMgUUcPciDYdc55j+ogBgJd9959sozcfzfv0WrI+Ln5lld0ICT485kuQQ5kLOE6GeRIDj8LGEEF/94xRGxDI6gAhojNlBFUGOQg6oSC3zrim1Rkd3QWmy+cpYdy9et2+12S66uxAaVL/ya5Y8YysEFE1EidOciBwNqjjz4i866/QS69+HD56U8ntWqAA2n76IoCCHDUV9DU3wj2N2IRAHnwob/pZWzTtRu+2Cjr1rldUQ4+aA+ZMmXfqutA//5ly9bob9KRDXDKj8fo7ag1guDHfz75Tvr27VKVLeLfdsABg2Tx4o91dgng2IeNHyI9euTr81i69DP55NP1+rGBA3vIzBMP1o8ZaISDeQ6u/+/qXOrjPxfAfXj77c/lb0trjjAXvE5z7LvvXawDAri/A/p3l31G7KKDHcFzMXB8/zVCt665Ml7tF8ygMfcGx9xVXS+et3r1Btm+w+1Cd/jE4TLpByP0ckNMgAIaCsigCCVqNMD/Ljir6jX8QY6rf3lsrfM55uiRta6hvvsQvM913QfD/GyZ1wvub+6XuU4U8QW8NpifhWDdG7yXf379o6qfLRgxfIBMn35g0n+f+DfQmPPuSHCt117/Jx3gOOOMM2XEiPp/fpDdgRFUMqnAKIMcRJ0Qvo0cOqy6Dzz61T//fM107nSHjI3SJYul8r0Vul6GH4IXO66/xltzoXBocD8iotaEekA7HnvUW3PlTvlhrYBrOuqsQQ63i9TP9AgqDQUcWorJ4sA396+9MqfBgAoakeifr5f/8QvdVcFkZQAajaYB6ef/xt9kNgThW3V/I9kEUfzbIPhcHPum66fJCSfNr+pmYSCI8vSTF3hrbhcZMI14/7nXxX8u/m+4k/FfZ13Hxj1CIzp4LpCsu8iGDTuq1uvKnEBADA37ZPf1V7dMk1NPGeut1c1kN6T6s2feR5zT/feepreZ88E2SHafgueT7D6goT37kif1+SST7BxN14pkzP7m/ILw2mDeL3+GR/A98cO/myefOK+qy05DPx/+n6WOyH+t6ALa0AgqBQUFcvRRR2XcCCod7W9QswqPIpiRbCKimpCm7S/0h/70+GCWCSr/+4VsV40GdEkpmf8bXXMDw8H6ITvDsPr01bU2upzvdk0hImortvq9W7n49RpTohkjvVD7cmvUzNYBDnwz3hYBDjDfTKMGR0MBDkAmhfHppxu8pWpoQOL8P/z3tXpC4xLQ6MO3+oBGnvkGHY0+NChT6TaABvXnX2zSNUFWf3KTngOOjQDH+EP3llcX/VQ/Zo6PRjKCDXVB9gMauMEJDXED2RAGMgtMA9acR/BczHWiwe6/LhwX6/WNjoOMGDQwESTA/UOA5s0lV+rnokHtP74fsmJwb3DdOB881wSFTFek+iCoYAIKh4xNLdsAWRmAc0Lj3s/cI3PNuD8I2ADOB69Xn7vu+Ys+HzwHP0/mmsz7gmAGAm4Glk2AA/vjNYP7I/sE9x7nZGA/TPVlrVxx1bP6PcH9xDGxP37OcG7YbrKY4ImF/9DXjvcK7wX2x4RlbMPPMAItHRHuIYaILVFvzVVX/SKlIWJPOvFEDhHbBjiELFEbmTBhgrfkMv3v013lp59K2RM1vxktW/wXb8mF7icFV/5Sd1Hp+8RTupho1p4dP/2QiIg6JgQ4Zs6cIR99+I5uDKbavaAlLPvH53puiow2BIEQ01gtKanQcz80BHH+6HaACcEaE+j4y5LmDzs//77Tdco/zgNz05AHdI9ADQk8hsasOc+v19b+Bt7Avmjg+qdevfLl4QV/148jQyL4fuA1cU3mPMy5mOwFfzeTxsC36CYTY84lU2p03cB5zTr3ML2M7i/JoAgorhvng+eedcah3iNuN436FBZWBx169SrwlurXu1cXb0mdu9c1yQ/XgPMG3J9HHzlHN/Th3++v1fNk/Pfhpuun6/tvrgkZIObn6cmn3tVzePW1D/Ucj5n3y+xvfg7+8pfG//whMGKCP/j5Mu8Jfs4uvcQtho1zRZAHgRsTaEE9E7wX2B8Tli+71K1f9/QfamfbtDeTodWjxy5yxpnnNRi4QO0NDhHbdhjkIGojKIzn9+WXTfuD3t7QLcUv/weTvKVq+HY0OExswdHH6JRw1tsgIqLmQJ0rDBFr29tk4RPn6sZgW0qWgt+Qvfeq+1tvf8PaOGCkW7zSfLvfVGismkamgToYgCwONIT9zHkmC8bUB/UIcF/weqiJ4ocGNDJRkmXa/HDyvt5S05jMGAQCTHDA7/sHu0UdcW7BTAgEWIKj7yQ7RipaYhSfZNeA9wfvE7z//td6noy5D7j/ya5h0hH76Ln/58kERZJloSAbBtkXV/zcDY40xldfuf8+ENgK/nzh36rJBMFj36wr8h5xgyBBBx64u54jaNJQJktbQjcfBDhGj95fjpt6UoMBjn333VcXGWWAo+0wyEHURlDp3w8jAqQTdEFBAdHtv3WLZhkIWqD7iV942AhJFFb/4SIi6ghCubmSNeXIGlO4Tx/vUUoHppD3iBFdavTr7+i2biv1lmpD948g/zf+zVFfcMUEO5oLNUpMdwNkRgQbtoCsCAxBihoWqCdhpmS1HhrDBGNMICDIf2/9mRfQo3uet9R8LdEAr+sazPtkCoMmY+4DapGg7kdwuue+6kwWZH345eVme0stozFZOSYggp+dZOft79YSfP/aA7JPTB0TjKAybdpJDQYuJhx2mBzqG8WM2kazghwoPJpsIqLagsMvvvXWW95Sx4aaG0W33Czbr7pcj5Ci+7GrbX4F09yCUGgwoEtKnwcfluxAUIeIqL1FBuwiPa++psaUCUVHO4v58+frAAe+gUchyfYKcJjuHus3bNPzVJhv0PPzazcokwUF0gW6Jpj6Fbf+zwlJ3xOk9aM4JWpg4Bt53D8zmW4RraU17y266Bj+jIT6lJZVZ8gkC241FzJWkKERnPwZHGWlsQa74rQEjNSTqrrOG1NHYQqkIsDxox+5Q8TWF+DAY8jeGD68uj4NtR1mchC1kdzcXJlxwgxvTWT1mtW6T3FHV7Z0qQ5s+BU/87S35Ar36CF9Xng54xoMKA67Zs0aPRERUfvA7+Jbb/0fuW7edbp+gH+kjPaAYTDhmT+sqFU8MhkEAozhw2vX8UjlGB0RshcuvczNxDD1NpL55f97Qc8R1EAxTHRdMZMZCre1tGYXB3QDMvUy3nm35pc/dTH7IbiT6s9wcXG5t9Qw3GPTHaSuCd1ZmtotJxUY+hXMcMipwP1Idq7+qTXPuSHIfsFQ0AgWYQSViRMneo8khwAHhohFHQ5qHwxyELWhAw44wFtyrV1bdxGpjsJkafgly+ZAoCMdIGDx4osv1pjqCmIgCHXIuEP0RNRR+YNx9U1E6cgMEfvru+7WDWnUdWjvzAd/nYdko3YE/e4RN3MTDblkmQ7JClDWV/izozB1OJBZc2aSuiKAjAHsA6g9EnzvmltYtW9ft1tPXd/4+zMsWiNz4uQfH6zn+HY/2A0kCI+bIpvJgjumoG2QGc2nvswIcx/qOkZ9kv2s4X3DiCb+0VhSZQryYuSaIAT0cFxMCEDtM2IXvR0ZPh012If3DUPE/ve/O1IaIhYjqCDAwRFU2heDHERtaMiQId6S64svGv/Ho7U45eVS/NqrumuKH4IXGBnFDzU4wj16emvpYfHixTJu3DgdsJh1/qwaE7bNmDFDVq7smEOUEdXHH4yrb8IY9kj3z5Thqynz4Wf7tNN/rIeIxQgqbTVEbEPwjTK+MQfUlKivIYj++6arwC9/cbSeB73x5n+8pWp/W/qpnmOkko7IX4cD19WUwBPum7k39dUsqc8w3wg3yd4HkzmBQExrBMdmnnhwVTYHGsJ1BTrQoL/1V6/pZew/ZUrtgqsIBgW7kaDhbwI4phhtMuY+4BjJ7gO2ocaF/zHzs2V+1vyuvf5F/bP9wYfVWUhGQ8EIf+DCn8UECAriuJhycrNqBJ7efrt2gMacd3sNIYvXH3vor6S4WL2/ZzQc4Ojdq5ceQYUBjvbHIAdRGxoxouaQasuWLfOW2heKim4681QpvuNWnaWBdT+MoGL16auDG+iWgiFg0yVzA9CwO+XUU3QXoaFDhsqNN9woD//uYT1hGduWvrVUJk+ZrDM7iNIVusThm6bgNHGCm1qLdP85c+Z02kAHRn1CINc/BX/fUcfgDhF7gqz/drW8uuinbT6CSkMwNKYZ/hSjLKAh9sZfP3EzF9SEIACKbJpv7n91y7Sko0cA9jHfbKNRheeZhu348TW/HAE8hv2CDeK24q/DgUwGU+MhOIG/i8HjC/9R9RjuD+6bCRYh2GGe42eeU1e3E3QZMcOjoluMacRjf9xTc//PP6/mMP4tBa+PoU8BAQY0iBHYMu8P5lgf+b2bqoJCKJhbV8Bl1oWP6/trMh6OPvYevR3PO+CAQXo5mWT3Acfw32v83GzatFPvA9OO/56eYzuKwmJfvDaWzRCwZlSW3Lzq833xxffqfU/8QcBjpj6g/21gf1yPGcoX54p7gOmB37j37yfnPq7/DeG8ESzCMq4F59eY+jctBa+P+3bQgfvLuedd1GDgYsTw4XLcccdxBJUOwnIUb7nR6ioy+vsFx3hLRBSEb1P9tmze4i21j53PPSsl83/jrbkQ0Oj7xFM1hntFpkc6Dv+KDA4EOAABjbPPPlvXR/FzP0zP1EEQeOftd3TWDVL88Q04tPf7RFQX/8+p+dlNBgE8ZC7B0089LVOmTNHLnYkupHzuWd6aC5lqGOI63Zm/LZnwu8qMoGIahB11BBU0xp5QjXDTkE4G14BGcDDAgUYfinECGnzJjmG65xho+KER7YdaBWg84ptxNCxR5wKSbTPMY2hcTj1ulLfVhQYpGpX+xzAKCry5+HLdgDXPbwjODera31zfEZPvqOrSYl4XDW0UKjXM9uC5AN6HW259RZ93MggwnXrKWG+t/nsDyV6jIXhvrrjq2argQDJ4vQsvOLzWz7P/fFDPwn/dBjKZ/IG+ptwHZG4Eh4RFMAQN+WSCr4ngm//68J4ga8P8HJv3GxAAQXcmk6njZwoH+wM9ZsSSZHBfEFRsjUycupjzOWDk/nLCjIZHUPne6NFy0EEHeWudU0f7G9SsIAcRNd7cuXPlkQWPeGv1N0raQrIP/ZAJH/zxbfWkSZN08ALfZt92W/Uf4CAEOkaNHqW/8b722mtl1KhRtYIcCJi88cYbVSPjTJ06VU4//fRaI+cUFRXJM888Ix988IE8/8LzehuOi3MJBlnwuvfff78eQ/2MM86oeg38jCDDBK9x/vnn6z6efji3559/XhYtWiQDBgzQx0Z3nN69e+vjQfB6/c8xWS04PrrqtOfPIDVPqkGOuv49oEGJnwnzMxiE31lw8cUXV/2s+7dt2bJFHwM/t8iIwrFPPvlk/W+oo0n2+w4ZashOS3eZEuQwgWk0hG66fpr+hrqjQ4Pu3++vlY0bt1fVT8Cwn4MH96oze8Mf5EDjEOv/+eQ7PfwmCpvuuWefpNkr2O+fK/6rlwsKcnTD3zwXdRnMc5JtM8xjaKAGG/Fo9OLbfv9jaITDYeOH6PfDPL8h/gCKOe/vvtumazb4j2/uH4ZBNdvRYEfXBhTdxHWa7cFz8UMWwqpV3+r3AMECvE6y/eq7N1DfazQEwY733vtaVq/eoId8RR2NAf27y4EH7l5nsM6cD35ehgzpr36nb9BDq+JnAT9Hyc6jvkAM7oN5PuAYyd5rA/f/78vWVJ1zXa9p9jPvCa4pLzdLbwP/+23g5wldXlCEFPcCXW6S3XMw98F/3vX9G2oN+Ll74IE3dKAJQ8RiBJWGYAQVFhhlkIOo01u4cKFcdvll3proLhPTp9f+JqEtbX/sUSl74lFvzc3k6H7djWk/DCxqbKALCqQSTEJwwh9M8DcekQWCVH9AcMBkfWAZjTsTuMAxjj322BqPQ137m9dAw3DQoEH6NYLPQYAEwQnDf16ALgommIJv6NFAwLaHHnpIbwPzzaiBY6JBaix6aZEOklD6STXIARdccIH+WfEHOUyGR12BQPPBxX9ss+3uu+6u8fvMr70DuMkkC3Jg6GuMDJXuMiHIga6F+B2Y7JveTIMGXbJvwIlS0ZRsE6ofAhwYIhbZJ8cfP03GjKl/5B9kd0yZPLnWF12dVUf7G8SaHERtbP/93T68xmeffeYttb5khUWh6ymn6sAG5M/+me6qku4BDvjyS/fbAAQNUmlsBbMl/J588kkdkPpm7TfuN98vLdLbEYjwv4fI4DDBCTTysC+mJYuX6G14LFktFmRumNdAEMT/GghGoCFr3HnnnXqOQAbOB8GM1Z+5386brjk9fDVTEHgxAY4rfn6FrHx/pQ6aYI7gDeBx7EeZC1lDJhiGgFpLQIADP0P4WcIHG8xNkA7fyBOlAllGc+deVTVE7P33npbRAQ6i5kCAjFoWMnBQ/wQBDnyWaijAkeUNEcsAR8fVrCAHanIkm4iobsHGxYoVK7yl1oNie4Vzr6wqLFq6tGZ/T9Ta6HHbHdL7qWely0kz07L2RjLLl7v9UidMaH7BMQQWkHFjMjCQ9WCKOZpgCiBF3xQ19QdWsN3sjyBGMslew1i1apWeIxBhGqoXXXRR1b4I0Fx11VVVDUy/V191fy/j9dHNwPxRxnz27NlV57V0aXVmB2UW/NyYbkzQUvU48GEQP0P+nyn8XEJHHCIbo0Lprnhq6nr9zdJzwePSNQO6qqQzBDgwROwjCx7VtRM6yggqRB0RaqaYDCDUe2EWR/MhaISRcUpLRf09+2lKQ8SedNJJHEGlg2MmB1Ebwy9Hf0MU39K35jfoGDlgy6kzJbb8HW+LyM4HfiOJrTWHOcvacy+JDHCH/aLahg8f7i1VS5YdgsAEAhXJuiBNmzbNW0ouWXcRNCL9Cgurx7MP1jzAzxZqbAR9/PHHeo76IcmY8zJBIUpf6LaClNHgNHTY0KpaQMEAXHOgxkdQQUGBt9Tx6CGxjz5GT3kTD+fvvXaG7KJJkw4XM0SsvzgkEdVmioqiGKcZ1YWaDjVDEDTaudMdIrahzIw+ffroIWLz8xtXq4XaHoMcRO0g2BBtzW88w73c8dv9nM2bZPtvH/DWKBX1dWUJQo0D1D4INjTrql3QGF999ZW3lNywYcO8pWqmUCrqLgTPqaXOizo+dFVCF6qWrAE0ePBgb4mocdAFb+bM6eLY23VdgbqKEWYqfAOPWhysx0GNYX5mMCpMWxbkzEQoMGuGiJ3900tTGiIWXVQ4RGx6YJCDqB0EG6L+7g4tDd9UIjXbD/U38qfWn1WQCUyfStPIbwsLFy7UwQR0KUHNDDQsTfeVYFZGUxQXF3tLqfMXMMU51DVhdA1KbwhioDaGmVCzxZ851tEKgVLnhJpDyDqy7R2y8IlzmXJPRG0KQ8Ri2N5DDhkjx01teIjYserz5GGHHeatUTpgkIOoHewXKOrZkt0EMHpAEFKzo2Pc0RcwkkDvhxZkRGHRhuyxxx56jkY+RlppCFKn8eG7qdDtyGRFYNQJFARFDQzTfaUlij3269fPW0ouWRAEwRZAdxWMnlHXlGz4UEpvqNmCESvgzl/fmdK/A6LWhEw3FDrGCCqvvTKnzmE1iYhaGkZQQV2Tm295XQ8Re9xxDWdmYIjYkSNHemuULhjkIGoHwW9TTV/55sJQsBgecedzz3pbqnX/xdXS7fa79FCJ6JfeGaBmhfkW+7e//a0ucFcXPHbppZfqD9+mUdhY/noZxxxzjLdUra6Co42B/qBGslouyUZuMcGe9evX6zl1Lvh3gEwdQJHQuv4dbA3U6YHWrBfUXjYcMb7GlGzEKWod+N2KTDfUE8j0IWKJqGPZurVEDxGLuiYzZ/5YDj3ULbpeFwQ/ph1/vOy5557eFkonzQpy/H7BMUknImqY+XbdQBZBUznl5fqDetkTj+r1kvm/0QVH/RDYyD34+95a53HDDTfoObqPzJkzJ2kDDw05PIYisJCseGdjlaJMtw8+3JvjN4e/KFZwNBRkoZiRV/zM6DIYnjHYaMX9QP0QTP5haimzmJF3kNV07733eltdplAofnaC/z4wJDJRc7m/Z2ZVDRGLegIMcBBRW8EQsSecNL9qiNhg4fagrKwsXX+jb192pUtXzOQgaicHHHCAt+RqTvHRouuv1UPD+u244zY9dGxnh6Eyb7zhRr2MRhxGg0DAASnTmLB87LHHVgUHFr20qMHq2nXxP++mm27SQQdM6AqCD/eozwGoEYJuA035lhzdD8z14BtRXAOOheu44ooragXPYPTo0VXDxM6aNUufEwIaixcv1kEgXDumXkmK1FJmQOHcK6+8Ui+j24o/oDVixAhvyQ0K4ucJPyMzZsyQJ5980nuEqGncIPLF6nfMi/LAb07mELFE1KY+/OgbOe0Md4jYq676RUpDxJ526qkcIjbNMchB1E6CUeTm9JXPPap2BhVGUKlc7Rac7OyQov/0U09XfZONgAMCBJiwjG0IDqBoY7JhXFOFAASCJICgAbq+YEKjEtvRHQbwepOnTK6ViZGqs88+uyqYgWvAsXAdqLmBQEcQzgvf3uM5yCbBOaHo3ymnnqK7SuG+4PwaM4IMpR/UhTE/N6gVY7I2EJwzgTP8PODnCT8j+FlB8CxZ4IwoFchQPPbYo9Tvw5f0ELFTj6v/21MiopaEIWKPmfqARCJd9RCxDQUuBu66qx4iliOopD/LUbzlRjvt3Fe9pZrYZYWoYfjwN2p09Qc+NCRQqLKpUI/DdFfB6Cndr7uxUxQXbSx8g71q1SpvzXXwwQcnzd5AI9B0I0o2KgUewz7IgPAHCLB9xYoVehn1MFBw1DyO/d9//329PHz4cB2AaMprgLkWvAZG7MGx8A08GqhIx0QGSdD/Z+8+wJsq2z6A3xWoVJBRKMiqsloQRIaIrLJfGQplKktUQBRUQFERB0NFFAQHoqigguBgFFARBT8UFeVVpK5XAUVlyirDYpHVr//nPE+bpkmbtEl6kvx/13WunJFxkqbJOXfu574RTHPs5oNCpsj0wG0pOOGXchMwa9OmTa7BKsf3pvN1Hd8beF/g/Ynt5j2I/xHzPjGZII7rDOwP6tNgvav/q8KGOhyOUIwZtYqCHdpBA7rq2AHeTyNHDpP0c6mqgwoLjBJRIC1+8yu5b8IK1SLWkw4qaBHLDir5Z7fvIAY5iAqR+UAw0O7Rk5NNDEMpWqmyXsqCuhxnd/4pZSdOdrmdQgNOMA8ePKiKkDoHRvDLO7I63AU5iCg02ekA0wRbW7WsLjOe7McABxEFFFrEooNKh/ZtJaFN+zwDHAmtW6vAPuWf3YIcHK5CVIhMxwPD/KKfGxQUPTSgX47ColD2rnFS/unnGOAIcV999ZU6gRgyZEi2uh4IfiDAAb4onkpE5K2FCxeqzye0iJ3/ys0McBBRwKBF7O2jF2W2iO3Q8WqPWsQywBF6GOQgKkTNmjXTcxbnYRTOENg4du9dah6XzoGOiOLF1UShrU+fPqqQKGp7xMXHqQKR6I6COhuAoU8FqS1CROQtDGl6/vnnZOxdY2X07W3ZIpaIAgodVNAiFh1UBg++waMWsf369mWL2BDFIAdRIUItBUdbt27Vczk5BjgMV4EOCn0Y0oRCoigWiaKhKBCJQqcIbrz80svy9NNP62sSEfkfAhxjxtwpEydNVi1ix93dmQEOIgoYBDgG3fCKfP31XpUl7dg1zBW0TkeLWHZQCV2syUFUiDDUAL/EGzhhxVhmV/759BM5PilncbwSI++UC/v200tERJSb1NXZj12KxMRIVNMr9VLwKqzx0BhmOWXKQ7I86V15bd4Q6dA+95MLIiJfQgeV8ROWqxaxg2/Iu4NK+XLl5Nprr2UHFR9jTQ4iyoTOBRh2YGD4gWONBUcXtGkrpZ+cqZcsUTfczAAHEZEXUqc/nm1KW/uR3kLeQoCjX7/e8sP3X6oWsQxwEFEgIcDR9/qXpWzZyh4FODA0hQGO8MAgB1EhQ/tSRzt37tRzOeHXRhPoQICj9E03q3kiIsqfU2vX6DnyBrIO+/VLlHPnjqoWsVc1q6m3EBH5HzqoIMDRqJHVIjavAEe9evVUkVEGOMIDgxxEhSw+Pl7PWX744Qd1mX7ypPzrohApAh3R815ngIOIiAqFaRFbt+6F8saCYeygQkQBgw4qM55ak9lBJTGxr0cdVFqyIHtYYZCDqJDVr19fz1l++ukndZky6SE5cset8veSd9Syo8ga/MWMiIgCb86cOZktYtFBhQEOIgoUBDjQQeWZ2Z/I1Vd3Vh1UcgtwYBsCHOygEn4KVHiUiHzDFOsxfnvySUlbMF8vWUNTSvUfwPawREQFxMKj+YMOKk8/PVOemjlLdVC5YXBLdlAhooBBB5Vx974jn3/xu+qgUqNm7j/4IcDBDiqBY7fCowxyENnAiBEjVAtQuCemnAypGKPmHbEGBxERuePPA0zTInbZ8iR5YmqiDOh/ld5CROR/pkUsOqgk9rxeqlatqre4hsL+yOBggCNw2F2FiHJo1aqVnhMpUaSInssSEVNBSnTurJeIiIgCAx1UBg66TgU40EGFAQ4iCiR0ULmq5ROSmioyaPCwPAMcMTEx0qN7dwY4whyDHEQ2UNMh5W7SXwfk6zYdVWDDKDttuhStVFkvERER+Z/VIraX7NuzTd5fNYodVIgooD7+v59VB5UrmlwmQ4fdlmfgom6dOmqICjuoUIGGqwwcmn1cq7FoXjc9R0SewIFkw0YN9ZJI71695flJE+XYM7Mkqks3uaBNW72FiIgK4sy+vXIuLU0vWUKhmLOvU4VNB5VaNcuxgwoRBRxaxKKDyuUNLpNevfPuoNK4USO54oor9BIFWkjV5GCQg8g3cNCd0LuPbNu+Ta8R2bVzl0RFReklIiLyhZSpj8qptWv0kuWi9Z/rueDlywPMtWvXSv8B/VUHlUcmJUrZsiX0FiIi/0IHlamPvyevLdikWsSig0pe2EGl8LEmBxFlc/bIETk8+nZ5oWJ5aR6V1T0F2R1ERESBhBaxJsCBFrEMcBBRoJgWsQhw9OiRmGeAA9kdXbt0YYCDcmCQg6iQHXvheUk/eEAqHk2R56rHqu4q8OOPP6pLIiIif0MHlfHj75WHJz6sWsTOfmYgW8QSUcCgg0rXa56Wlat+UC1imzVrpre4FqlbxOZViJTCE4McRIXon08/yZY2Xfy881T7WAQ6Nm3apNcSERH5j2kR+8q8+fL8s9fLiOGsA0VEgfPrrwcyW8SOGTNWajgU5HcFLWL79u3LDirkFoMcRIXoxJuL9FyWv06dlukHD8uGDRv0GiIi8pWoTv+Rkvfcn20KZxga2aFD28wWsd2vzSqCTUTkb2gR267TTPn7b6tFbIUKWd0FXalapYpqEVuiBIfSkXssPEpUiNJPnpTjby6WtAXz9RqR+/7YJe+nnlDz27ZuU9FqIiKi3OSn6Nv27dtlyJABkn7ub3npxRukVq3cTy6IiHxp1bvJMurOt1SL2Gu7591BBS1iW7durZfITthdhYhyOLXjNzn25DT5PqKIXLd0qV6b8eG/cpW0aNFCLxEREbnm7QGmaRELr80bIhfHWvWgiIgC4eP1/1MtYps3byadO3fLM8BxVbNm0qBBA71EdsMgBxG5Zdr2GbNmzpLBgwfrJSIiIte8PcDs3buXfMphkURUiNgiNnQwyEEU5pC1kf5Pmpxfv75ekwWpw81bNNdLoqpLT5s2TS8REVFBndm3V86lpeklS7HKVSSieFYL72Dk7QFmSkqKHD58WC9ld/r0aVm/fr0cOXpUryEi8q3IyMg8C4ciu6Nb16551umgwhdSQQ4i8t7BW4fL2a0/S2SnzlLy+v4SWSN7BWnzIWHY5cOCiCgUpEx9NFtXK4ie93qOz+Jg46sDzKNHj8qKlSvl1KlTeg0RUeAhCJLYowc7qAQJuwU52F2FKIBSV7+vAhyAg+yUoUPk6HPPqGUD2RuOkN1BRETkb+i0krRiBQMcRFSoUHR/4IABDHBQvjHIQRQg6KRy4rV5eilL0Zq19JylXr16es7yxx9/6DkiIiqoIpUq6zlyhAyO1R98oIaqEBEVFtTeQIvYvAqREuWGNTmIAuTfH3+UI3fcqpcsETEVpMKCxdnGgjtWvIcpk6fIyJEj9RIRERUEMupSpz+ulywcrmIFOb786iu9REQUeDHly8sVV1yhlyiYhFRNjmAOcjjXPSAKhOZRxaVXdBlpV7qUFD/vPPngyFG5Z89feitR8GHNGAo2KP586pdf9JIlqnkLKVK2rF4KTnY7wCQiovDBIIdNMMhBhalmsaJya4Xy8uKBQ/Lb6TN6LVFw4kkVUeFjkIOIiAoLgxw2wYMBIqKC4ecokX3w/5GIiAqL3b6DWHiUyM/O7NsrZ48c0UtERERERETkLwxyEPlZ6tIlcrDXtapVLMaCExFR4UHQGZ/F/3z6iVWEFK29GYgmIiIKGQxyEPkRDpxPLl+i5nGZMnSIHLx1uFomIqLAS/tyo/osPj7pQdVlBdPZIyl6KxEREQU7BjmI/AgH086KxF6s54iIiIiIiMiXGOQg8qO0VSv0XJaoTv/Rc0RERERERORLDHIQ+VHJocOlWLPmekkkIqaCRDW9Ui8RERERERGRLxWohWwwY6s1CiTU5vhn3VopUqGCXNCmrV5LFNz4OUrBCJ/HzjU4ilWuIhHFi+ul4MT/RyIiKix2+w5ikIMHA0RE+cLPUSL74P8jEREVFgY5bIIHA0REBcPPUSL74P9j8Nq+fbueIyIKvKpVq0pUVJReyh98B13d/XW9lLtF87rpOZGBQ9/Xc7lzvI0nChTkcLdT3u5EYeDBAPnTvz/+KEXKRUvRSpX1GqLQw89RIvvg/2PwSUtLkzFj7pRly5P0GiKiwLv7rrFy//0P6KX8YZDDJngwQP508Nbhcnbrz1Ikvq4U79BJolq1YsCDQg4/RykYndm3V46/Ol8vWdD1KtiLQvP/Mbjs3r1bpkx5SJYnvSuvzRsiF8eW01uIiPzv4/X/k0enrpG42tXlnXeSVDZHQTDIYRM8GCB/wQH0oQH99JIFwY6YF1/WS0ShgZ+jFIxO7fhNUoYO0UuWkvfcLyW72v/YJTf8fwweCHD069db0s8dk6mP9ZSrmtXUW4iI/O+rTb9J3+tfll49r5WHH36kwAEOsFuQgy1kiXzs5JYtei4LsjmIiIgovG3cuFH69UuUc+eOysIFQxngIKKAmvvyJyrA0btXD3nmmTk+CXAEAoIhzlNumMnBXzzIx1KmPiqn1q7RS5ayz70o59evr5eIQgM/RykYMZODCgsCHN17dJce3S+T++/rKlUql9VbiIj8K+3kaVmw8As1RGXggOukfYerJTIyUm/N7vzzz5fWrVpJsWLF9Jq8+fM7KD8xB2ZyEPnYeRdeKBExFfSShQEOIiJ7OC8qSiI7dc42FYmJ0VuJ/GPOnDmZAY7pT/RjgIOIAgYBjnvue0cFOK6+urPUq99Q9u/fL7t27XI5/fnnn3Lq1Cl96+DEFrL8xYP8BLU5Tm3bJmcPHJAL+2av0UEUCvg5SmQf/H+0J3RQefrpmfLUzFny4ITOcsPglhJV3PNfR4mICmLP3iPy+BOrZeWqH2TY0GFSo2buQ+SQvdEzMVHKlCmj13iGmRxEYQLdVC5o05YBDiIiojBkWsQiwPHE1EQZMbwtAxxEFDAIcAy64RX5+uu9HgU4oqOj8xXgsCMGOYiIiIiIfAgdVAYOuk6WLU+SJW8NlwH9r9JbiIj8Dx1Urmr5hKSmigwanHeAo3y5ctKje/eQCHAAgxxERERERD5itYjtJfv2bJP3V41iBxUiCqiP/+9n1UHliiaXydBht+UZuKhbp45ce+21XhUatTt2V+HYVfIR1OBIXbpEitasJZEZHxbFKleRiOLF9Vai0MPPUQpGZ48ckb/fWCDn/v5brxEpVjsu6IcW8v/RHkwHlVo1y8kbC4axwCgRBRRaxKLA6OUNLpNevfvmGbioV6+etGzRQi/lH2tyEIUoFBk9uXyJpE5/XLUn3N+lo6Sudv1PSUREhePskRT1WY1W32Y6vX2b3kqUf0lJSZkdVJYvGckABxEFDDqozHhqjQpwdOvWWa67fkCeAY6OHTr4JMBhRwxyEHkJGRspUx9VAQwzndrxm5z66Sd9jSzFYi/Wc0REZAdFykbrOSLfQYvY4bcMz2wRW7ZsCb2FiMi/TIvYZ2Z/Ij16JErLlm30FtcQ/OjapYvUqFFDrwk9HK7CtE7yUvrJkypLwxPFWraWiAtKyHkXXqiGsah1sRfL+fXrq3miYMbPUQpWf7VrpecskZ06S/SEB/VScOL/Y+FAB5XJkyfKK/Pmqxax6KBCRBQopoPKr78d9qiDSmSxYpLohw4qdvsOYiYHkZdQZ6NYs+Z6KXenv/hMpUKbYSyYTu/8U28lIiKiYGW1iL1dBTief/Z6BjiIKKB+/fWACnD884/IyJGjPGoR27dv35DpoJKbAmVyBDP+4kEF8feSd+TEnGf1kuciYipIhQWLWZCUQgI/RylYOddLKhITI1FNr9RLwYn/j4FldVDpLdu2/6ZaxLKDChEFElrEooNKxQrlZMiNw/IMXMRkfM9d062b3zqoMJODKAQUveQSPeed4l2uYYCDiKiQlezaLdsU7AEOCqzt27dLv349Jf3cMVm/9i4GOIgooFa9m5zZInbkqNEetYjtmZgYUi1i88JMDv7iQfmAFoQHe12rlzwXs/xdKVKW1dYpNPBzlMg++P8YGGwRS0SFybSIbd68mXTunHdmRuNGjeSKK67QS/7jz+8gtpAlChAEKorE19VLnkFhOwY4iIiIgtPChQszW8Sufm8MAxxEFDDooPLQxKTMFrHXXpt3ZgZaxAYiwGFHBQpyIKriaiIKB5HNPCs+apTonqjniIiIKJg8//xzMvausXLjDc1Ui9io4uGT9k1EhevIkROqRexrCzZJv37XedQiNrFHj5BuEZsXZnIQ5VOkF21gkfXBtrFERPaAFrKOU8rUR/UWouzQQWXEiOEycdJk1SL2kck9GeAgooBBi9hefefIylU/qBaxDRs21Ftci4yMVPU3KlSooNeEJwY5iPIpslZtPZe3Ev0H6jkiIrIbtPomcpaSkiKjR4+UZcuT5LV5Q9gilogC6vsfdsnAwVaL2Hvvvc+jFrEDBwwIixaxeSlQ4VF3Q1NyKwJiFyzQRb6wv18vST94QC+5xraxFKr4OUrBCtkbzi5a/7meC078f/QttoglosJkWsTGx1WXHon98gxcVK1SRTp16lRoHVTs9h3ETA6iAji/de5j4oBtY4mI7AXBZyJ3kpOTpV+/RNUi9qsv7mOAg4gCavGbX2W2iB0w8CaPWsR27do1rFrE5oUtZPmLBxXAP59+IscnPaiXXGPbWApV/BylYIUaHM5DVJjJQWBaxLZqWV1mPNmPHVSIKKBMi9gO7dtKQpv2eQYuElq3ljp16uilwmO37yAGOXgwQAVwZt9eOTSgn17KqXivvlLmjtF6iSi08HOUyD74/1hwc+bMkYcnPqxaxLKDChEFElrEooMKCoxefXVnadMm72xxtIi1SwcVBjlsggcD5Cu51eWInve6RNZgmiuFJn6OEtkH/x/zDx1U5s9/RXVQGX17Wxk1qgMDHEQUMOig8vgTq1WAY/DgG6Ru3bp6i2vI7kAHFTsVGPXnd1B+6oCyJgdRAbmry4G2sQxwEBER2RcCHGPG3JnZInbc3Z0Z4CCigEGAY9ANr8jXX+9VLWLzCnCULFnSdgEOOypQkANRFVcTUTgpWrOWnsuu5NDheo6IiIjsBh1UTItYdFBhi1giCiR0UEGL2BMnRAYNHpZni9jy5cpJ3z59GODwADM5iAoo0kWxH1TuL35ZA71ERER2kvb1fyV19fvZJgovpkXsD99/yRaxRBRwpkVs2bKVZfANw/IMXKD2xrXXXssOKh5ikIOogFwNSbmg7/VsG0tEZFNpaz+S1OmPZ5sofKCDClrEnjt3VBYuGMoABxEFFDqoIMBxeYPL5NruffMMcNSrV08VGWWAw3MMchD5QGSnznrOckHHTnqOiIiCAbplUehbu3atahFbt+6F8saCYWwRS0QBgw4qM55ao1rEduvWWXr17ptn4ALBjZYtWuil8IQCo66m3DDIQeQDkQ0b6TmrbWyRsjxoIiIKJufS0vQchSq0iO0/oH9mi1gGOIgoUEyL2Gdmf6JaxLZs2SbXAAe22alFbLBhkIPIBxzrclzQ7Ro9R0REdnTehRfqOQoH6KDy+OOPycMTH1YdVBDgYAcVIgoUdFC5edh81SIWHVTatHHdmdGILGa1iGWAI/8i0jPoea+566SSV/qIHbCfPPnaX+1aqbaxMS++rNcQhTZ+jlKwOnvkSMaUopcsxSpXCepaSvx/dM20iEUHlSemJsqA/lfpLVQQR46ckK3b/pIDB/7Wa0QqVLhQ4uMukrJlS+g19OuvB6Rdp5lqftfv09QlhRfTIvaff0QSe14vVatW1Vtci46OVhkcwdZBxW7fQQxy8GCAfOTw+Hvkgt59JarplXoNUWjj5yiRffD/MSd0ULlz9EjZsGEjO6j4CFLuFyz8QtUUcOfGG5rJXWP+Y/tgB7pbIEjT/dqGeo3v+TLIserdZLm0bmWpVauCXkN2ZzqoXFSxnNwwJO8OKjExMXJNt25BWWDUn99B+Yk5cLgKkQ+gUvtjP2+Tpb9s1WuIiIiosFgtYnvJvj3b5P1Voxjg8AH8It31mqczAxyobfL8s9dnTliG1xZskl5956hsDzt7Y/FXMurOt/SSfyAggeBGQQMcCJZgX//3MwskB4uP/+9nFeC4osllMnTYbXkGOOrWqaOGqLCDim8wyEFUQKZS+2f/3SRj7xorjz/6iEqPJSIiosDDDw8NGzWUc+eOqRaxDS6rprdQQTz+xGr59bfDUqtmORU4mv3MQJUFYSYsI9gBuN7Mpz9S83aEjBTURwgWf+48rOcoGKBF7I1DX89sEVuiRO5ZTY0bNZLWrVvrJfKFAg1XCWZM6yRfQKV2FDLrWrKETImtIu+lHJVJfx2Qnl26yBNPP6PG1RGFKn6OUrBCTY5Tv26XswcP6jUiUc1bBHVnLP4/WpKSkmT4LcNVVsEjkxJZH8JHTNo9IMCRW+AIJ3jI9hh9e1sZNapDtiKv+HX7k09/Udke0KpldWnbJl6u6XZ5tm43yBp5ce4nav6RyT3V7bZs+VPe/8AKTHTrcpn0798sR4cc7Ofnn2+XzRnX/fyL39X9N2l0sbRqVTszm2fxm1/Jxq9+ywxyYHgN4HHM49atU0m6dL5M3ln6tbz19tfy4IRrpEP7uup6yFDB+h9+3JN5H3i/tbiqpvTs2STb83V+HuD4GKgRg2EoX3/zu3pNEEC6/rqmcsPglpn389DEJPn1twOZz6dWzQqZt4Xvf9glH330k/yx87DaH3Odbl0bMIMpwBA8m/r4e+pviRax6KCSl1DpoGK34SoMcvDgnPIBmRqTH35IXnntNRkXU05urBijt4h8/Xeq3PTnbql98cWyZMXKPAsMEQUrfo5SsEpd/b6kTn9cL1mi570ukTWC94SA/49ZPzzgpHXC/dewg4oP4UQbJ244mUfGRl5wsuf4+pv2mY5BgbJlLsg4cf9VZX2AY/AEgYQGjR9R88gOMcNKEAQw18f86vfGZD4Oghf3TVih5l0xhWfNc3GGISWmhgbeQ6VLRal2n4B9QLYK9gtDcRz3Acwynpdj9x5XNTkcH6Nq1bIqIOT4vMDxda5Wfby6dITbmuAPMgbcQTehEcPb6iXyJ8f3eL9+10nDhrnXesGwlE4dO4bMeQKDHDbBgwHKr5SUFBl/912y/L33ZHrli6RLdM4xdvtOnZJbduyU38+ckVUrV0mLFi30FqLQwc9RClaughyln5wZ1IWjw/n/Uf3wMHmivDJvPk/q/MScaJuTfW8hW8EEKtavvSuzeCZODJ9//mMVTMCJ/vp196j1YB4T64cPba0yK5CZg8yFbt2fV9scC8qa6yOYYTIqcP9JSZszgx/bfn5ErXdXENRxPSAbJbFHYylXroR6bJOlAo7PwzHT5bV5QzKzPnILcgCe29jRnaRTp3pqvxxfp6++uC8zU8UEZpxf/3Ydp6vgiGPWDJ7z2rU/Zd7P998+xIwmP0N2Djqo4G+BFrE1auYeMI+MjMx4X/UIug4qubHbd1CBanIgquJqIgpVKGTWrfPVKsDx6sVVXQY4oFLGh9fCWpeoYSyo17Fw4UK9hYiI7Mhx6AoFD6tF7O0qwIETQAY4/AvdPfLjzbetzAkEIBy7g+CkfOjNVi0CnCAigOEMQQBkYJgTdWR7mCEmpoWtY5HTNm3i1f0CLnFbvDeQKeIN3Gbc3Z3V/prHvrxBNfUcsM3xeSDQgmEi8Otv+9WlJ56ZZQUtzP46BjAOH07Vc+6Z7A8EYhyfM+4HwRY85+JRkWo9+QeCVgMHWy1ix4wZm2eAA0PZ+/bpE1IBDjti4VEiD6GQWZ9rrpGze/fK2rga0vTCknqLa2WKFlV1OkZEl2FBUiIiIh/DDw8dOrSVZctXql/085NhQP6HzALUk4Arm+asPYAAggkQ/PFH1pANo0mTi/Wce473oQqkZpx4OsJ7A8EREwjwROtWtfVcFgQzEDRx9V5DbRHYvfuIuvSEq9omub0WzjCsBZ5+bm2OABGySbx9zuQdZPAgKyc1VWTQ4GFSoULu7X2rVqmS8TfrnmchUio4BjmIPGA6qMQdOyJzL66iMjU8Ufy88+SOyhfJpIsqyFPPPCN3jrhFDXchIqLCU6J9B1WDw3FC4VEKHtu3b5d+/XpK+rljatgACywGxj9p/+o5z+1xOOmPusD1CTcKZbrjXFzUndF3dFSXqImAE08M5Zjx1BpVtwKBFm+5G+KBISW3j16khsc4TmYYS0Hl9lo4G3NHJzXkBc8ZQ3gK+pzJc3gfmBaxI0eN9qhFbNeuXdkiNkAY5CDKAwqZ9R/QP7ODiqcBDkd9yker4S1JH3wg3f7TSf36REREhSOieHFVZNRxCubOKuEGmZXNWzSXc+eOqxaxjsMGyL9+/HGPnsuf6Ojcs2ALAoEu1LFAXRZTyBO1PlCYs+s1T7scCuMt1ORArQsEFZBFgWEzGLqCyQyhCSS895cvGameMzJAnJ8zMg3I98z7oHnzZqpFbF6Bi6uaNWOL2AJwVR4DU24Y5CByA0NLxt8zTlVqRweVJy+ppjIz8gvDWzDM5cyePap/Pw7SiIiIyHOocYXMSpxgorOGp7/yU8GgsCW8+/536jIvyCRwrJNhOGZ1+APeD6jLggKmCHio2hk64DF67Fsu98lTuK3J1kBdDnQ/QYcTDF3BhE4phQEZJ3jOb74xIsdzRqZBQZ4zZYfsGGTx4H2AFrHXXpuYZ4ADLWIbNGiglyhQGOQgcgFDSjC0BC1i0UHFsUVsQbAgKRERUf48//xzqsYVTrgd23SS/7XS9SlQWwMBjNwgYwKZBGgBixNsx0ybQ4etQqHO0EoWSpQ4X136AgIeCD4gGAY46d+1O/9Dhg8fzgoWoHuLs7fe/lrPFR7H54xAB3y7Zae6pILBe9m0iB08+AZp2bKN3uIagh/ooFKjRs46NOR/DHIQOTEdVDC0JLcOKvnFgqRERIXr7JEjVhvZjOnvJe9IytRHJe3r/+qtZDf4jhwxYrhMnDRZpeWj4wUDHIGFoSCmyCUCGO4CHQhwIGMCMHzD1LUwmSDvr/5eXTrCkAoEIKBxo1h16S3cR/9Bc1WrVVfMCf/Bg3l3LPFESkr2+8HwBfMc/GnfX0f1XNZzRmaBM/x/XHRRKTV/4oT3dVQoO7SI7dV3jgpwoEVs3bpWi2B30CK2Z2JinoVIyX8Y5CByYDqonNm1y6MOKvnFgqRERIXn7JEUSZ3+uJpOzHlWTq1dwxayNoXvxtGjR8qy5UmqJSZbxBae++/rmhksQKADJ9govmgmnGyj+CVO9hEQmXD/Neq6gBan8NqCTaowJrqfYMKJ+v0PLFfbEAhxV+wzL+XLXaiyTMz9IwiD+8fl889/nGsQBQEK7EdewzrKlcvaN3RwQUAHt8PjYfiCCeT8+tsBtc2Xw0RKl4pSl598ulU9Jp5XtWrR6jnjxNvxOWM7npPpaONJdxpyD39LtIg9kfHnvPfe+zxqETtwwAC2iC1kEekZ9LzX3BX8WDSvm56zr/Ix5dXloYOH1CUROqiYAqNjK1fMV4HR/Pj671S56c/dUvvii2XJipVStWpVvYXI3vg5SsHq1I7fJGXoEL1kiezUWaInPKiXgk8o/j8is7Jfv96ybftvqkUsO6gUPtQkWLDwi1w7iSDb5obBLXNk25iAhquMBwQIRo3qkO026FgCu36fpi4dIWMDAQ3UnzDtXHGSj+CLKwjOPP5Yr8z3EJ4HCnM67gu69AA6s4Crx1385ldy34QVeikL3p+XXx4rcXUf0mtE7duldSvnuD8EInJ7DFfPDSfaCCA5wm3xmqLuhjv8vykY8/rGx1WXHon98gxcYGhKm4SEsOyg4s/voPzEHBjk4ME5ZUAHFRQYNR1UClJgND/2nTolt+zYKb+fOSOrVq6SFi3YypDsj5+jFKwY5LC/5ORkGTlymJw797e8sWAYC4zaDLIUtm77Sw4cyKqxUaHChRkngxflmo2B4MLGjb9mG0KBTANXf18EA8BV9xwMH0j757TKrnB8POwXalA43j/2CwEI56ALrvvZ59vVvLkOmOKo7rr2YL/+9/NeNX/JJeWkWtXozH3A8/vuO6sGBl6L4lGROe4P18ntMdw9N8fHRfDE3Da/fwvKHbJhEMxr1OgySUzMu4MKWsSGcweVkApyBDMenBNgnO+YO+6QZStXqA4qviowmh9Hz5yRqbv3yerUEzJr5iwZPHiw3kJkT/wcpWD2V7tWes7CIId9YOgoinOjJeaMJ/sxwEFEAeOYrdShfVtJaNM+zwBHQuvWUqdOHb0UnuwW5GBNDgpbSINFLQwEOHzZQSW/WJCUiChwLlr/ebYpmAMcoQSZlaZF7PxXbmaAg4gCBgEOdFBBgOPqqztLh45Xe9QiNtwDHHbEIAeFJQQ4+vbqKd/93//5pYNKfjkXJB098jYWJCUiopCHoD5axGLoKGo6sEUsEQUShgmZFrHooNKmTd4tYvv17csWsTbF4SpMsw47Jg22etGi8lKN2IAVGPVWZkHS6tVlyfIkFiQl2+HnKJF9BPP/oxo6OuZO1UEFAQ52UCGiQEKAY9ANr8g//4h07drTow4qyOBgB5UsdvsOYuFRHpyHlaSkJBl+y3BVYHRC1UpqiIid7Th5Ukb/sVuKVLxIZs6Zw4KkZCv8HCWyj2D9f0Rm5ZQpD8nypHfZCYKIAg4dVMZPWK5axN4wZFiegYvy5crJtddeG5YdVHJjt+8gDlehsPH8M8+oAEf/0qVU7Qu7BzigRvHiKtsk7tgRlX2CIA0RERUcCo86TilTH9VbKFCsFrG95Ifvv2SAg4gCDm2H0SK2bNnKHgU40EGFAY7gwEwO/gLpN6glcfhwzl7ovvDHH39IamqqXsrbmvfft0UHlfw6ee6cPLXnL3nz2HGZ/OBDcvMtt0hUVJTeSlQ4+DlKwcy5u0pETAWp+M5yvRR8gu3/EUNHx427ky1iiahQmBaxlze4THr1zrtFbL169aQlM6rd8ud3UMBbyDLIQa5MnThRZs55Xi/Zx/PVKkub0qX0UnB6bf9BmXHQP4Gj/Kp98cXy5Teb9RKFE36OUjBzDnIAuqwEq2D6f1y7dq30H9BfdVC5/76uDHAQUcCgg8rzz38sz8z+RLp16yxXXtnCow4qLDCaOwY5bIIH5/5zz223ys/vvSuDY8pJtfP9U9QzumjRoBhu4g+o07H1n5N6qXB9e+IflV3C/6PwxM9RCmYYnnJq7Rq9ZGGQw//QIhYdVBDgYAcVIgok0yIWHVR69EiUZs2a6S2uIfjRJiGBAQ4PMMhhEzw49x8EOU6u/UgeqFZZr6FQ9UHKUbln71/8PwpT/BylYPb3knfk9PZtekkksmEjKdnV/scv7tj9/xEdVJ5+eqY8NXMWO6gQUcChg8q4e9+Rz7/4XbWIzauDSmSxYpKYmMgOKh6yW5CDhUeJiIgo7FzYt59ET3gwcwrmAIfdmRaxCHA8MTWRAQ4iCijTInbHjuMycuQoj1rE9u3blwGOIMYgBxERERH5BTqoDBx0nSxbnqQ6qAzof5XeQkTkf2gRe1XLJ+Tvv0UGDR4mVatW1Vtci4mJkR7du0uJEiX0GgpGDHIQUb6VL2bVRcFBLBERkaPt27dLv349Zd+ebfL+qlFsEUtEAbXq3WTVIvaKJpfJsOG3edQitmdiIlvEhoACBTkwDsbVREThoZwOciAVmYiIyECL2OYtmsu5c8dl4YKh0uCyanoLEZH/oUXsqDvfkubNm8m13fvmmZnRuFEjad26tV6iYMdMDiIiIgo7aV//V1JXvy/HXp2vOq1gOrNvr95KBZGUlCTde3RXHVSWLxnJFrFEFDDooPLQxCR5dOoa1SL22mvzzsxAi9grrrhCL1EoYJCDiIiIws6pH3+U1OmPS9qC+aqVLKZzzEorMLSIHX7LcLnxhmaqRWzZshzXTkSBYVrEvrZgk/Trd520bNlGb3ENwY+uXbqwRWwIYpCDiIiIwk6RihX1HPkChi2OH3+vPDzxYdUi9pHJPSWqOMe1E1FgoINK12uelpWrflAtYhs2bKi3uBYZGanqb+RViJQKn6vyGJhyU6AgB3rWupqIiIiIKDwgwDF69Eh5Zd58ef7Z69kilogC6vsfdsnAwa/IP/+IjBkz1qMWsQMHDGCL2BDGTA4iIiIiyhd01+rQoa0sT3pXtYjtfm3uv54SEfkSWsR26/68pKZaLWIrVKigt7hWtUoV1SKWHVRCG4McREREFHYi69SRkvfcnzmVfe5FKVa5it5KnkhOTpZ+/RIl/dwxWb/2LraIJaKAWvzmV5ktYkeOGu1Ri9iuXbsywBEGGOQgIiKisBNZo6aU7Notczq/fn2JKF5cb6W8oEVsx04d5dy5v1WL2Fq1cv/1lIjIl9Ai9r4JK6RD+7aqRWxegYurmjVji9gg5ao8BqbcMMhBRERERB5buHBhZovY1e+NYYtYIgoYdFC5ffQi1SL26qs7S4eOV3vUIrZBgwZ6icIBgxxERERE5JHnn39Oxt41Vkbf3la1iGUHFSIKlCNHTqgWseigMnjwDdKmTd4tYvv17csWsWGoQEEOV61cMBEREREFk/STJ+XskSN6iZyhg8qIEcNl4qTJqkXsuLs7M8BBRAGDFrG9+s7JbBFbt25dvcW1kiVLqhax7KASnpjJQURERGHn1I7f5K92rTKn/V06StqXG/VWcpSSkqJaxC5bniSvzRvCFrFEFFDooIIWsSdOiNx77315togtX66c9O3ThwGOMMYgBxERERG5hBax11zTJbNFbIf2uf96SkTkSwhwoINK0aKlZPANw/IMXGBoyrXXXssOKmGuQEEOV1VOMRERERFRcEMHFbSIPXfuqHz1xX1sEUtEAYUOKghwNGp0mQwYeFOeAY569eqpIqMMcBAzOYiIiIgynPntVz1HCHCgg0qFChHyxoJh7KBCRAGDDioIcKCDSrdunSUxMe8WsQmtW0vLFi30EoU7BjmIqMBOYJAkEVEQOS8qSs+JFGvWXCI7dZYiF1XSa8LbnDlzMlvEzn/lZgY4iChgEOBABxXTIrZlyza5BjiwDdkbderU0WuIGOQgogKoUby4uvz999/VJRFRsChaqbJctP5zNZWbNl2iJzwoF/btp7eGJ3RQQYvYhyc+rDqosEUsEQUSOqiYFrHooJJXi9jIYsVUBxW2iCVnDHIQERERhTkEOMaMuTOzRSw6qDDAQUSBggDHoBteka+/3qsCHHl1UImOjpZEtogNC4vmdXM55YZBDiIiIqIwhg4qpkUsOqiwRSwRBRI6qFzV8glJTRUZNDjvAEdMTIz06N6dAQ5yKyI9g54PK+VjyqvLQwcPqUvynXtuu1VOrv1IHqhWWa+hUFb/x1/k5Zdelp49e+o1FC74OUpkH/n9f0SAo1+/XrJt+w5Vg+M/HevpLURE/peaelLum7BCrmhymVzduYeUKFFCb3Gtbp06ctVVV7GDis3Y7ZiQQQ4enPscgxzhhUGO8MXPUQp2KVMf1XOW8y68UMrcMVovBZf8/j+iyChqcBARFZbLG1wmvXrn3UEFLWLZQcWe/HlMOHDo+3ouu9yGrDDIwYNzn2OQI7wwyBG++DlKwe6vdq30XBYUIg1G/vh/PH36tHy6YYPs2LFDryEiKhzooMICo/ZltyBHgWpy4AFdTURERER2h9ax5BoCHO+9/z4DHERUqJDd0bVLFwY4yCssPEpERERhKaJUaT1Hjo4ePSpLli6VgwcP6jVERIEXGRmpWsRWrVpVryHyDIMc5HNHjx3Xc0RERMEhslNnNZHIipUrJRVtDoiICglaxPbt04cdVChfClSTw93QlLz61toBx5L7HnrsP/3UDHnqmWdkeuWLpEs0P5TCAWpyTJk8RUaOHKnXULjg5yiRffjq/xHDVP779ddy/Dh/sCCiwlGqVCm5smlTdlAJInarycEgBw/OfQIBjjF33CHLVq6QSRdVkD7lo/UW70UNGSpFKlaUU8lb5NRHH+i1oaHkvRPUZdqqFXL2l/+p+byYInimQF7kf7pIZMNGcnb/fkl7fZ5aV5ge27VX3jx2nIGOMMTPUSL74P8jEREVFrt9BzHIwYOBAkOP/TtvHSEbNm2SVy+uKk0vLKnWI1gRldBGzXvq75dflAuH3yqRNWpI6gerJfXJqXpLaDABi5THH/M4gOMc5ECgpGSXrnJqxw5JGXqDWleYTp47J28dPCwzMqZhN94oE6c8IlFRUXorhTJ+jhLZB/8fiYiosIRUkCOY8WDANxDg6JvYQ87+9Zc8XqWi1LvgAr0l62TcGzj5L1Kpsu0yOcrOflHOHjokxyc9qNfkjy+CHHbL5DCWHkqRSX8dkJ5dusgTTz+jxlJSaOPnKJF98P+RiIgKC4McNsGDgYLbuHGjdO/RXaoXLSov1YiVSpGReoulSJ1LpUjsxXrJUqx2nFzYp6+ax4m+szPJ38q5A/v1kj2cV6GiVHh7mU8yJ3wR5LCzr/9OlZv+3C21q1eXJcuTWA07xPFzlIJd6ur3JXX643rJEj3vdYmsUVMvBQ/+PxIRUWHx53dQfkaPsLsK5YsJcHQtWcJlgANQcwIn8o7T6e3b9FbJsQ0TAhzFrmqhshUQJDHMOgQcAJfFe/dT65zhdhgq43h9V7AN1ykxarS6LzyGM6yL6nu9mj8vKkpd39Vj4nq4D2SvYLvjvucG18PtMHlzGzyG4/6adY73gWVPXgfz2mIyXD2GJzBUaVWtS+TMrl3S55prJDk5WW8hIiIiIiLyP9bk4C8eXpszZ448PPFhFeCYEltFip/neawMJ87R9z+g5t1lJkTPW5CjJofjuiLly0tU0yvVegOZEcgCiX56thStVEmvFUk/eVKOvfKSnFz2jl5jcTeU5sy+fXLs2Vly+quNatk8rjOz7wgClLlvghRx0d4q7ev/yrF779JLFpOVcXT2s1Kyd99s+wq53Sa3mhxmHV4fDGMpfeNNar2B1yFl8sOZzwsQ+HD1eh1/6001XAj39+9PP8qR22/VWz2379QpeWjnHvnq5L+yauUqadHCu2AJBQd+jlKwYyYHERFRwTGTg4IWOqg8/8wzKsAxLqac1wEOX4hq3kIFOHCCj4AATsqh9G2jpMzj09UJO9ZjgojixeXCQdmHmJSa9GhmgOPs0aMqMGCuj9tHT5ySmfmQtuFT9VhgrosJVJAg47oIcGAb7gPbECgB7CeCD66UHnaLFClbVl3/n08/yXweud3GE5HxdVSAA/eH+zX3jdcBwRhH5vUy18W+nD1yRN2+eMNG6jqnd+5Ul95CZs/sGherQBgyfhAYIyIKBqd++UXPERERUTBikIM8YlrETnz0ERXguLFiTMADHICAArI2kMGAjIdDY+/MXF8kOloO3naLWo8J2RJmmwlaYBjGBW3aqnmc1B/seY3KFsH1D1zXWwUrEBC44Mah6joo7Hlqq3XAezYlRV3XZJdgGAuuC8deeF7dB7YdGtBXZUAAgjLuHBwyUF0fxUwx78lt8mKyXfZ36ajuF1Pqe++qbY6vgxqiojNUkOmiruew784ZJvmB9wcCYXi/IDD2eMZ7B+8jIiK7KBZ7sRTv1VdK3nN/5hRZp47eSkRERMGIQQ7Kk2oRO+IWWbZyhWoRiwBHYcEJOGp3GKj7gcAE/Ptdslo2HIeoFG3YWF0W79BJXaqsDB2sMFAP5J91a9W8yWTIzYnnn5HD99/rsojoqZ9/VpcILLiStumrbAVWMZ+2/v/UvArYONTW8AayMpyf16nNX+u5rNfh/AQr0IPXwXkoz7EpE/VcwSHQgffLpIsqyFPPPKPeRwx0EJFdnF+/vpS5Y7SU7NotcwrGoSpERESUhUEOypVqEdurpyR98IEKcKCwZGFyNXwCGRZw6ofv1WVuil5sdXtJzzjRNsU2HSfD00wG1Lg4u/NPVeBT1cXQk3kcd07//ruey3Lqs0/1nOToSuOp03v36rksjnU4jPN0q1/z2jlCwMUMufGVPuWj1fsH76P2bRLU+4qIiIiIiCg3qL3hasoNgxzkFjpjoEPG2YwT57VxNQo9wJGXc3//refcK1LOKoqjam/c/0COybS39QSGfpSd/aLEvPCSqmOBOh9mci6M6uzsvpzBCMfMDn8rWi1WXZ497Lo40NmUw3rOd9h5hYiIiIiI/I1BDnIJLWI7duoo5Q8flLkXV3HZIjaYqeEqH1hFRN1NeSk58g45v159NY/CnRi2guEr6IKC+WBggj7OIqKsTA9fq1G8uGo5jPcV3l94nxERFRYM8VNFo9FlRU+mEDUREREFJwY5KIeFCxeqjhjojIEOGaEU4HBVRNTdlJeoZlepSwQ4ULgTdTnM0JBitePUpTtFKlXWc1nyW4cjP87syr1rCoq4+gs7rxCRXZw9kmIVjZ7+eOaUtvYjvZWIiIgKG1rIuppywyAHZYMWsWPvGisjossUSotYfzu73xoSgs4iptOII9V1xKE2R25MZxVX9TXOb9xEz7kWWa+enstSTGeFgHMhU187e/CguixWOWewBc/fXcFUX2HnFSKyg6IuAs5EREQU3BjkIAUnmCOGDctsEXtH5YtCLsAB/37wnkpPhgvH3acuDQQ9ytw3QdXmQK0NZ84BAXM/zgGL0k/OzHZdVxkaxS9roAIqBgILJXtb9UBO7dihLv3p5MdWFxkEalAo1cC+lr5tlF7yL3ZeISIiIiIiXyvQWayrKqeYKLjgxHL0yNtUi9jplS8q1Bax/obinsffelPNozhoTNJ7KihRfvESqfD2MpXBgODF8dnPquuAyf5AQADXx3URlEAbWDD3Ez1vgVT8YJ1aTpn8cGZr2+jHn5QSo0areePskSNSLmM9gim4HQIrpqNL6tvW/vkTWu2acecolIrnhAlFVNF5BkNwAoWdV4iIiIiIyFeYyRHmcEKJE8vl772nTjS7RPt3mIIdpL0+TxUGRZtUBDUQlDABhn9/+lEOjb1TBQEMXN9kV+D6RcqWlfTjxyR1znOZgQKsxxAYtHA9OvtZVZvjn3VrVaBDbatbV10P94Pp2LOzVCChaJWq6naA6+K2/h6qYqhx6B+sVkEd8/yxT0emTJRz//yjlgOFnVeIqLBEduosJUbeKSXvuV9NkQ0b6S1EREQUjCLSM+j5sFI+xuoqceig6xaa4WD79u1yw3XXydkD++XpapVU54twhGEj544ezRbY8BbuwxQd9RaGiKSnHA5oC9m8ILsEwRfVacaDIqy+su/UKXlo5x756uS/smrlKmnRImtID9kPP0eJ7IP/j0REVFj8+R3krshobiNIGOQI04MBtO5EZ4vqRYuqlp6h1iKWcqfqjzw+Xc6LipLUZUvk5LJ39BZrW8zri9TwnGOvvaoyWQLp5Llz8vDOPbI69YRMmTxFRo4cqbeQ3fCkisg++P9IRESFxW7fQQUKcuQnqmIX4XwwsHbtWuk/oL9q4RmKHVTIM6UmPSoXtGmrhqucWP9/cip5i5x34YWqACqGr2D9wSEDCyXDBIGOtw4elhkZ092jR8uYu8fJoEGDpHbt2lKmTBmJj49X16tf3+pIU65cOYn2Y9tbco0nVUT2wf9HIiIqLAxy2ES4HgzMmTNHtexkgIOQsRH99OzMehyOEOBA8dT8DsHxlaWHUmTSXwfkP61ay0eff6bXuhdXO04SEhLUfLNmzdRlxYoVJSYmRqKioqRq1apqHfkGT6qI7IP/j0REVFgY5LCJcDwYQA2O5i2ay1XFz5fZNS5mgIOU4r37SdGatfSSyJnffpVTn31qmxohr+0/qDI6fGnY0GHqMjY2VipVqiQlS5aUSy65RK1Dtgh5hidVFAr+XvKOnN6+TS+JnFq7RqLnvS6RNWrqNcGB/49ERFRY/PkdFPCaHAxyBB9mclAw+SDlqNyz9y9p1aixfL7lW702MNoktMkxPKZ69epSokQJDo/ReFJFoQBBjhNzstqGA4McREREnmOQwybC+WDAFB1FRscjsVVYdJRsyWRwDLvxRml0RVMZdfsovcU+HIfH1KtXT2WEhNPwGJ5UUShIXf2+pE5/XC9ZGOQgIiLyHIMcNhHuBwMIdNw1cqScO3RQ5l7MQAfZB4qOPrXnL3nz2HGZ/OBDMmr0aL1FJC0tTXbv3q3mf/zxR3W5b98+2blzpxw5ckSWLV+m1tlN7169pWzZsi6HxyAQgoBIMOJJFYUCBjmIiIgKhkEOm+DBgKiTxb69esr233+XVy+uKk0vLKm3kHHR+s/V5V/tWqlLX4r8TxeJbNhIzu7fH/A2rXbl2D725Zdelp49e+ot3kH9GTh48KDsz3h9U1NT5aefflLrXpn3irq0m2AcHsPPUQoFroIcpvtUMOH/IxERFRYGOWyCBwOWlJQUGX/3XbL8vfdkeuWLpEt0Gb3F3orUuVRKXD9AIuPic3QHObVjh/z77WY58fwzek3++TPIUfLeCVKyS1e1vylDb9Brw9e+U6fklh075fczZ2TVylXSokULvcU/8N4/fPiwnDhxQn7//Xe1btOmTeoSQZJPN3yq5u3GFE11Hh4DgS6ays9RCgVnjxzJmFL0kgRdBofB/0ciIiosDHLYBA8GsmAIwOSHH5JXXntNxsWUkxsrWidMdlXsqhYSPXGKRBQvrpbR7vT03r1yXlRUtoDHmX375NCAvnopf3wV5Cg7+0U5e+iQHJ/0oF7DTA5HJsBRpOJF8mLG+7Bhw4Z6S+FyHB7zxx9/qIyQYBweA/Xr11eXvhwew89RIvvg/yMRERUWBjlsggcDOQVL55WYpPekSJkyKrhxZNZTcuqjD/QWkfMqVJQLx90nUU2vVMupH6yW1Cenqvn88EWQA/tU4e1lzNhw4+u/U+WmP3dL7erVZcnypKAs1olACAIirobHbNiwQbY5tKe0CzM8Bpo1a6YuvR0ew89RIvvg/yMRERWWkApyBDMeDLi2du1a6T+gvwp0jK1c0XYFSZHFUe7xJ9W8uwAGggrRT89WWR1pX/9Xjt17l96SxWRRADIpzmz9WU5/tVEtO3IOcuC+izZsrOYdgysG9i+iVGk5u/NPOfvL/9RyZJOmcmGfviqz5Phr89X1cFsMuSkSe7GkHz/m8rEd9zH9xAk5tflrt9eDM8nfyrkD+9VjFo2vK0UqVpRTyVtc7qddfHrsuIzatVd6dukiTzz9TEi3ZXU1PGbr1q1y9OjRoBoe41g0tXmL5uqSn6NEhY/HNUREVFgY5LAJHgy4Z+fOK45BjpTHH/P6BB4BgdK3jVKZIM6QaXH0/ntUoMBwDnLg9tH3P6DmXWV3RM9bIJE1amQGYMyyM9zWXU0OPMcy901wu4/Hpk9TARTD7OPR2c9Kyd59c9QoQXAlZczt2Z6XHZgWsb17JMrTzz0XtB1GfCm34TFg16KpZniMY9FUfwyPIfIHa8jjHkn/J01O7/xTrSuCNtA6IzBY8LiGiIgKC4McNsGDgdzZufOKOanHyfuRKROznfDnBpkT5Wc9q2p54LYnPlwjZ/ftVdkSJdq1V+udAw4FDXJEDRkqUQlt1LqzR49K2pdWJga2uQpyIFMk5vVFal9w/dQVSWofi9WOk5LXXJu57461Rsw+4kAd2//96Uc59fPPElm3rpxfzzrR/HvpEp8UYvUFdFB5+a8DMjflaI4WseQZ5+ExYIqm2nV4TFzGezghIUHNOw+PQRAkGIcpUWjAZ+f+Lh31kiWyU2eJnpBVQykY8LiGiIgKi92+g1iTgwcDbiG9/r4xoyXpgw9s1XmlxKjRaviHgSABuqmczjixyy2zo/STM9UvcwgeHB4xNFtmg2Pw4vD992YOCylokAPcZWy4Wm/W4aD74JCB2fbRMYvl2GuvZhYrNfuI55WSse+OQZ/yi5eozA4EPo7cfqteW3gcW8ROmTxFRo4cqbeQr5nhMfDjjz+qy2AfHhPo7jEUPpw/zxnkICIi8hyDHDbBgwHP2LXzCjIkSl3fX2UuOMMJ/cmvv87RsaTiB+vU9d1lNZiCpo4BikAHOUxQ4p9PP8nWicUw2x1rjZh9dHxMw91jFwZ0UJm1d78KcASiRSx5BgEPCKbhMaZoqqvhMZ4WTSVyxCAHERFR/tntO8ie7TPINpBGPm36DPWrO+on3PvHLvVrfGFDAAPpxahDgYAAhnAYGKJR+sabVEAAQ1QMExBBxocrZ1NS1GWR8tY/aWEw9TTOHjyoLp2d2rZVXRYpl3MfUWTUrkyL2G2lyzLAYTMIFmDq1KmT9OzZU2XXTJs2TU34osKUvCVZvtz4paxbu05efullNZmMi8KALBQEYGY8NUOG3zJcTSiCiikuPk590eI9Nn78eDUlJSWpCfWGENQxdU+I3Dm1do2eIyIiomDDTA7+4uExu3deQT2LyNZt5IKu12QW+zQZDI4ZGO4KlposDMesh0BncpjHc7eP3t7GDpkcaBH7yF8HpchFF8mSFStZeyGEOH6OOhZNdR4ec+TIEVm2fJlaZzcmWBMbGyuVKlXi8JgwhWD5uRMnpFjsxRJxgVUoN7JGTXUZLHhcQ0REhcWf30H5iTkwk4M8hl968Ss8fo3Hr/L4dd5OUL/i5LJ31Mk8DlgBAQcEP9CmlQIPAY6b/twtl7dvzwBHiEPWl8kKQUYIJmRRICNk7ty56ksPEzJCML25+E2VETJr5iwVaCiszBBkhGB6eOLDKiMEgVyTFYIvbEy9e/fOfC4mKyQ5OVllhaD2CQW/C9q0lZJdu8n59eur4EawBTiIiIgoC4Mc5BWkgC997z0pWq2adNq2Q53EBhKKb6IeR/He/fQa105u/ELPiRRt2DizkCicd+GFes61U1t/0XO5Q/DE11BwFNDxxZXCHErjLbSIRYADLWKfnfsSAxykOA+PGTx4sMfDYzChHkeguRoe07FTR7fDYxYuXMjhMUREZBsmWO/4PUUUyhjkIK/hZPX9NR9Kzy5d1EnsBylH9Rb/K33nWFVvo/SwW7LV23AW1bGTnhM5u/NPdWnqdpzf7Cp16UgNddFDXM7qlpyuOGaEIHjiyPE+8uvUb7+qy8j4OurSWWTtOHXpaSCmsCDAgRouaBH79HPPqV/5iTyFzxgEQho2bJiZFWICIcuWLVOBkF07d2VmhZhACGoHIRDSu1dvfU+Bg7a9Jitk7F1jVSCke4/uKhDSsFHDzKyQESNGqAPMOXPmqEAIhgEiEIIJQ36IiIh8zQTrzfTTTz/pLUShiUEOyhd0L8Cv8/iV/p69f6mT2kA48aFVDA5FRMs+PNlloAMtZtEqFlCLwrRUTfvCql2BbcgIcXThuPvUJTIp/v3gPTXvimNGiGMgBbU6SmfsT26KVa6s59xDVxhAsAQZK45KTXpUdX+BtFUr1KXdoCgtitMiwIETzlGjM/4WDHCQH7gaHmOKproaHoOhdnYYHoPaJDjAdDU8plpsNQ6PKSRnjxyR1NXvZ5uwjogo2DGbkMIRC49mHARTweAXSRyw9y9dSu6ucpEUP8+/sbPST87MDGIAAhOn9+5V846ZFGePHpWjT0zNFpgwLVgBARAoEh2dGTw49tqr2VrPOhceBcfHx2Okp6Wp+8R+nPzhe7XNsfAohtaUuf1ONY/rnMuYjr3wvBqS4qooqOP9I/vkXMb9n5dxQmf227kFrl0Kjx49c0am7t6nWsSi3gKGI1BoC5XPUQQODh8+LCdOnJDff/9drdu0aZO6RGABv4DZkQnU1KtXTxVMrVixosTEWG2+Efwhz6nAxvTH9ZIlet7rQVWbg8c1ROQKvscQSHeEH6LwwwCRr/jzOyg/MQcGOXgw4BP4pRG/SqLzyoSqlaRM0aJ6i38gc6JE9x4SWbNWZmtYA4EBZG2kLXlLFSN1hCElF9w4VKKat8gMbMC/P/0oJ1atzBEkcBXkwH0g88MEIhC4wDCT1DcWSNH4uhKV0EbSMk6KHIMlyMJAYTvA/h17dlbmdc/s2inHJz2othkITjjvI26XumyJKq7qCB1d4O+XX8wW0AFkg7h7DF8yLWJ/P3OGLWLDSDh9jjp2j/njjz8kNTVV9mX8T+7cudPW3WMwdKds2bKZ3WOgfv366hLDgphpZXEV5Cj73IuqEGmwMP+PREREhSUkghzBjEEO30ORPYxBr160qCysdYnfAx1kDz/984/cv2e/FKlQUZasWsUCo2GEn6M5IRCCgMjBgwdl//79Khhixj5v2LBB1e6wGxRzNZkfzZo1U5fVq1eXEiVKSLly5dTwxFDnKshR8p77VceVYMJABxERFSYGOQoZD879A+PG0XVgVa1LpIZThgWFnh0nT0r3X/+QhIwTo2dfnMsAR5jh52j+uBoes3XrVjl69GhQDY/BdMkll6h1wT485tSO3yRl6BC9ZAnGIAcRkTNXw1VQowq1rIiCAYMcXuDBuX+YD1IGOcIDOuug8Cw6XTDtPfzwc9R/chseAyheakdmeEyZMmUkPj5erQuG4TFWbac9aj6Y6nAQEeXFDCl3xCAHBRMGObzAg3P/YJAjvJggB/+PwhM/Rwuf8/AYMEVT7To8Jq52nCQkJKh55+ExCIIwI4yIyHdcBTnWrV2n2rQThaoCBTlYeJScMcgRXhjkCG/8HA0OZngM/Pjjj+qSw2OIiMKDqyAHWqvzc5RCGYMcPDj3KQY5wguDHOGNn6OhBZ/fEEzDY0zRVFfDY8KlaCoRUW4Y5KBwxCAHD859ikGO8MIgR3jj52j4McNjHIumBuPwmIoVK0pMTEy24TEpUx+V9OPH5PSmL9VyZKfOEj3Bf623iYgCYc6cOfLwxIf1koVBDgomAa/JwSAHOWOQI7wwyBHe+DlKrjgWTXUeHnPkyBFZtnyZWmc3P9avo+ey/P3Sq+qSJwNEFKzGjx+fIxuPQQ4KJgxyeIEH5/7BIEd4YZAjvPFzlArCeXgMpp9++kmtK4zhMe/Wqi7Vi5+vlyz1f/xFz1lcDY8xRVM5PIaI7MhVkIPf2xRMAh7kCGY8OPcP/IJXLbaaTK98kXSJLqPXUqhikCO88XOU/C234TEIkviyaKonQQ5POA6PMUVTXQ2PISIKBAY5KNgxyOEFHpz7D15bBjnCA4Mc4Y2fo2QHrobHmKKp3gyPcRXkGP7bH/Jl2km95Fu9e/WWsmXLSmxsrFSqVClb9xgEQhAQISIqKAY5KNgxyOEFHpz7D4Mc4YNBjvDGz1EKJmZ4zMGDB2X//v05hsd0K1lCShcpIpv++Ud+O31GrS9sHB5DRAXVokWLHEWh+b1NwYRBDi/w4Nx/GOQIHwxyhDd+jlKoSUlJkcOHDwdkeIwvDRs6TF06D48BFhckCm/mu9pA8HTZMnsWgCZyJeBBjvw8oF3w4Nx/GOQIHwxyhDd+jlI4chweY4qm5md4TKA5D4+B+vXrq0sOjyEKXc5BDgRFp02bppeI7I9BDi/w4Nx/GOQIHwxyhDd+jhK5Z4qmuhoes2HDhhzp43ZghsdAs2bN1CWHxxAFNwY5KNgxyOEFHpz7D4Mc4YNBjvDGz1EKJeknT8rpvXus+X/S5PTOPyWyTh2JrFFTrfMHV8Njtm7dKkePHg2q4TGORVM5PIbIXhjkoGDHIIcXeHDuPwxyhA8GOcIbP0cplJza8ZukDB2ilywlRt4pF/btp5cKR27DY8C5a4JdmOExjkVTQ2l4DAJU+Bs0bNhQryGyHwRLm7dorpcsDHJQOGCQgwfnPscgR/hgkCO88XOUQsmZfXvl0IDsAY3ITp0lesKDesnenIfHgCmaatfhMXG14yQhIUHNOw+PQRAEwRC7MiePGOJz9913qw4WRHbjKsgxa+YsGTx4sF4iCk0FCnIEMx6c+w+DHOGDQY7wxs9RCjV/tWul5yzBFOTwhBkeAz/++KO65PCY/ElOTpaOnTrqJStgc88990jnzp1ZxJVsw1WQ4+WXXpaePXvqJaLQxCAHD859jkGO8MEgR3jj5yiFGucgR7FmzaXctOl6KXzgxAiCaXiMKZrqaniMP4qmJiUlyfBbhuulLAh2DBo0SK6//noWaqVCxyAHhSsGOXhw7nMMcoQPBjnCGz9HKdSkTH1UXRbLOFGNKFFCzZfsasKc3uEAAG44SURBVP8huIXBDI9xLJoajMNjKlasKDExMV4Pj3EX5HA0ZfIU6dSpE4uxUqHZuHGjdO/RXS9ZGOSgYBPwwqPBjAfn/sMgR/hgkCO88XOUiHLjWDTVeXjMkSNHZNnyZWqd3ZjhMbGxsVKpUiWXw2NQuHHGUzPUfF5wf0OHDmWwgwLOVTCOQQ4KNuyu4gUenPsPgxzhg0GO8MbPUSLyBefhMZh++ukntc6uw2OQAWIKvHqKRUop0FwFOb7c+CUDbhRUGOTwAg/O/YdBjvDBIEd44+coEQVKbsNj7Fw01RUEO1C3g0VKyd8Y5KBQwCCHF3hw7j8McoQPBjnCGz9HKZShpey5jJPqYpWrSETx4not2Zmr4TGmaKodh8egRshtt90m3bp1y1GkFEN6/vv113Lq1Cm5smlTqVChgt5C5DkGOSgUMMjhBR6c+0/zK5pIj39S5caKMXoNhSoGOcIbP0cp1KSufl9Spz+ulyyln5wpUU2v1EsUCszwmIMHD6ohJ3YYHoMipaYjy/fffy9f6SwVo3GjRnL55ZdLsWLF9BqivLmqHcMgB4UDBjl4cO5z99x2q5xc+5E8UK2yXkOhikGO8MbPUQo1aV//V47de5despS85352WAlDKSkpcvjwYZfDY5KTk+Wbzd+oeV9r0byFXFiqlFSrWlVq1Kyp11pQALVjhw7M6iCPjR8/PkfgLnlLsledhIiCUYGCHMGMB+f+wyBH+GCQI7zxc5RCzakdv0nK0CF6ycIgBzlDJkjzFs31km9Uq1ZNzj//fDnw1245nnpSrWvR7App17GzlNDtjA1mdZCnXAU5+J1N4eA8fUlERERETs789queI7KgC0xB9e7VW2bNnCWLFi2SR6Y8ItUqV5Rff/1VOjQ+KZ/NjZAX742QjZu+kccee1Rljjj6dssWWbJ0qRw4cECvISIiR8zkYDTT55jJET6YyRHe+DlKoSb95Ek5MtMav16sdpxElCghxWIvlvPr11friMBVMcfcoJtK06ZNpUmTJnLJJZdk1kNA7Y1XX3tN1q1ZIfsOHleBjcS2apOSclxkxsJ0mf++SOMGdaRj5x5Spkz2ou7M6qDcMJODQkHAC48GMx6c+w+DHOGDQY7wxs9RIgpHc+bMkYcnPqyXcho2dJjUq1dPLrvsMomNjc3ROQUZGCtWrpT3Vi5T2Ro9E0QevDlCqrgptbFuk8ikVyLk1z3npF+/66Rhw4Z6iyWyWDHp2LEj6yxQDuZ72hG/synYsLuKF3hw7j8Icvz83rvSO7qsXlM4YotHStR51oisGmHa/u/kuXOy99QpveRbu/49JZ8fT5U3jx3n/1GY4ucoEYUjx1/HkaXRoUMHlZ1Rt27dXAMNp0+flu+++04WLV7sNnvDHU+yOmrUqJGxPwnM6qBMzkEODJOaO3euXiIKDgxyeIEH5/4zdeJEmTnneb1kD11LlpApsVWkuA56BKN9p07JLTt2yu9nzug19lD74ovly2826yUKJ/wcJaJwtHHjRomJiVEBjaioKL02d8jeeGfJEvnog3c9yt5wh1kd5A3nIAeyjNBWliiYMMjhBR6ch77du3dLWlqaKhDWf0B/uar4+fJIbBWpFBmprxE8vv47VW76c7fUrl5d7r1/gl7rmfp+Gkterly5HCm4FF74OUqh6My+vXIu47vj7OHDcvbgQbUuqnkLKVK2cLMTKTiZ7I35r74q77zztlrnafaGO85ZHQntu+RoK8usDgIGOSgUMMjhBR6chxdUJr/t5pvl7IH98niVilLvggv0FvszdS96dukiTzz9DAMLZBv8HKVQdOzV+ZK2YL5eskTPe10ia9TUS0SeMdkbq5a/Kd9+/4vcnHF4PG5whESX0lcoIGR1TH4lXbbvEenRI1EaN26cLajBrI7wlpKSInHxcXrJwiAHhQu2kKWwgHTOJatWSdWMy+t27JRPjx3XW+zttf0HVYBj2I03yrNzX2KAg4jIz4pUrKjnsqT/k6bniPKG7I1vvvlGJk2eLJMmTZTjh7fJGxMjZOoo3wU4oGMzkY9mR8jY60RWrlwhixe8lK2t7KmM/Vj9wQey7uOP5cSJE3othYvDhw/rOaLwwyAHhQ38krFoyVLp3SNRRu3aqwIIdoWCoff+sUtmHDwsUyZPkWnTZ3g87peIiPLvvBIl9FyW0zv/1HNEucNQ2dmzZ8uE+8ao4SnI3lj1VLoKSPhD1Pki9w2JkA+fiZBzJ3fL00/Pkk2bNqlAi7Fjxw6VUfLLL7/oNRSumjXz0xuRyGYY5KCwgkDB3FdeUYEDBBAQSEBAwU5QYPThnXtkdeoJeXPxmzJy5Ei9hYiI/K1otWp6jshzCCogY2Lq44/LY1Mf81v2hjuX1849qwP7t+Gzz2T16tXM6iCikMeaHBxLHrbWrl1ru4KkpoNKkYoXycw5c6RFixZ6C5H98HOUQtHZI0fk3++/ywx2sBYH5QXZG4sWLZKPP3rXL7U3vPXddpHbn3RfqwPzza+6SurUqaPXUCjavn27NG/RXC9ZXn7pZenZs6deIgoO+Yk5MJODwlanTp1k3dp1cjimooz4c4/89M8/ekvhQAeVTtt2qAPrpe+9xwAHEVEhQBeVC9q0VcENBjgoN8iOeH/1apk4aZJMnzFd/j78S0CzN9xxldWBQIzBrI7wgO6CROGKQQ4Ka3YpSIoOKmgRiw4q76/5kJXQiYiIbAxBg5kzZ8rUKRNUIAEBBQQW/FV7w1vOtTrmzHlePv5odbZaHbv37GGtjhCWmpqq57KULFlSzxGFtgINVwlmTLMmR2lpaTLmjjtkWcaByriYcnJjxRi9xb9QD+Stg4dVfRB0UJk45REWGKWgwc9RIgo3yHz45NNPZfny5Sq4UbuKyOx7I1T2hF2l/Suy7P/SZdxzIhfFlJZefQfl+DGlcuXK0qplSylTpoxeQ8EuKSlJht8yXC9Zvtz4pdSubeM3K5ELHK5ClE+mIOnkBx8KWEFS3D8KjLKDChGRPaE+x6kdv8m/P/4o6SdP6rUUrpDx8Nzs2TmyN+wc4ABkdQzqEiGfzY2QuErHXGZ17N27V2V1fP/993oNEVHwYiYHf4EkJyby3bVkCRlbuaJfCpKiwOhDO/fIVyf/VR1UUB+EKNjwc5RC1dHnnpGTy5foJUv0vNdZoyNMIXsDxcrffe+9oMnecMeTrI7y5cpJ+/btmdUR5JjJQeGM3VV4cE4ubNy4Ue4aOVLOHTooT1erJDWKF9dbCm7HyZMy+o/d7KBCQY+foxSqUle/L6nTH9dLFgY5whOyN5DhsHb1Uvn51z0qe+PO6yNUdkQw275L5IHn02XD9yId2raWhHadsnVggauaNZMGDRroJQo248ePl1fmvaKXLAxyULjgcBUiFxB4QIeTIpUrS/df/1CdT3wB94P7YwcVIqLgcorFGcMKsjdWrFghEx+6X5599hmJuWCPKuKJYp7BHuCA2tVEXp8cITPuEPn4k8/khdlPyc8//6y3Wr7atEnVHjl69KheQ8GOhe0pXDDIQeQGvgj+79MN0rtHoup88tr+g3pL/iw9lJLZQQX3yy8aIiJ7iqxTR89ROEL2xlMzZ8qDE+5WAQAEAhAQCMbhKblxrtWxcOECeW/lsmxtZQ8dPsxaHSGEtd8oXHC4CtOsKQ/ovDL/pZdk4qOPSP/SpeTuKhdJ8fM8jw86dlC5e/RoGXP3OH7JUEjg5yiFKhQbTRk6RIrE15UisRdLkUqVJbJ+fYlqeqW+BoUiU3vjzUWvq+BGQgORx0ZFqKyHcLDiE5Fbn0yXSjGlpGPnRKlbt67eYrnwwgulQ/v2UqFCBb2G7MzVcBV+X1Mwyk/MgUEO/rOTh/JTkNR0UFmdekJ1UBk5cqTeQhT8+DlKRKECmQpLly2T5UvekL8OHlPZG73bh8bQFG/sOSDy6Px0Sdog0qLZFdKuY2cpUaKE3mpp3KiRXH755TlqeJC9jBgxQpYtX6aXLPy+pmDEFrJEftSzZ09ZtXKVbCtdVkb8uUcVEM0NOqjcvuNPFeDA7RjgICIishfUm3jrrbfksUcmqtaqGLaB4RsYxhFuAQ6oUkHkhfER8uK9EbJx0zcy/6Vnc9Tq+HbLFlmydKkcOHBAryE7cg5wEIUTBjmIvOBpQVIEQG7ZsVMOlYuRdWvXscAoERGRzSB7Y/KUKfLolAey1d4Il+EpuUlsK7L5tQi5qu5xl7U6UlNTZcXKlfLNN9/I6dOn9Vqys2FDh+k5otDHIAeRl/IqSOrcQaVhw4Z6CxERBSvU6UjPI4OPggOyNxYsWCAPTrhXncCHe/aGO85ZHa+9/IwkJyfrrRZmdRCRHTHIQZQPKBz69HPPyeQHH1IFRR/btVfV32AHFSKi0JD29X8lZeqj8le7VmpCIdLTe/forRSsTPbG9GmT1Ik7TuDfmcbsjdyYrI6rm/4t77zztix96/VsbWWZ1UFEdsMgB1E+IdAxavRoefmll+XNY8el77YdMumvA6qDyrNzX2IHFSKiIHb24EE5tXaNXrKc+uUXPUfBBpkGjtkbGIaBE3ecwFPekNUxdVSEvDExQo4f3iZPPvmEy6wOtJvdvXu3XkOFhX8DCncF6q4SzNgVgHxp48aNMnXiw3LdDUNk8ODBei1RaOPnKIUy00bWUcl77peSXe3fQY6yILPgu+++k0WLF8u6NStk38HjKnuDwY38SzkuMmNhusx/X6RxgzrSsXMPKVOmjN5qqVGjhrRJSGAHlkKyfft2ad6iuV6yjLt7nGorSxRs2F2FqJCgsGjKiX+kXbt2eg0REQWz81xk451K3qLnKBgge+PV116TKZMeZPaGD0WXyjurY8eOHbJo0SJmFNhIfHy8niMKfQxyEPkAvty3bd8m69ev12uIiCiYFa1UWV1GduosUTfcbGVxXN9frSN7Q/YG6kNMmjxZJky4P7P2BopoYtgF+UbHZiKrnkqXm7uJy1odpzL+Dqs/+EDWffwxa3UQUUBxuArTrMkH5syZIw9PfFjaJLSRZcvYl5zCAz9HichukL2BuhCrlr8p337/izoBH9WXwQ1/W7dJZNIrEfLrnnPSo0eiNG7cONtQlciM+Y4dO7Ige4C4Gq6CGnI9e/bUS0ShrUBBjvyMj7ELHpyTr6SlpUmHDh1UJgckb0nmlziFBX6OEpFdmNob8199VWUV1Kpynkwalq6yDSgwUKvj5aR0mfW2SHzNqtLl2r5SoUL26BJrdQRGUlKSDL9luF6yMMhB4YTDVYgKaMuWLZkBDvj666/1HBEREfkb6j7MfeklmXDfGBXgQPYGhlEwwBFYqNVx35AI+fCZCDl3crc8/fQs2bRpU7ahKqjV8caiRfILOxUFXPXq1fUcUehjkIOogDZs2KDnLGvWZG85SEREwSn95EnVZeXfH3+U1NXvy7FX50va1//VW6mw4eQZ9R6mPv64TJo0URXBRDFMFMXECTcVjstri3w0O0LGXieycuUKWbzgJTWMyMDfbcNnn8nq1avlxIkTei35W4kSJfQcUXDB6BFXU24Y5CAqAAxVmfHUDL1kWbZ8maSkpOglIiIKVqd+/VW1kT1yx62SOv1xSVswX84ePKi3UmFC9sbs2bPlyakTmb1hQ1Hn553VsXvPHlU/hVkdRORrDHIQFQCGqriyefNmPUdERMEq4gK2kbUbnCS/v3q1TJw0SR6b+hizN2yOWR2FIzU1Vc8RhScGOYgKwHmoirF06VI9R0REwSqyRk09l+Xszj/1HAUasjdmzpwpU6dMUCfMOHFm9ob9ucrq+Pij1czq8KOffvpJzxGFJwY5iPIJQ1Kch6oYHLJCRBQaisTX1XOWs1t/1nMUKI7ZG9NnTFcnyjhhxokzszeCh8nqmHizyMeffCYvzH5KBa4MZnX4V+3aGX8AojDBIAdRPuU1JIW/RhARBb8isRdLsWbNpXivvlLynvul9JMz9RYKBHyXOmdv4EQZJ8wUfJDVcVufCPlsboTEVTomc+Y87zKrY9HixfL999/rNURE3mGQgyif8hqS4m4oCxERBY/oCQ9KuWnTpcwdo6Vk124S1fRKvYX8Cb/kr1ixQqbPmJEjewMnyhTcalcTeX1yhMy4w3VWB3y1aZMsX75cjh49qtcQEXmGQQ6ifMBQFAxJyQ2GsqD7ChEREXkO2RvPzZ4t06dNYvZGCEOwalCX3LM6Dh0+rGp1MKvDO/yhjcJdRHoGPR9WyseUV5eHDh5Sl0TeWLt2rfQf0F8vubdq5Spp0aKFXiIKLfwcJSJfQvYGvl/fXPS6+nW/dhWR2fcyuBEO0v4VWfZ/6TLuOZGLYkpLr76DpGrVqnqrpXy5ctK+fXspU6aMXkPumO9nI652nGzcuFEvEQWXgUPf13PZLZrXTc/lxEwOonx48cUX9VzuGEknIgotZ/btlVM7ftNL5CvI3nhq5kx5cMLdKsCBYQzM3ggfrrI63lu5LFsBUmZ15F9CQoKeIwoPzOTgL5DkJYwZbdiooV7KG99jFKr4OUrh4tir8+XM1p/l9KYv9RqRi9Z/rueoIJyzNxIaiDw2KkLVbKDwhKyODzP+1W59Ml0qxZSSjp0TpW7d7F2OkNXRqlUrqVChgl5DjpwzOYYNHSbTpk3TS0Shr0CZHEgdcTURhbL169frOc8kJyfrOSIiCkZn9+3NFuAAZHRQweAXeefsDRSjZIAjvCGrI7GtyObXIuSqusdl4cIFLrM6VqxcKd988022Gh5ERMDhKkReQrV3b3AMJBFRcCtWO07PZTl7OEXPkbfQLeOtt96Sxx6ZKM8++4wanoBhChiuwM4pZFSpIPLC+Ah58d4I2bjpG5n/0rPy888/662Wb7dskSVLl8qBAwf0Gtq+fbueIwpfDHIQeQFDVT7d8Kle8swbb7yh54iIKBgVcZESf3rnn3qOvIHsDaTNPzrlAWZvkEfyyupITU1lVkceYmNj9RxReGCQg8gLq1at0nOe27Z9G4esEBEFsaLVrDPwIvF1pXivvlLynvuleKNGah15BtkbCxYskAcn3CuvzHuF2RvkFeesjtdefoZZHV6oVKmSniMKPq7KY2DKDYMcRF7Ib1bGDz/8oOeIiCjYRNaoqQqNxrz4spS5Y7SU7NpNilaqrLdSXpC9MXnKFJk+bZI6QcWJKrM3KD9MVseVdf5WWR1L33pdBdAMZnUQETDIQeQhZGMgKyM/vK3jQUREFOwcszdwQorhBjhBxYkqszcov0xWxxsTI+T44W3y5JNP5MiYRVYH2s2GY1aH41AeonDFFrJsfUgemjNnjjw88WG95L3kLclStWpVvUQU/Pg5SkSu4Bf07777ThYtXizr1qyQfQePq+wNBDeIfCnluMiMheky/32Rxg3qSMfOPaRMmTJ6q6VGjRrSJiFBihUrpteEtqSkJBl+y3C9ZHn5pZelZ8+eeokouLgbmrJoXjc9lxODHDw4pwJy7kXeu1dvGTdunF7KUq5cOYmOjtZLRMGPn6MUjtA69vTu3XLmjz+k6CWXSFTTK/UWAvxyjuECKA6JoSk9E0QevDlC/fpO5C/rNolMeiVCft1zTvr1u04aNmyot1giixWTjh07hsWPTa6CHF9u/FJq166tl4iCS36CHByuQuRjZcuWVV8kzhMDHEREwevUjt/kr3at5NCAfnLs3rvkxJxn5dSPP+qthOwN1EGYNHmyPDfr8czaGxhWwAAH+VvHZiKrnkqXmzPOed555+0ctTpOZbw/V3/wgaz7+GPW6iAKAwUKcjhWN3WciMIFWsoSEVHoK1I2Z6D6zNbs3R3CFbI35r70kky4b4w6wXSsvUEUKNGlRKaOylmrwzGosWPHDlm0aBGP34hCHDM5iAogLS1NzxERUSgrUrasRMRkT0k4velLPReeHLM3Jk2aqE4scYLJ7A0qTM5ZHYsXvJStAGmoZ3Xs27dPzxGFLwY5iIiIiDxQrGFjPZcFw1jCkXP2Bk4ocWKJE0yiwmayOpKmRci5k7vl6adnyaZNm3JkdbyxaJG6DCU7d+7Uc1mioqL0HFF4YJCDiIiIyAORDRtJsWbNJeqGm6XUpEclet7rElmjpt4aHnCSiF/AnbM3cEKJE0siO2neQOSj2REy9jqRlStX5MjqMO/n1atXh3TrVXb3o3BToO4q7upv5Fbp1C7YFYB8Yfv27dK8RXO9ZJk1c5YMHjxYLxGFLn6OEoUX1DFYsmSJfPDeMvn2+19U9sa4wQxuUHD4brvI7U+my/Y9Ij16JErjxo2ztZXFfPOrrpI6deroNcFp/Pjx8sq8V/SShd/TFG6YyUHkYyVLltRzREREwQ+/dr+/erVMffxxeWzqY8zeoKB0ee28szo2fPZZyGd1EIWDAmVyBDP+Akm+4CqT4+WXXpaePXvqJaLQxc9RotCH7A10o1iV9KZs/W03szcoJDhmdVzTpZM0vap1yGR1mO9mR/yepnDDIAf/6akAGOSgcMbPUQpn6SdPyum9e+TUL79IZMaJUKjV5sCv2h+tXSvLly9Xv3rXriIy+94I9Ws4UShI+1fk2bfSZdbbIhfFlJZefQflqF1RtUoVadOmjZQoUUKvsT/nIEebhDaybNkyvUQUfPJTIoPDVYiIiIg8hG4qh8ffI/u7dJSUoUMkdfrj8u/mzXpraED2xsyZM2XqlAkqwIH0fqT5M8BBoSTqfJH7hkTIZ3MjJK7SMZkz53n5+KPVKsBn7N6zR95+5x35/vvv9ZrgU7s2/3Ep/BQoyIGoiquJiIiIKBSdFxUlpzd9qZcsp7dv03PBDXUIVqxYIRMnTZLpM6ar1psfPhOhTgRxQkgUimpXE3l9coTMuEPk408+kxdmP6UCfcaZM2fkq02bVFbT0aNH9VoisjNmchARERF5qGilynouy6m1a/RcljP79krq6uD54eeXX36R52bPlunTJjF7g8IOgniDuuSe1XHo8GF5Z8kSW2d1pKWl6Tmi8MYgBxEREZEXIjt11nNZMIwFUKvj2Kvz5dCAfnLitXlqnZ2Z7I1HHn1UZjB7g8JcXlkdYOesDud9JQpXDHIQEREReSGyYSMpEl9Xom64WUo/OVNilr8rxSpXUZkbB24YIGkL5qvrpR88IGePHFHzdoTsjadmzpQHJ9wtH364RibezOwNIndZHY5tZYMhq8No1qyZniMKHwXqruKu/kZulU7tgl0ByBfYXYXCGT9HiSxpX/9XUue9LGe3/qzXZIme97rtOq/gZG3t2rXy5qLX1a/VCQ1EHhsVoX7FJqIs6MCy7P/SZdxzIpViSknHzolSt25dvdVSvlw5ad++vZQpU0avKTw8LiWyMJODiIiIKB8wRCVl6qNy7N67XAY4AC1m7cQxewMBDqTlIz2fAQ6inExWx+bXIuSqusdl4cIF8t7KZS6zOr755ptsNTyIqPAUKJMjmPEXSPIFRswpnPFzlMIVhqCkrkjKHJaSm+K9+kqZO0brpcKD+gFr1qyRpGVvM3uDKJ9WfCJy65PpbrM6SpYsKR07dJAKFSroNYG1ceNG6d6ju16y8LiUwhEzOYiIiIg8gKKiqLtxaMRQjwIccPqnH/Vc4UHdgJmzZsmjUx5g9gZRASS2lVyzOlJTU2XFypWFltWxf/9+PZcFgReiYIYSGa6m3DDIQVQABw8e1HNERBTKUHcDRUVTpz+uCop6CsNYEBwpDMjeWLBggTw44V5VPBFFFFFMEen37JxClD9VKoi8MD5CXrw3QjZu+kbmv/Ss/Pxz9uFq327ZIkuWLpUDBzz/rPCXSy65RM8RhQ8WHmWaNRVAUlKSDL9luF6yMC2QwgU/RykcnNm3V449M0tOb/pSr/FeYRQfRfbGq6+9JuvWrJB9B4+r7I3e7RncIPKlPQdEHp2fLkkbRFo3byzNW3fKUYC0caNGcvnll0uxYsX0moJLS0uTarHZU7HiasdJ5cqV5ZNPP9FrLFMmT5FKlSrpJZHq1atLiRIlpHZttlGi4JCfmAMzOYiIiIhyce7oUT2XP4EsPuqYvYF0eqTVI72e2RtEvueY1bFvZ7I8+eQTkpycrLdakNWBwqS+zOqIioqS3r166yXLtu3bcgQ44OGJD6sf5MzUsVNHWbZsmd5KFJoY5CAiIiJyo2ilylL+6eekWLPsRaa9cea3X/Wc/2D8P7I3Jk+ZItOnTVJp9DjxwgkYTsSIyH9Qq2PVU+lyczeRd955W5a+9boKOBqo24FaHZ999pnPanV07txZz3mvILclCgYMchD5WMWKFfUcERGFgojixSV60iP5DnT4u/gofiHG0BTn7A2ceBFRYESXEpk6KkLemBghxw9vc5nV8fMvv8iiRYtk9+7dek3+1a9fX895p01CG2nYsKFeIgpNrMnBseRUAK5qcny58UuOc6SwwM9RCkfHXp3vcWcVRxU/WKeCJb6EX4S/++47WbR4cWbtDWRvMLhBVLhSjovMWJgu8zNOlRo3qCMdO/fIUaujRo0a0iYhoUC1Olq0aKGGqXiDteMoHDCTg4iIiMhDpW+6WaJuuFkvee703j16zjeQvTH3pZdkwn1jmL1BZDOeZHXs2LGjwFkd3bt313Oea9OmjZ4jCl0MchARERF5AYGOUpMe1Uue8VXxUWRvfPPNNzJp8mSZNGmiOoFi7Q0ie+rYLHutjtfnPZ+tAOmpjP/n1R98IOs+/jhftTqaNGmi5zwzbOgwiY6O1ktEoYtBDiIiIiIvXdCmrZR+cqZeypsvio86Zm/ghAknTjiBYvYGkX05ZnWcO7lbnn56lmzatClbUCO/WR3eBjnyk/lBVNhQIsPVlBsGOYiIiIjyIarplVL2uRclIibvFIqCFB/FydAXGzdmy97ACRNOnHACRUT2h6yOj2ZHyNjrRFauXCGLF7zkMqtj9erVqhuLJ5CVgUKinoirHadqeBCFAxYeZcE88kBaWppMzji4dPbrr7/m6Eneu3dvqX5JdYmPj9drREqWLCmdOnXSS0ShgZ+jRJYz+/bK4dG3S/rBrBMWV/JTfBS/7C5ZskQ+eG+ZfPv9Lyp7Y9xgBjeIgtl320VufzJdtu8R6dEjURo3bpytACnmm191ldSpU0evcW/hwoUy9q6xesm9WTNnyeDBg/USUfDIT8yhQEGOYMaDc/IWghefbvhUL3lnyuQpMnLkSL1EFBr4OUqUBYGOI5MnytmtP+s1OUXPe10ia9TUS7lD9sanGzbI8uXL1dCUWlXOk0nD0tWvwUQU/NL+FXn2rXSZ9bZIfM2q0uXavlKhQvassKpVqqhCoSVKlNBrckJB046dOuol97Zt3cZ6HBSU8hPk4HAVIg8lJibqOe8xPZCIKLQVrVRZyj/9nBRr1lyvycnT4qPI3pg5c6ZMfODubLU3GOAgCh1R54vcNyRCPnwmq1bHt19vzFarY/eePfLOkiXySy6fHY6Zw+6w4CiFGwY5iDzUrl07PecdjIFs2LChXiIiolCFoSjRkx5xG+g4u3+/nnMNJzfvr14tEydNkukzpqsTn6RprL1BFMour51Vq2Np0rvywuynshUgxefChs8+c1urIyoqSgUxcsOCoxRuOFyFadbkhfwMWeFQFQpV/Bwlcu/Yq/MlbcF8vWRB8KPctOl6KTuc1KC7wqqkN2Xrb7vVCc+d10eoX3uJKDygVsdj89Jlw/ciHdq2loR2nTyq1ZGUlCTDbxmul7LDj20bN27US0ThgYVHeXBOXvC0uJOj5C3JUrVqVb1EFDr4OUqUO1eBjovWf67nLPhl9pNPP1W1N9BxoXYVkdn3Rqhfd4ko/KBWx7L/S5dxz2V8XsSUll59B+U4jixfrpy0b99eypQpo5YRJG3YyHXWMH9so3DE4SpEXrjsssv0nGfQ1osBDiKi8FT6ppul1KRH9ZLl1I7f9JyocfbPzZ4tU6dMUAEOZG8gbZ0BDqLwheytQV0i5LO5ERJX6ZjMmfO8fPzR6my1Og4dPqxqdXz//fdqGceayNhwhUNVKBwxyEHkBdTWcPcl4kpBipUSEVHwu6BNWyn95Ey9JHJm1y51mfxdskyfMUNm6NobKD6IIoQcnkJEULuayOuTI2TGHSIff/JZjlod8NWmTfLZZ5+peVfBjN69evPHNgp6GD3iasoNgxxEXho0aJCey1t+i5USEVHoiGp6pZR97kWJiKkgp3fsUC0fh944gNkbRJQrT7I6jISEBD2XZciQIXqOKLwwyEHkJU/bwXKoChERGefXry/lnpktf336f9KxU0e5OPqAOnFh9gYR5cU5q+PF2TPkwIEDalv16tXVpXMxUmQeN2rUSC8RhRcGOYi85OmQlVtvvVXPERERiRStVFnmHDksCQ2sExacuBARecJkdaCt9L6Dx+Xw4cOq24r5QS06Olr9wGYg8xjtZYnCEYMcRPngSRGnJk2a6DkiIiLLFX0GqPaQ6KBAROSt3/ZYjTFjY2Plsvr11bzhWAuOBUcpnDHIQZQPrsY9OkKhJ0TUiYiIHHXrZrXZX/1Fvjv4E1EYW/WpSOvmjaVEiRJSq1YtvdZiugCy4CiFOwY5iPIhrzGOffr00XNERERZEADvnXiNOlEhIvLGd9tFZYLFX9pYfZaUKVNGb7FgSDXwOJTCHYMcRPmAMY7j7h6nl3LiUBUiInJnyE23qBOV7VY3WSIij2z8zsoAqxYbK/Xr1VPzzoYNHSatWrXSS0ThKSI9g54PK+VjyqvLQwcPqUsib23cuFG698g53hFfLtOmTdNLRKGLn6NE+ZOWlpZxklJNJt4sclufCL2WiMg91PGp3jNdrunSSVq0bi8DBwxQQ1ac4fOFBUcplAwc+r6ey27RPGv4pyvM5CDKJ3dDVljoiYiIcqOyAceOlsUfsgApEXkmeat1GVs9TmrUqOEywAEMcBAxk4O/QFKBjBgxQpYtX6aXLLt27uIXDIUFfo4S5V9ycrJ07NRRtYNs3kCvJCJyY8Lz6bJpWyUZeNOd0rFDBxXoICLXCpTJgdQRVxNRuHAu7IQ6HQxwEBFRXlAgMK5GNdmwhV1WiCh3KcdF5mecYtW6tJkUK1aMAQ6iPHC4ClEBOBcYzau1LBERkXHb7XfJrLetExgiInc2fGtdxsfHS1xcnLVARG4xyEFUAKoVYK/eaj6udlyerWWJiIiMdu3aqctvf1YXREQuLV6TLo0b1FEtY2vXqqXXEpE7BarJ4W5oSm6VTu0iGMaSnz59Wr766is5nJKi15Adbdq0SV5++SU1dKVz5y56LQWD8847T7VgY9pn/rAmB1HB9e7ZTdKPb5J3prHLChHltOeASJMb02Xw4BukadOmMqB/f72FKDzkJ+bAIIdND84R4Hjv/ffl4MGDeg3Z1dGjR+XJJ5+QkSNHSdWqVfVaCiYs4JU/DHIQFdzatWul/4D+svm1CKlSQa8kItJeWJouk+eLTJ48RVq3aiUNGrBSMYUXBjm8YOeD8+PHj8vMWbPkwIEDeg3Z3Reffy4tM754KDicf/75UqtWLVW8y2Cgw3sMchAVXEpKisTFx8mMO0QGdWE2BxFl13p4usTWbi0d/tNVBg4Y4LZ1LFGoYpDDC3Y9OEeA4/rr+sh/v9EVhojILy6/rJ706nMdAx0FwCAHkW9Mm/qIrHznGfnsZQY5iCjLl9+L9ByfLsOGDpMrr7xSevXqpbcQhQ8GObxgx4NzxwDHxJtFbuvDgx0ifzAHDQx0FAyDHES+sXHjRuneo7t8+EyEXF5brySisPfE6+ny1v+VkjvG3s/jEwpb+Yk5sLuKTTDAQRQ4zRuIJE2LkO9++EmWL31b1cAx1n38sezYsUMvERH5HzpzxdWoIms25vt3JyIKMWn/imox3aBxC7VcrVo1dUlEeWOQwwYY4CAKPAY6iMguoqKiZNCQEeqEBic2RERfJFuXl19+udStUydb1ikR5a5AQQ6kiLiayHMMcBAVHgY6iMguOnXqpC6Tt6oLIgpzy9anS3zNqlKmTBmpXr26XktEnmAmRyFigIOo8DHQQUR2ULt2bWnTqpksWM0hK0Thbs+BjGOTDSKXN2mpMjiqVq2qtxCRJxjkKCQMcBDZBwMdRGQHib2uVyc2Kcf1CiIKS+s3W8FOBD8vq19fzROR5wrUXSWYFWZXAAY4iOyJXVe8w+4qRL6VkpIicfFxMuMOkUFdeGxAFK5aD0+Xi2IbS5dr+0q/vn3VkBUi8lyBMjnQzsXVRO4xwEFkX8zoIKLCFB0dLb0Tr5FVn+oVlAnZLdt3ZXwWbxJZ8YnId9utlP5AuahrxklnxuQPeD647wnPF/7vjtgH7Av2iQoH3tvb94jEX9pYypcrxwAHUT5wuEoApaWlycD+/RjgILKxvAIdu3fv1ktERL435KZbZMP31gk9Wa8DTrwvvT5dWo9Il0GT0+XWJ9Pl6tHp0uTGdOk3Pl1l4fmKCaaEAzxPDo2yn43fWcGuarGxcumll6p5IvJOgYaruMvaCIYOK4FOs0aAY8zo22VZ0koGOIiCgLuhK1c1ayYNGjRQ8+GOw1WIfA/HC9Viq/FYIYP5HDZ6Joi0vFykZFSEbP0zXd773PrFG3z1er2wNF0mzxf5a3X2+zKBj9rVrEtfQqDh8DGRC84XqVJBr/QzZMEgSPTivRGS2FavzID1//wrUq60SHQpvZICBi2kq/dMl2u6dJIWrdvLTTfeyNaxFPbyE3NgJkeAMMBBFFxyy+ggIvKXqKgoGTd2tCz+qKg64QlXCCqYAAeCG5tfi5AXxkeoWiU4Kb9vSIR8NDtCHVcBAhNvfFDw4R7rv9EzThDc8EeAAxBMwH0HKsABO//SM06wD9gXBjgKR7JuIR1bPU7VAWOAgyh/mMkRgF8gt2/fLs1bNGeAgygIYfw30qPHjBkrFSpUYCaHA2ZyEPlHcnKydOzUUQVaEXANRxiGgmE7CRnP//XJERJ1vt7gwhOvp8ust635/70VkXmCjqDH/3aIjOprHXt9/T+R//5kHfZWqyjSPSEiM7CAoMpPv4kaCgPIcICExtYJv6lRYbIeEID68EtrHuuQdZK8LV127Re5tIZIs/oRKliA632RLLL5l3Q5lipSuqRIr/bWNsM8dsVoK8AOuL/9Kda8O44ZGID7WbfJ2gfD+XkCngteh/kZh/E3ZxyyX1kvIvOxzePWq5kzqINtG7ZYz8PAc+3aMus1B2SmbPjWmsc+osbED79afwvAPl33n+y3Ictt09Lll71VZPDNt7PgOZGWn5gDu6sEMMjx2dzsX2pEZH84aMQ4cAY5cmKQg8h/WjRrJN2a7lIZC+HGDKUATwI9JsUfHIdfoJYHTuTfmBghk19Jzxza4sgcm+HE3wQ4HJntpuio4zAWsw776DisxkD2yaoN1vAXZ47HhOaxEXCYOsq6f7PvuXHcFxOQd+fDZyLk8trWvKsCquaxzeM6D2Mxw3gMBJ8QhILaVUTeeiwrkOL893P12ngSvAo3CA6h9kyPHonSqlUrNVSFiDhchYiIiCgk3Hb7XSo7IRwLQ/78u57J4EkmC06UcZIOJlPDEU7+69e0Agu/J0WoE3icmMMDGSf1gBN6bDcQQMDkyY9TOIlHti6ySBBMwPAauP6BdFn8oRUwwOPihB8n94CMi9wg+wT74zjhvg3zfAHvERPgGHudFVzBvuP65vEem5f1eNhmbo99w7IJrriCIIwJcCBghOu/k/Fc8HzxXBE8Gjsz6/4ds0bMa4P9x2uA2wMCJMl6aAZZTPZLfHy8xMXFWQtElC8MchARERHZTLt27dTltz+ri7CSmmZdmmCBJzDkAn7dpS6yQUDjsZFWwAIBEQQ0Zmec3ANOtgvainbGHdZwZAy/QLbErb2t+8bJ/5N3WBkReFwEbAZ0trY5DilxxdTGcJze/sgKJOD5PDTMuh9IO2kFPTAN75mVUYF9uSVjGUzWRX4sXmM9LoIVHZupWQXPF68r4P6R+egMQRS8Nua1x+3N3zWv4TjhBq9z4wZ1VMvYeuyqQlQgDHIQERXAxo0b1bANd1OLFi1k/PjxHk/Tpk2TpKSkbBOGvBFReKlataq0adVCXkrK+oU83JS9UM94wdXJ/ICrcxbSNEM34NAxPZNPqL/h6ILieiaDJ5konkA2hRm+Mv/h7MM8ENRAJgYm5+dZt7qeyScMBTKvaYvLsz9PwOOZbBHUFXHW1MW5en7+rqEOASK8zvUuv1JKliypAh1ElH8FCnJgfIyriYgoXCCIkbwlWeJqu04t3bZ9m7wy7xWPpxlPzZDhtwzPNqHbAhGFn1tH3qFOfAqaaRBOzDAUR5XK5zw5d/S7i1oddoITYMeCqMiKcIYhKyi0ipoaqLlhJlMbI792O7z3ypfWM05qudgfw3HoCrlnhi/VqlVL6terp+aJKP+YyUFEVED4xfXjjz+W3r166zW+0yahjbp/Igo/TZo0UZfrN4dnNkdehTcdbf3Teo1aN1QXHnEVELEbZFLcPMV6bhiO4lgM1ECAo8fd6TLuOes1Q2aFGb6CyVcYsPAf1G7p0La1ahlbs2ZNvZaI8otBDiIiH0C2xdy5c2XWzFl6jW8kJibqOSIKN9HR0TJu7GiZu1yvCBNoX2qg/agn3vvcukRLU0+56rZiN4/orjDOdTgcoVaHuQ4KfKIoqBm+Mm5w7lks3nBVc4MKDq158feLv7SBVK5cWUqUKKG3EFF+MchBRORDgwcPllUrV7kdvuKtbt18+DMcEQWdhLYd1AmQpyf7oQDDMUydhxeX5Z3FgvapJmDRrknOk/p9h3LeBzIkDMegip3kVofDkSliOqKX9do5KmjhWsf7++eknnHyWbJ1WZIjK/Nlw5Z0qRRTSmVtXlq3rl5LRAZaxbqacsMgBxGRj6FOxzvvvKOGmhREp46d1C+5RBS+GjVqJHE1qsmajeE1ZGXsACtYkbRB5IWl6dmCEo7wK7hj+1RXQyowFMD59o7tS8u5qDVR2K17PanD4ezvE3pGw3Netj7rfeOqtourAJAz0w3F1XsQ+2kCTAUtchqO8D5Dq+gGjVuo5WrVPPhDE1GeChTkcBVRwUREFO7wi8wbb7wh4+4ep9d4b+26tdK7d29ZuHCh7N69W68lonCCoXCDhgxXJ0LuTvRDEbqSoGUpTJ4vMmRiuspsUCfVGROyN1Bks+d468QbJ+J3Xu96aAZOwp99K12d5OOkEkETczvUrDAdSRyDHau/SFePUxjBDvydTR0OZLQg08Q8b8fJvB9Kl7QuEcxB0AfPE5d3zbLuw9Qe+fp/1iWY26z/xsoSwv25Y1ri4j2Iv4F5XNzOsV4Ia3Z4z2TaXH755VK3Th1Vk4OICo6ZHEREfoKTE7SFffmll/Ua73264VMZe9dYadiooYwYMULWrl0rKSkpeisRhYNOnTqpyy/0sIBwcVufCCuLIeMkHV1mkNnQeoQ1IXvDDOVAMGTmWPfDOXACjpod6DRy6fXpKmgCuF/HmhWO7VBRxBOPs+FbazmQ0NHEZEfgeZvn7DyZzieDulivEW6D4A2epwni4HVBC13A64fAECQ0sp437v/q0db9uYN2uzPusOZxH9V7Wp1bcDv1mAnu64VQ7pBpE1+zqmoZW706U2GIfCUiPYOeDyvlY8qry0MHD6lLf9q+fbs0b9FcFYPyJN2QiOwDv27h4G/MmLFSoUIFuapZM2nQQB8FewGfA0OGDFEtZX1h2NBh0r17d5XKXlgtZgP5OUoU7nr37CbR522SF8aH38kkMgcwvOS3Penyvx3WumoVUS8iQhrXzcrEcIYTegRCEChJaJxxQv+tyH9/SldZDE3qREjLhpIjMILMDWRxIBsi/uIIlUWBYzdkMIBjdxOzDvftuA+4DxMcce6Ggu+Un34TqRhtZau4Wud4+9w4Pq7Zb7w+KL56Wa0I9Rphu3n99qdkf1xke6AeBJ4nYF+xDtczz9sRXhNkg+A1BDxOzSoRmffnyNXrZeT2GOEErycCUoMH36A6KQ0aOFBvISJHA4e6brWV2wgSBjkY5CCiXPgqyAHIwLj//vtl2fJleo1vYEhM586dpWFDL3on+gCDHESBg2FryOr631sRbk/qKTvHIIerk22iwvTGB1bb3wceeFBat2olV1xxhd5CRI7yE+Qo0HAVPKCriYiIckIR0aefflqmTJ6i17j3xLQnPO7QMuOpGdKxU0dV8HTOnDkqsEpEocV0WsKv9UQU/NAaunXzxqplbK1atfRaIvIF1uQglzDW0ky+gDRKUzCMKJxhaMnIkSNVm1l3EAQZOnSobNy4UdatXaeWPQl4YCjMwxMfVpljLFhKFFoQJO2deI2s+lSvIKKgpYq97hGJv7SxlC9XTtXkICLfYZAjyCF4gCrh/cZnBSUwYTm3lmuBdviYVawKY04LC8aA3jYt++uE6YnX09WXDVnvJ6T3YkLlevIfZF0kb0l22WYW2wwMQUFQ5OOPP1aBEU+7tbBgKVHoGXLTLapQJL+ziILbxu/SpUqFC6VabKxceumlei0R+UqBanK4G5oSDG1kQ6EmBwoWXf+AVdka1cDb6aF83/9q9ZUHVLzOreK4Ozj5N/5a7V2RM5woo3q54xhYBFtQBRzt2QpjLDECPqaaOqqsX1kvQhXO+izZiqTDh89EqAri4Oo5hANk25i+/HhPvTPNngXuTHX4qaP8v3++rMnhSlpamkyePFlemfeKWkbGBjI4coPbfP7557J06VKv63v4smApa3IQBRb+96vFVlPdRNB5hIiCD46J0aHmmi6dpEXr9nLTjTeydSyRjzGTI4it2pAV4MDJKA54MKHy+ubXrIMfBDsC3XJu13494wBBFgR4CiPAgYCFCXAgkIETYwQucPnZyxEy9jpr22PzsgI7rp5DOFi8xnoNEAiy86+Fpm1gKECgYdq0aTJr5iy1PGjQIHWZG9wGLSXnzp0r27ZuUy1qXWWEuIJgSvce3dWJEh43OTnMelISBTH870+Z+KAs/qiobTI1icg76HQDsdXjpEaNGgxwEPlBgYIcyNhwNVFgmBPxsQNy/ppTpYJ1Qv/GRKu9miP8Wu84bAPzptWXOxjqgV/PcenMDG8AVIo2wQKcMGM9Mk4wubo9hkS42hfHgzfz2LgPM4/rth6erh4vLxgqA8hqMZkaju683urD/8BQ63V09xwA+4X9cxwe5Op54T6wHlkAGA6D65l6JLgP5yFGeN6uAgpYZ54vLvF6mSElzs/d8bqYcP/Or2VucHsENhD0uba19Vqs2ej69cU+4Hnhb2CGRuE1Ms/bEa6L7bgu9guXWMZ6R+Y54X5w3+b1wWtjXn+8zlgGZOHgNs6vfbAaPHiwqr+BLAtvYJx+z549ZdmyZWr4C4Il+S1YyoAHkf21aNVWtu8+k3miRETBZcHqdKlbq4pUrVpValSvrtcSkS8xkyOIof85oMe5qxNZnNB3bJY9ewInlxiOgAwPnPRjwjzWYZs76GeOX89x6Qzr8/pl/Z+M/XO+PU5oB0229gXZKMgeMPvyyCtZ+2Ie+/kl6dIz48T3113WdQGtt/IK0GCIDOC+XRU+RZYJMjtcBUCc3TXLev0QDMA+YL+xb9gvx/1An3qsfyDjJHzW29b1DNwHMkv2HbYCCuZvcPXo7IEOzGMd7qd2FWsdXq8H5ljr8BgGTvTNdfFYuF/so/NrmRsT0EhoZPW8x2Ni352DEXiv9bjbel7IJKpVTWTxhxmPOTNdvvgu+3sBt8V1HYcKAZax3vG+cTvc/tH51n3jfs1rg2FZngZrghnqb+CgJ79wWwRL8luwFAEPFiwlsjd8TsTVqCbvfubZZzsR2QeOe3BcE1evqcrgQCYHEfkegxxBrHuC9Ws7TgiHTLSCFDgxdj4pNXCCj5NLnLyiPgiGtWBStUIy1mGb+cU8vwZ1iZABna39wiWGhCCrxBn2EQEKPC4yTjDcRg0fydgXEzhwDkhgHbab604cZj0OamvkBkEeMyQFtRWQJYCMCFcBD3D3HBBIwBcTTrwxHAjrsS9JGRMgoOB8Io5Ahnl+GK6Dx8R94Hl/NDtC7hti/Q1m3GFd/+2Psp6LmcfYa1zXvD64vSM85r3PWdfFvuCxcL//eyvrtXQMnriCvwfeR9gvBDhgRC/rcsO31qWB4U8IbuB1wGNgv7B/5cpYz80RngOui9c/8zm8bD1frHd8voDbX1JJ5Pck67qoJ4PngOuipgv27a6B1uvduqE15MjsL2VnCpYi4JHfgqUIeLBgKZH93Hb7Xeqz3d33PRHZkzmmql+/vsTFeZZ1SRTuUAfU1ZQbBjmCGE68cdJr6icgSIFf81Ew09VQBdPZBCevjgVQMT/gamv+6/9Zl/727c/WJR7XMYMC+9JdlxZw7sSCk13H/a6rM/wwbCEvZkgK4GQeGREIeGA4BIIe7gIejpAxAzd0zR64wUk2Tvhh207r0rg744Tc+fnhBP6tx7IXg23XxNo3RziAhRuvzboubm8CIgYeE0EAxwAFILhzS0/rfn/4NXswwZn50jXvAzD7ZOp0GJt/yXodTJYQ9u/W3jmfg8ng6Nwi+/Pt3V7f94fqIhvH6+ISGR1UMBiOMn78eNm1c5cKePTu1VtvyR0CHv0H9Je4+DjVoQUBExQ+JKLC1a5dO3VpvkuJKDjgmKpxgzpSokQJqceuKkR+U6Agh6uICiYKHJz04tdsZBag/gZ+MUcwwAxV+M/tWUMCTMZDzSo5T0Yrlc+5zp9S9XmSq8e9KNpa55yhYYIfhgk04AQ/LzhZxpAUBBiQWYFAgQlMIOiBgIdzjQtnx1Kty/JlrUtHDWpZl7877Uu9mnrGAQJP6zdbtSvMhKE47jgGB8C8PobjYzreJ6Zl6637dRza4ooJZJjsIMDri9cI7yXHTBB3r4PzcB/HABsyNhz3ywyhcfW3i4vVMxo64ZBvoGghAh6mYOmbi9/0uGApurg4FizNqwMMEfkPhqb1TrxGXkrK/XuLiOwDP6jhmKre5VdKyZIlpUyZMnoLEfkaMzlCBE5IUX8DwxQwXMEM+8BJ5MtOB0GuTtLt5OLKesZJyaiCn+wiYICTcQxJwTARBD1MZgSGz+R3uI6nQSLcP2pR4LFQWyQvyM5w5u71wd8a2R+Ok/PwEVcwDAdfutDkxqzCpZjM7d0VIM0NhpcYzvuFyR3noA75BwqWokOLY8FSTwMeKFiKgIfBgqVEgden30D12V3QYaZEFBjrNlnHUrVq1ZL69eqpeSLyDwY5gpxzDQgDGR6PjbJOvDfrdNbSJa3LP/dal77gj/HAZv/M/vqCu9cJJ9QIeJisjp1/WZfe2nfIsyCAafuLjJvXJ1t1JzCN6us6SOIq08F5GI+BYM1fqyNcTngMd0zxOrwGGPrkPAGyXfL6Wzu/xlUdhvS42iczUeEzBUsR8PCmYKnBgqVEgdekSRN1ie8VIrI/DNHt0La1Kjhas6aLVF8i8hkGOYIUUt7wS7vjcBRnzifD8RdbJ5Tbd+U8INr6p7WuZJS6cMtcz8jveGDzOM73B2b/zP4WFIZHVO/pfjgKTs5/1K/VBbk8f9PNxlWQaP031qWr4SmOTNtf5xoVudVCcf77Or9m5jHRmcQZnltuwQlsM1kVKPJpgi6OEwqfgqnb4e51SHZqZ4jnZzJRXO0Df320JxYsJQoOyMYaN3a0y9pGRGQvyJrFD1fxlzaQypUrq5ocROSZRfO6uZxywyBHkMKv5DiBxAcmWoo6n0QiCPLUIutkuN0V6kISGluXOCByLEqKk038Ug+N61qXzsyJ9HufZ90Oj2FqPriSmuZ+W8uG1v7jcZ33xRywmf0tKFPTAUNE0FXFER73tXet7ArsjzmBd6VjM+t+Jr+Srr6sDDPcw7kwqitmXxwLgeL2qJ8CjsM4TEcYDDcyhVGx/+ZvZeAx8dgYWoIOO+a9gOeGdrUoROv8vI3VX1iPi0CGu2Ei5nmbuh0N43K+Dtg/0+HFkSlkiveoeQ6AgBOGxqDoa355MtyHCoYFS4nsLaFtB/X9lVcHLSIqXCheXymmlMqcvLSum4NtIvIZBjmCFE5I0aEDJ+Y4ucWJLDI70FUFlyikiQMfDDdAdw5AJwwUJ8V6U5QUWQ442QS0HzXdMpw5BlWQFYHHwWOg3aezitHWJYIKrYdbXV6cYf+fvMPaL+d9wWNgP93ti7dQcNRkI6CrinmdsG94LqatLvbHPKbJNMG+meeAYALuB/vXM+P2uI/bpqWreXhgqPV8cmMCN3htzD7g9njtzZAZrEewB8NoTCDIdILB/pvn4ghDk3BdPBe8F7BfeG54b+B+Ua/FlbnLrUsTyHDFBFFMAVLTTca8Dub95tiZxcB7D9fFfuA6eG64Pp4/9hfP0VtmGAz2B68f3jfkXyxYSmRP+L+Mq1EtX3WTiCgw8OMTjuUaNG6hlqtVy+MXMSIqsIj0DHrea+46qeSVPmIH5WPKq8tDBw+pS3/avn27NG/RXBUDzeuXfm/h1/ovkq22nqbrBVxaQ+SyWtnblxr4RR3Fj8zQCWQv4CTXcd9wImqYugn4kEaXDNwO9TIwnOTq5tYwhf0pVjDBwC/16OiB6/VqHyHlSlvDHZAR4vg4nuwLroOhN863BRNAcXxsd3A/m3609svA/jWpE6EyWJyDKs7PwTy2ytzYkvV647Xu2jJ7UAbXwWuCoIbz/SJQgNcRcNtm9a37Nq/v8RMiw3ta94d1yLbAfiALpOmlIv9k/M0RMEAAC8NJDMfrGu2viHAb4EAgBV1d8PxQsDY3eD6o3YF9wGvt+L5D0VvzXjPvG8daG+a6//dN1nvK1Wvm7m9p/v6Or6Xja3ht64hsrXN9DY+P13vMmLFSoUIFuapZM2nQwI8PGETM5ygCHsje8BTqfQwaNEidoGF4DBHl35w5c+ThiQ+rQtruMvKIqPAgmxY/Ut17733S/KqrpHXr1noLEfkLgxxBHuSg0IUgxKFjGe/V0lntcsF8WaLQaH4yIQoKwZTDGfsFju9nrEcWCTI0Pns58PvlLwxyuOf4OYoOK8jSeOONN2Tb9m1qvScQIElMTJR27dqpNF4i8o45xkAGpLugNhEVHmTX/m9PVRkydJR07dKF33VEXspPzIHDVYhs6uffRa4enS6PzreGrwBOuFELA5ABUlhunmINUUFGBTI1MJlWxa6GrVDoY8FSosJRu3ZtadOqWa41soiocOD4DUN2r2zRXhUbZYCDKDAY5CCyKfwihyEp+HJErRJT+wK1MFCXo7CygjBkZOIwK8CCIAxqf2DCeFPU3zA1YCh8+apgKQIeLFhKlLdBNwxT3xXIqCMi+1i/2Qo+xsbGSnyc563ZiahgCjRcJZhxuAoFC1Pfw3BVm6QwmFoZBgrONox336UlWHG4invefI4iO2Pz5s2ydOlSVYzUG8gKSUhIkEaNGqkiqESUHf6/EBwsrGGMROQaCqRfFNtYulzbV/r17StlypTRW4jIUxyuQhSCUFQTxTjNZJdAGfbDcb+wnyx6R+5ER0dLp06dVIeW5C3JMmvmLI87tMx4aobq0NKhQwdVZBH1P4goC/6/eideI6s8r/9LRH6GIb3Ivo2/tLGUL1eOAQ6iAGImBzM5iCgXzORwzxefo/h8xLAUbwuWokPLbbfdxoKlRBrq4SAY+OEzrjurEVFgPfF6uryz/kK5ZdQ90qF9e6lTp47eQkT+VqBMDqSOuJoo9GHcL07+cOk4T1nwmpiCof5it9ee7wXyFoommoKl69au87hgKQIijgVLk5KSWLCUwhqGc8HG71iAlKiwoSA7apXVb9RSihUrJjVr1tRbiCgQOFyFvIYT2B53p6sOG2knRTZ8a/3SjUvKgtfk+SX+Pdi022uP4Sp4X+D94e8AD4UedGhxLFg6bOgwvSV3KFg6/JbhLFhKYQ31aqZMfFAWf1RUnWARUeFJ3mpdIrhRo0YNFeggosBhkIO89sAcq8PH7HsjpEoFvbIQvbA0XRXnDHUIGkx43t7BAwQ55j8cod4faH1LlB84WUOHlmnTpsm2rdvkzcVvetyhBUVN0aGlWmw1dXtkiDDgQeGiRau2sn33mcwTLCIqHAtWp0vdWlXUcMo68fF6LREFCoMc5BUEE9Cmbux1Yosxv/i1avL87N1HQtXOv0Tmvy/yj81/oUPdGbS4xftkxSd6JVE+sWApkeeQDRVX82J59zMGmYkKCzKecQwUV6+pyuBg3SiignFVHgNTbhjkIK/MWmwdOA3v6bpFHT7YEQjByS0md1kHqDhtroMJdRxccb4elg3c5rV3rf3570/pud6PgaCI4/65ug2eA9bjeri+4z64yhhxvs+89sEVvE7m9uZxHNONsWwOWtdtsp6rc90L59fe3X44XgeT89/IPH88b8yv22TdxnDeV2x33Fe47j/W++OpRTzQJt/BgeLgwYNl2bJl8uXGL2XK5CmqAGleUL/j4YkPS8dOHVWGyMKFC2X37t16K1FouW3UGBUQd/6OIKLAWP2FdexTv359iYvL+zuKiHyvQN1V3EVQcutZaxfsruI9nPRePTpdeiaIvDA+K8iBE91bn0xX2R3vfZ7xfPfoDVrStAjVXhRwMvzIK+nqAMwZfv2/rU/W/WIYCrI0nJnrmcd19OK9EaqdqSs44Lt1arpscDhhN2bcITKoi/XY2MfqPdPl5oy3cemSVuEoR477ieveNStdRewd4TrYd9zH1FFZz8kVd88zIeM1m3WXNSQIw1ScXzO8n376LffX3rHKvrt9BcfnhOAI6nxg33/NmMfrZZ6H2easdhWRj2ZHZGshi6rieO2CvdK/ec7srpJTID9Hc4MMjTVr1qjMDW8gI2TQoEHSpk0blTFCFAoQwENB3jcmRkjHZnolEQVMv/Hpkip1pM/1Q6Rf375sHUtUQPmJOTCTgzz2w6/WyW3vdq5P2lUV6ZpWUAMn4DgxhnufyzopXvZ/1sk6AiW43u9JEeoSyzjRNxkDCEhgGSf6m1+LkL9WR6hLcz2ceCKYgccBBDdwHXcBDnj7IyvAgf3CfZnHhnHPZf3qZU7UsZ+bf7b2E/eNA0bA45vMhS+SrZRE7Kd5PtiXxR9a2/OC54v7Q5AAt8PtERTAPmJfTeFSBBjM64nnjP1xDJjhtb+mlbUN94GgBeA5G8h6wb7iNcRjmOePxzavqSM8/32HRT3vUX2t5/7qKuv+zHP931sRKkCE4Ar+to6a1LFuw0r/5G8sWEqUBRlPvROvkZeS+NlLFGg4lsLxW73Lr5SSJUsywEFUSBjkII/9b4d1eXFl69IZTvSR4YGsDZyA48Qc63ACbE6g5y63Lm/tbV0PAQVcYhnMkAzTLaR7G8ksborLmWOtAEq50tY6bzSMswIQOGHHfZnHxkk/HD5mXTp6YGhWFgp+ETPX3a2HePzfN9b+muvhPhFoefIO6/nkZcMW6/a4Pm6H2yPr4aFh1u0RaPAk5RiBivuGWIEP3Ef3BOv2n+kSBAjKIJABD95sZVaY52/2dblTkAJWPmX9EojXC/eB/cFjmecaXcrKgMHfpFn97M/ZvE927bcuifyNBUuJLH36DVQnWnYuVE0UijCkGGrVqiWNdVtnIgo8BjnIY0f+ti6r6qCDsyZ19YyDWjrb4M+91sGWGU5xQXEr8GEmLANOoqHppdYlMiww7AEZDzjJxok1TuRxcu0tnJhf3dwq3Ik6EqamRG7iYvWMVvZCPaOZIEK1italUb6snskDhphA7EXWpYHnaTI3XAVfnA24Ws9oJjBkXm8TlEGAAs/f8bU3/tinZzQEdBxfZ+yTCVohFROvoTmAxt/EMbMEzLL5mxIFEguWUjhr0qSJuly1IWfwmoj8A8epyOTt0La1KjharZrTgRERBQyDHOQxU8sBJ7uuxF+cM3vhynrWutS07F1BUOPAeXKEk3QMicBJNYZi9Mw4qUadDAQ8HE/MvYFAyX9utx5r0OR0VcsCk6saFYAgg7vnapgggnPQxfmE3x1zexOUyK9K5XO+9q7g8Zxfd7y24Pw6OAd0ADVCzFAavIZNbkxXAY+8gkVEhclXBUsR8GDBUgoGCPKNGzva46GTVLiQsYljm8LMvDE/fJjhuOS95K3WcVb8pQ2kcuXKUqJECb2FiAKtQEEOFPtwNREZqWk5f0VChgCGN7ibDGRevDPNWoe6DybggRNzxy4rnsCXNmqD4MsH9SpMnQ9MuG9f82SISWHw9LV3B8EYDENCLQ7U6jABDwSLUECVyO5q164tI0eOVMNR1q1dpwIenjABDxR07N27t+rQkpISBr2rKWgltO2gvvO8/b4MdSag4GlQAccP3lw/PzBEF8c2pg5XYTA/fJjMT/IehiBXiimlAuuX1nWR3kxEAcNMDvKYGT7h7gQebVydmToe1atkDXNBxoAZ3uBqcoZ1qPuAgIcJSKzZ6N2BAL60cbCH4RroIuKYObHqUz2TDwi8AA5+HHlah8LU+HC+PaCzia9coDNSDh/N/lo7T55C5gpqdSDgYYIjpuaHM7zmRHaEgqUIeJiCpePuHqe35A4FS8feNTZbwVIGPMhukH0UV6Oa19+Xoc4EFDCNnZn3a4MC4+b6vghCOLdlp9CAY2P8EHdli/YcqkJkAwxykNfc1YhA7QXHXznwgW/qMaBmBYZ+mJN65+EN+KXptmlWnQd444OMA4rh6Tl+NalZxTqhLuWUAbjvUO4HHu4KleJAA5kIgLoh3jJ1SDb9mPX4+NXH04PKlpdbl85FPxH0wH4hQOAcfPjnpJ7xAoI6CMjgPp0PrrCM1z6vgy7zN3L+25nglQn4GCZw07qhdUlkV6ZgKTq05LdgKQIeLFhKdjNoyHB14sUhCK7hO9HVjwyOlq0veGDDEYZ6miLrFDq+/dm6jI+Pl7i4OBXoIKLCwyAHeczU1/jpN3WRA07IUaMBdTMwdOHS660vcWSAmJoVposKhjeYWg647u26NkZMtNqsOnUg8+L6B9JVwMNcz7Sjve4/2YdWYNwxrufuRB2PjwAL7nPC89b9YT9Rj8Jkh+BAxtu03l7trf1AgVQ8H+wD6n6YgqJ56drSauGKg1DzemC6eYr1PCfqLitgipu+uMy6nrdDYtABBvCcHV97LOO1z6tYKoqwIhMEfzu8dmZf75pl7evYAdn/JiZodGkN65IoGDgWLEXAIz8FS9GhhQVLyQ7wXgZkI5BrphuGK/ihxV3drvzIK6BCwQstm+NrVlUtYy+OdapaT0QF4qo8BqbcFCjIMXDo+y4nCk2m48mHX7k+ILh7oDWcBCfsZugCAhymHSqgdemHz1gFRU0tB1y3Ujmr0Ci2A7IXUPMBEEAw1wOsN0ETXM8EL3C93H4dQYAFAQVkl+D+0E0Ej4lAA+4DBzJvf+T+9q7g8dGWFveL54N9wHN56zFr301HGnfwPHBdx9oWmADPE0NCDLSFxeNgP3EdT7quOMJra4q5Or72WMbfJK/hKsjEQeFRXB9/Y7Ov2B/UOUENFUfm1y/n1rJEwQIBD1OwFB1aPC1YCixYSnaAGjRtWjXzeTZCKDDZh/gedJfpsn6z9bqZ4bqu4AcH/GCAHw8u6mpN+DHF+UcX/Agyc5F1f+jMhutgcoZ9wXWxDfeFrFbcv6t9dPXYJuPS1fWxDtfHfWLCY5gMWldwfdyX2Rdz/7gPf9UnCUZ4LXBchaEqKDaKmhxEVLgi0jPoea+5C2jkFVmxg/Ix5dXloYOH1KU/bd++XZq3aK5qF+R1Iml3+HLDSW1ezwUf+NGlc+9Ogi9P1MrAUBITtHAFX+I4oc/teng8TzuUeLJv+YFfaDB0I7/36+nr4c1zdce8pvndX7OvqPXhal/wWmD8Mg4iUUslmJnnMmbMWKlQoYJc1ayZNGjgFNEJU4H8HLUTZGhgWAoCGd5ARkhiYqJ069ZNBVCIAiEpKUmG3zJcFdwu6HdHKMBJOwL0CFzghwgc0+AHAOdAPSAQgB9R8KMDhpngNqhFZeD7AZmXuA6YHxEM/ACAOmCAQIGrluoogG72yQzpxT7hRw1zv+D82DgWQLaruY7j8wHc18yxEZnf8fjeHjIxPXP/HB8L+2l+SDLHd7g+MjXN/YHzPvE9ZUFQCj9yPfDAg9K6VSu54oor9BYiKiwcrkJeuWug9QX76qrcY2P40svr5Bnb8UWa2wk9YHte1/PmS9aTfcsP7GNB7tfT18MXBxTmNc3v/pp9dbcv5v1hhsgQhRIWLKVg0qaNNdzKZCVQlhu6Wt9RC1bnfG0wfBUn9AgGXFxZr3SAIIAJcOA6CA4gqI/uY8jwBAQOzBAVBCjMegQkTIc3RwgoYFgogi6fvWxtRwACECBxHKaKoqnmsX9PilD3/8L4CBV4MFmfr72b9bw+/NIKwGAbroPrmuu7ajWcvDUrYILnhn3BPuH5mQAJTu5JZO5ykavbt1BZHHXZVYXI55xHjZgpNwxykFdwYjv2OuvLNrcURwpfeF/g/YH3iRl+RBSKWLCUggGyhnonXlOgTmKhqmG8dYmTeWRGODIFxHu3cx2sRxAAQQYEDZAxgeMjwI8IiW2t7AhwLiyeFwwLdcwqcaxBZoapInBiMjIevDkrWwPw4wOGD4Nj8MIMNR7RK/sPFI7Xd7Rfx18R0DDPDfD88Jgqu6WL69cmnJhgWLXql0r5cuVUoIOICh+DHOS1O6+3ovhI3XQ+KKDwhvcD3hd4f+B9QhQuWLCU7GzITbeok2Jvi2uHOgQHTDDCMdMFGROoPQUt3XQI+22PdX10EHOVFdkwzvoO9LQQOWC4i3OGpKvsTlMAHgEWVxmV9Wpalzj5NtkfJivjslo5v5vN9R2ZdbgdMjYcs0jwmKgZ5uqxww2CYVUqXJjx+R0rl16qi9cRUaFjkIO8hi9zpDgidZFfcOQI7we8L/D+cHXQRxQOWLCU7KZRo0bqcuN33mUVhIOOzayTfgw5MEw7UARA3H2X/W+HdYnMRVOU03FC5zJAoMFTtRwyJjzhrkW7ae0OzkXKLyiuZxw4Xt9A9oYJAKHeBDrmocApio4yWGbBkCUEw+o3aqlaxtas6SJaRESFgkEOIiIiP0GVfdTvwHCUdWvXqYCHJ7Zt36YCHg0bNZTevXvLwoULWb+D8g1Dq6ZMfDDXTiLhCifzyKBAMMJ0REE7UGhxed4ZibgtamzkNgWatz8yuLs+iqaiPgiGnwKygfAeunq01WXFMbsjHGHIEqAOR40aNVSgg4jsgUEOIiKiAGDBUipMLVq1VZfmxIyyDOhsBTM2bLGG4eJkHsGL3OpKlS5pXTapaxUVzW3yF3dt6r0NPpjiqK6gPsh9Q6zsXbSbN9kdGMYyY2F4ZwahYG18zaqq81qdeF3ghYhsgUEOIiKiAPJVwVLcngVLyVMIsrVpeYW8+xmHrDhLaGxdYuiBqc3RPY+SOvEXW8GLzXpoSyBV1B2oTZ0NZ7v265kMzkNR/tyrZxwcOqJn8oCgj8nuAFctccMFAkl4/evUv0JlcCBrj4jsg0EOIiKiQuJcsPTll172uGDpK/NeySxYig4tLFhKeUnsPTBHK1KyinuaIRmoPwFdW+aegdFU15hE1oerTAjUrsCQDled6NxlYHgq/hI9k8HV/b/9kRWoQRFwMxTFDJv5v29yBrlcBb6eeN2qLcJOeq6t/sJ6zerXry9xcZ7VXCKiwClQkGPRvG4uJyIiIvIOAh49e/bMLFiKDi2eFixFhxbHgqXbt7MyIOXUrl07dbnhW3VBDhIaZQU1EBBw1dXEEQptm8DBzVPSZcUnVrADdT0QIEDtCvzSH6OzLhxhPYIH+Q0gYN9m3GHNo6OZeWxMeGyTYXGXQ2vYa1tnZV/gOrguCohi/jMX8dFSuhMq7h/dVVSrVP38Zi22TvALo96IXaAlc+MGdVTL2HrsqkJkO8zkICIishmkPqNDi2PBUk8CHqZgafMWzTMLlrJDCxl4X/VOvEYWr8n5y324Q+0JtGQFExDIy0PDItSJPoqW3vpkurQeYXVVMe1nX7w3IltdDzMsBhA8wJRfg7pk1ccwj40Jj43ngSElKKpq4PmZ6+M6uC4KiGL+rcdyPt8br7WeGyC7Bdc1zw/ZK8gSwfMPRwj24DVo3LSVlCxZUsqUKaO3EJFdRKRn0PNhpXxMeXV56OAhdelP+EUNB5yfzc3+hUNE9oeDGRzYjRkzVhUXu6pZM2nQIONokQL6OUqiam9s2bJFNmzYoDI3vIGaH3369JEmTZqojBEKXyhci7oum18LzzbwGKqDtqoXnG9lYzhC0dF//rXqWDh2HEFHmt0Z21zdBnC7r/+nFzKgZgaGlLjKBsHjm0ya6lWsOhe57RPgewic9wtcPXbDePcdU3BfP/1mzePxq1W09tPdYzjfP9SraXWlCVcYioRMncmTp0iH9u2lTp06egsR2UWBghwDh7quOBQMQ1YY5CAiTzDI4R6DHIUHAY/PP/9cli5dqoqRemPY0GHSvXt3adSokSqCSuEF7x3UccGv+igiSUSeQ8DrP7enS2zt1tLhP11l4IABasgKEdkLh6sQEREFGQQnWLCU8gPvnXFjR8viD/UKIvIYWjBjeFL8pQ2kcuXKDHAQ2RSDHEREHoqJiZG6devqJSJ7YMFS8lZC2w7qRA1FJInIcxu2pEulmFKqvs2lPB4gsi0GOQLIVW9yIrI383+LE8lrunVT/fCJ7IoFS8kTCGrF1aimTtiIyDOonYJCrVe2aK+OBapV4xh0okBAiQxXU24Y5AiA2rVrS++ePVQVbf5qQhQ88P+K/9srr2gsgwYOZICDgkrDhg1l5MiR8vHHH8uqlatk3N3j9JbcfbrhUxl711hp2KihjBgxQhWqTElJ0VspVAwaMlydsKHGABHl7dufrcv4+HiJi4vjMQGRjTHIESBPPzNbBTrQeouBDiL7w/8p/l8R4Hjr7aVSqpSLMvlEQQA1GPDL/fjx42XXzl3y5uI3VbcVT6CoKTpxxMXHqdsjQwSFKyn4ofgsfMGSLEQeeSkpXeJrVlUtYy+OjdVriciO2EI2gF0BcGA4ZvTtsixppepfjp7lRGQ/DHB4ht1VghuyMz799FN54403VPaGN5AV0rlzZ5UtQsGrd89uEn3eJnlhPLusEOUGrXSb3JgugwffIE2bNpUB/fvrLUTkb+6GpuTW0ZWZHAGEX9OY0UFkbwxwULjwZcFSdmgJToNuGCZJG6wTOCJyb/1m6zfh2NjYjM/J2mqeiOyLQY4AY6CDyL4Y4KBwVdCCpQh4sGBp8GnTxmo7bE7giMi1uctFOrRtrVrGsssakf0VaLhKflJH7KKw06w5dIXIXhjg8B6Hq4Q+BD02bNigMje80Sahjdx6663SpEkTlTFC9jX+3jGybfMb8k7GsQgR5fTddpGrR6fLsKHD5Morr5RevXrpLUQUCByuEkSY0UFkHwxwELnmWLAUHVo8LViKGh+mYCk6tLBgqX11T+wnGzI+A3EiR0Q5rdmYLlUqXCjVYmNZh4goSDDIUYgY6CAqfAxwEOXNdGiZO3eubNu6TXVoQbaGJ9ChpXuP7hknCNVk2rRpKuBB9tGoUSN1ufE7DlkhcoYWy2i1XL9RS9Uytlq1anoLEdkZgxyFjIEOosLDAAeR9zD8pFOnTtkKlnoa8MCwFwQ8WLDUPnAcghosk+dbJ3RElCV5q3WJOhw1atRQgQ4isj/W5LDJWHLW6CAKLAY4Co41OcgRAhbI0kBLWhQk9RQCJImJidKuXTtVAJUCD387FI/l8QdRdrdNS5f/7akqQ4aOkq5duvAziihIMJPDJpjRQRQ4JsDRrcvVDHAQ+QjGqo8cOVIFOlC/Y9zd4/SW3KF+x9i7xkrDRg1Vh5a1a9dKSkqK3kqBgL9dm5ZXyLufccgKkZFyXFSL5Tr1r1AZHAxwEAWPAmVyBDO7/gLpmNFBwaNM2Uvl6JH/6SUKBggoIrCIACPlDzM5KC/4TtuyZYu8/vrrqjaHN1DkdMiQIapmBP9P/Q/tfxFs+t9bERLNuC+RvPFBuox7TuSBBx6U1q1ayRVXXKG3EJHdMchhw4NzHBSuWbNGL1EwWP9FMWnX8rReomDQuXNnnjgVEIMc5A1kZ2zevFlefPFFlb3hDWSFJCQkqFoe5B+7d+9W2TQv3hshiW31SqIw1m98uqRKHelz/RDp17evlClTRm8hokDKT4kMBjl4cE4FtH//33LXhA3y0L1XSp34GL2WKPTxc5TyCyfU69evlxUrVngV8IirHSeDBg1SwQ62cvS9EcNvlIM73pN3pkXoNUThCS2Vrx6dLsOGDpMGl18uA/r311uIKNDyE+QoUE0OPKCriSic/PebPeoy+Ye/1CUREeUOY9sHDx6sOrSsW7tOdfdAACMvKGj68MSHVZFM1O/AEAsETMg3+vQbKBu+F9lzQK8gClOmpXK12FhprNssE1HwYOFRogLauGmfutzwhXVJRESeY8FS+2jVqpW6XLWBBUgpfKGV8uIPRTq0ba0KjlarVk1vIaJgwSAHUQFgqMrOPf+o+WPHT8svWw+qeSIi8h6GoYwfP1527dylAh4oPuoJBDz6D+gvcfFxMmLECBXwQH0r8g7qFI0bO1qd4BGFq+StItv3iMRf2kBq1KghJUqU0FuIKFgwyEFUAGaoisEhK0REBYeTbQQ85s6dK9u2bpM3F7/pccADXVwQ8KgWW02mTZumMkQY8PBcQtsO6gSPrewpXKGVcqWYUmpYXY3q1fVaIgomBSo86q7+Rm5FQOyCBfPIF+5/eH1mJgeULlVM5sz6j14iCm38HKVAY8HSwGjRrJF0a7pL7hvCAqQUXlKOi1x6fbr06JGohm8NGjhQDVkhouDCTA6ifHIcqmJwyAoRkf84Fiz9cuOX+SpYikAHC5bmbtCQ4TLrbas2AVE4+fZn6zI+Pl7i4uIY4CAKUmwhy18gKZ/eff8XeWv5b3opy7VdYuX6PpfpJaLQxc9Rsovk5GRZs2aNzHhqhl7jmTYJbVSGR5s2bSQ6OlqvJQSAUND1jYkR0rGZXkkUBvqNT5d9qbFy07DbJLFHD6lQoYLeQkTBhEEOHpxTPjkPVTE4ZIXCBT9HyW5Qe2PLli2yatUqeWXeK3qtZ1Dzo0+fPipFHTVBwl3vnt0k+rxN8sJ4Dlmh8IDWyU1uTJfBg2+Qpk2byoD+/fUWIipM+SmRweEqRPngaqiKwSErRESFwxQsRcFRFiwtmEE3DJOkDdaJH1E4MK2TY2NjJa52bTVPRMGJhUf5CyTlg7uhKgaHrFA44OcoBQsWLPVeSkqKask74w6RQV2YzUGhr/XwdImt3Vo6/KerDBwwgK1jiWyCmRxEAbJx0z4959qGL3LfTkREgcOCpd5DjZJhNw2Sucv1CqIQ9t12Ua2Tq9eMl/LlyjHAQRTkGOQg8lJuQ1UMDlkhIrKn2rVry8iRI9VwlHVr18m4u8fpLblDwGPsXWNVQc7evXtLUlKSynYIZd0T+6kTP5wAEoWyNRvTpVJMKalRsybbTBOFAAY5iLz0328yjvg8kPzDX3qOiIjsCCcz48ePl107d8mqlatk2NBhekvuMORl+C3D1XCOESNGyNq1a0OyfkejRo3U5cbvwrJGPYUJtEpGy+QGjVuo5WrVqqlLIgperMnBseTkJXddVZyxywqFOn6OUihCdsbmzZtl6dKlqhipN5AVkpCQoIIDodKhZc6cOWrIzu9JERJ1vl5JFELWbRIZNDldxowZK1dddZV07NBBbyGiYMVMDiIveDJUxeCQFSKi4INaFJ06dZK5c+dK8pZkmTVzlrRJaKO35m7GUzOke4/u0iHjJAnBgeTkZL0leKEWCSRvVRdEIWfZ+nSJr1lVKlSoIHXi4/VaIgpmDHIQecHToSoGh6wQEQUvXxUsRcAjWAuWYkhPm5ZXyILVHLJCoSfluKhWyZc3aSnFihVT//NEFPwY5CDyQl5dVZyxywoRUWhwLliKgIcnTMDDFCxFh5ZgK1ia2HugOhHECSFRKFn9hRW8w//3ZfXrq3kisheUyHA15YZBDiIPeTNUxeCQFSKi0IPsBgQ8TMFSTzu0oGApOrQ4FiwNhoBHt25WrbUN36oLopCx6lORxg3qqJaxtWrV0muJKNgxyEHkIW+HqhgcskJEFJpQXBTDUdChZdvWbfLm4jeld6/eemvuUNS0/4D+KuAxbdo0lSFi1w4tqFPSO/EaWbyGQ1YodKA18obvRRo3bSUXXnihlClTRm8homBXoO4qwYxdAchbnnZVccYuKxSq+DlK5BqyM95//31ZsWKFyt7wBobBIHCCbBE7QdYJgjKfzY2Q2uywSSHghaXpMnm+yOSM/7kO7dtLnTp19BYishN3Q1Ny6+jKTA4iD+RnqIrBIStEROEFmQ+mYCk6tHhasBTsWrC0VatW6nLdJmZzUPBL+zfjBOnD8+SaLp1UwdFq1Ri5IwolDHIQeWDvX39LsyYxOSZXXF0v7eRpvZWIiMIJujWEQsFSDM0ZN3a0LP5QryAKYmiJ/OuecxJbPU5q1KihanIQUejgcBWmWRMR5Qs/R4nyB7U3tmzZIhs2bJAZT83Qaz2Dmh99+vSRJk2aqIyRQEpOTlZZJknTIqR5A72SKAhNeD5dPvhvKblj7P3SsUMHFeggotBRoCBHfsbH2AUPzomICoafo0QFh+yMzZs3y9KlS1UxUm+gq0tCQoI0atRIZVoEQotmjaRb011y35AIvYYouKAV8qXXp0uPHolqGNaggQPVkBUiCh0crkJERERUSJCN0alTJ5k7d67q0DJr5ixpk9BGb80dskC69+gu1WKrqfodyLTwt0FDhsust60TRaJg9O3P1mV8fLzExcUxwEEUgpjJwV8gqQBc/Q8Ew/ufyBf4OUrkPyg4umrVKnnjjTdUfQ5PocDpoEGDpHv37qoeiK9hv1An5I2JEdKxmV5JFET6jU+XVKkjfa4fIok9ekiFChX0FiKyI3ZXISIiIgoBdi1Yiv1q06qZLFvPLisUfPYcENnwvUi9y6+UkiVLMsBBFKIY5CAiIiKysYYNG6qAx66du2TVylWqFocnPt3wqYy9a6zExcfJiBEjZO3atT4JeNw6cowkbbBOGImCyaoNVnAuNjZW6terp+aJKPQwyEFEREQUBFBctEWLFjJ+/HhVv+PNxW+qbiueQFHT/gP6q4AHbo8MEXR5yQ90doH1m5nNQcEFLZA7tG2tWsbWrFlTryWiUMMgBxEREVGQcS5Y+vJLL3tcsPSVea9kFiydNm2a1wVL8djDbhokc5frFURB4LvtItv3iFSvGS/ly5VTgQ4iCk0MchAREREFMQQdevbsKcuWLZPkLcmqQwsKkHoCHVo6duqoMkTQoWX79owzQQ90T+ynThhx4kgUDNZsTJdKMaWkRs2aaggYEYUudldhVwAionzh5yiRvSFDA8NSvO3QgoyQxMREadeundsOLRjq0qHtVdK/7R65rU+EXktkT2n/ilTvmS5XX91Z2rRpIzfdeCNbxxIFCXZXISIiIiLFFCz9+OOP81WwFB1a3BUsRX2QQUNGyOT51gkkkZ19oUdk1a1bV+rWqcMAB1GIK1AmRzDjL5BERAXDz1Gi4IMMjM8//1yWLl2qipF64//bu2MXO4o4DuBzfZRwSSkGOwtRggERI9pGIeQaQfCwSBpJKyLExkJIbxEbG1G4zk7LkPwD6dJrolWwEPvTebzAY5n33NvZ2dv77ecDA3f3ZrO7kFve+95vfnPr5q10/fr1dPny5VXIkStF8lKXn+/upbdfX0+CGfrs7nF6/MdL6dObt9MH165trVAC5kclBwAAW+VwYqyGpdl7V99KP/xilxXm66+/02rL4zfefGdVwSHggPhUcvgLJBVKyeJZ6EkDY/AchTiePn2a7t+/n+7du3ei/h0XL15Mz549S4+P9tL+i+sfwoz8+Otx+vzblO7c+Sq9e/VqunLlyvoVICqNR705p4KQgyXzHIWYhjQs/e6LvXTj/fU3MCMffXmc/kmvpo8Pb6WDGzfS+fPn168AUQk5vDmngpCDJfMchdhy/45Hjx6lhw8frraa3Wb/hZReeyWlb27bZYV5+e3PlD75+njVeDdvkwwsg5DDm3MqCDlYMs9RWI6ahqVw2p78/mTVjwZYBiGHN+dUEHKwZJ6jsEx5O9kHDx6slrPk7WazSy9fSkdHR6uvYU4uXLiQ9vf3198BZ82QzEHI4c05FYQcLJnnKPC8Yem5c+fSwcHB+qcAMI4hmYMtZAEAGCRvx3l4eCjgAGA2hBwAAABACEIOAAAAIAQ9OawlBxjEcxQAgJb05AAAAAAWq6qS4yzzF0iAOp6jAAC0pJIDAAAAWCyVHP4CSYVSsngWetLAGDxHAQBoaUglh5DDm3MqCDlYMs9RAADmxu4q3pxTQcjBknmOAgAwN3pyAAAAACEIOQAAAIDZyZXzpbGLkAMAAAAIQcgBAAAAhGB3FQ3zqFAqldJ4lKXwHAUAoKVtS1N2feZSyQEAAACEIOQAAAAAQlj8chUA6liuAgBAC0OWq1SFHENOOBdCDoBxCDkAAGhByAEAAACEoPEoTCz/0nUHAAAAp0MlB1Qo/Q74/w8AAHA6VHIAAAAAISx2dxUYg0oOAACA+VDJAQAAAISgkgMqqOQAAABoY0gfUJUcAAAAQAhVIUdOVUoDAAAAYGoqOQAAAIAQhBwAAABACFWNR7ctTdF4EQAAAJiaSg4AAAAgBFvIAgAAACGo5AAAAABCUMkBFUp9afSkAQAAqDekD6hKDgAAACCEqpAjpyqlAQAAADA1lRwAAABACEIOAAAAIISqxqPblqZovAgAAABMTSUHAAAAEIKQAwAAAAhByAEAAACEoCcHVCj9Dvj/DwAAUG9I5qCSAwAAAAhByAEAAACEULVcBZbOchUAAIA2LFcBAAAAFkslBwAAABCC3VUAAACAECxXAQAAAEIQcgAAAAAhWK4CFeyuAgAA0IbdVQAAAIDFEnIAAAAAIQg5AAAAgBCEHAAAAEAIQg4AAAAgBLurAAAAALMzJHOoCjkAAAAAWrCFLAAAALBYKjmgQilZtFwLAACgnuUqMDEhBwAAwHxoPAoVhBwAAADzoScHAAAAEIKQAwAAAJidXDlfGrsIOQAAAIAQhBwAAABACEIOAAAAIAQhBwAAABCCkAMAAAAIYe/4P+uvT2xbV9Ofvv9w/RUAAADAyQ3JHFRyAAAAACFUVXIAAAAAtKCSAwAAAFgslRxQoZQs6kkDAABwOjQehQpCDgAAgPmwXAUAAAAIQcgBAAAAhCDkAAAAAGYntwcojV2a9OQo6fYpKB3bZ07J5nFDjsnGPNeUc7pa3ldXn3NNOaek1X3t0j0eAACAk9v2WWzXZy4hx9qY55pyTlfL++rqc64p55S0uq9dnh8/5jW2mJP1ucYhx2R9rqerz7nGmpPVXuOY91XS51wnnZOV5g25xpb31TXWPfS95lbX2DXkmKzP9Z10Tlaa1/Iau4aca8x76HPNU91XVnuuPveQleaNNaek9r6yPsf1PabP9Yw1p2vIfWWtzjXlnJJW91XS51xTzulqeV9dfc415ZySVvdV0udcU87panlfXX3ONeWcTd35m6qWq+R/uDQAAAAApqYnBwAAABCCkANGopIJAADgdDUJOTaXrmz74Dd0TmlsKr1eGl2lOaWxqfR6HptKr+exqfR6HptKr5dGV2lOaWwqvV4aXac9pzQ2lV4vja7SnOcDAACA6fzf57CqxqMAAAAAc2G5CgAAABCCkAMAAAAIQcgBAAAAhCDkAAAAAEIQcgAAAAAhCDkAAACAEIQcAAAAQAhCDgAAACAEIQcAAAAQQEr/AhJSs2COxYxPAAAAAElFTkSuQmCC;" parent="C1SsH0Z7lR1WdP4EDRss-1" vertex="1">
          <mxGeometry x="460" y="970" width="311" height="245.12" as="geometry" />
        </mxCell>
        <mxCell id="DqVOMwrkXYOldMzxp8PN-20" style="edgeStyle=orthogonalEdgeStyle;rounded=0;orthogonalLoop=1;jettySize=auto;html=1;exitX=1;exitY=0.5;exitDx=0;exitDy=0;entryX=0;entryY=0.5;entryDx=0;entryDy=0;" parent="C1SsH0Z7lR1WdP4EDRss-1" source="DqVOMwrkXYOldMzxp8PN-0" target="DqVOMwrkXYOldMzxp8PN-14" edge="1">
          <mxGeometry relative="1" as="geometry" />
        </mxCell>
        <mxCell id="DqVOMwrkXYOldMzxp8PN-0" value="Visualização" style="rounded=1;whiteSpace=wrap;html=1;" parent="C1SsH0Z7lR1WdP4EDRss-1" vertex="1">
          <mxGeometry x="280" y="540" width="120" height="60" as="geometry" />
        </mxCell>
        <mxCell id="DqVOMwrkXYOldMzxp8PN-9" value="" style="edgeStyle=orthogonalEdgeStyle;rounded=0;orthogonalLoop=1;jettySize=auto;html=1;" parent="C1SsH0Z7lR1WdP4EDRss-1" source="DqVOMwrkXYOldMzxp8PN-1" target="DqVOMwrkXYOldMzxp8PN-0" edge="1">
          <mxGeometry relative="1" as="geometry" />
        </mxCell>
        <mxCell id="DqVOMwrkXYOldMzxp8PN-1" value="Aplicação de Visualização" style="rounded=0;whiteSpace=wrap;html=1;" parent="C1SsH0Z7lR1WdP4EDRss-1" vertex="1">
          <mxGeometry x="280" y="620" width="120" height="60" as="geometry" />
        </mxCell>
        <mxCell id="DqVOMwrkXYOldMzxp8PN-27" style="edgeStyle=orthogonalEdgeStyle;rounded=0;orthogonalLoop=1;jettySize=auto;html=1;exitX=0.19;exitY=1;exitDx=0;exitDy=0;exitPerimeter=0;" parent="C1SsH0Z7lR1WdP4EDRss-1" source="DqVOMwrkXYOldMzxp8PN-5" target="DqVOMwrkXYOldMzxp8PN-7" edge="1">
          <mxGeometry relative="1" as="geometry">
            <Array as="points">
              <mxPoint x="490" y="824" />
              <mxPoint x="490" y="824" />
            </Array>
          </mxGeometry>
        </mxCell>
        <mxCell id="DqVOMwrkXYOldMzxp8PN-5" value="Métodos de Otimização" style="whiteSpace=wrap;html=1;shape=mxgraph.basic.pentagon" parent="C1SsH0Z7lR1WdP4EDRss-1" vertex="1">
          <mxGeometry x="520" y="722" width="110" height="102" as="geometry" />
        </mxCell>
        <mxCell id="DqVOMwrkXYOldMzxp8PN-24" style="edgeStyle=orthogonalEdgeStyle;rounded=0;orthogonalLoop=1;jettySize=auto;html=1;exitX=0.5;exitY=0;exitDx=0;exitDy=0;entryX=0.5;entryY=1;entryDx=0;entryDy=0;" parent="C1SsH0Z7lR1WdP4EDRss-1" source="DqVOMwrkXYOldMzxp8PN-7" target="DqVOMwrkXYOldMzxp8PN-1" edge="1">
          <mxGeometry relative="1" as="geometry" />
        </mxCell>
        <mxCell id="DqVOMwrkXYOldMzxp8PN-7" value="" style="rounded=0;whiteSpace=wrap;html=1;" parent="C1SsH0Z7lR1WdP4EDRss-1" vertex="1">
          <mxGeometry x="230" y="710" width="220" height="220" as="geometry" />
        </mxCell>
        <mxCell id="DqVOMwrkXYOldMzxp8PN-33" style="edgeStyle=orthogonalEdgeStyle;rounded=0;orthogonalLoop=1;jettySize=auto;html=1;entryX=0.5;entryY=1;entryDx=0;entryDy=0;startArrow=classic;startFill=1;" parent="C1SsH0Z7lR1WdP4EDRss-1" source="DqVOMwrkXYOldMzxp8PN-8" target="DqVOMwrkXYOldMzxp8PN-11" edge="1">
          <mxGeometry relative="1" as="geometry" />
        </mxCell>
        <mxCell id="DqVOMwrkXYOldMzxp8PN-8" value="Armazenamento de Soluções (Melhores e outras)" style="rounded=1;whiteSpace=wrap;html=1;" parent="C1SsH0Z7lR1WdP4EDRss-1" vertex="1">
          <mxGeometry x="240" y="840" width="200" height="80" as="geometry" />
        </mxCell>
        <mxCell id="DqVOMwrkXYOldMzxp8PN-25" style="edgeStyle=orthogonalEdgeStyle;rounded=0;orthogonalLoop=1;jettySize=auto;html=1;exitX=0;exitY=0.75;exitDx=0;exitDy=0;entryX=1;entryY=0.365;entryDx=0;entryDy=0;entryPerimeter=0;" parent="C1SsH0Z7lR1WdP4EDRss-1" source="DqVOMwrkXYOldMzxp8PN-4" target="DqVOMwrkXYOldMzxp8PN-5" edge="1">
          <mxGeometry relative="1" as="geometry" />
        </mxCell>
        <mxCell id="DqVOMwrkXYOldMzxp8PN-30" style="edgeStyle=orthogonalEdgeStyle;rounded=0;orthogonalLoop=1;jettySize=auto;html=1;exitX=1;exitY=0.75;exitDx=0;exitDy=0;entryX=0.5;entryY=1;entryDx=0;entryDy=0;dashed=1;fillColor=#dae8fc;strokeColor=#6c8ebf;" parent="C1SsH0Z7lR1WdP4EDRss-1" source="DqVOMwrkXYOldMzxp8PN-4" target="DqVOMwrkXYOldMzxp8PN-7" edge="1">
          <mxGeometry relative="1" as="geometry">
            <Array as="points">
              <mxPoint x="870" y="759" />
              <mxPoint x="870" y="950" />
              <mxPoint x="340" y="950" />
            </Array>
          </mxGeometry>
        </mxCell>
        <mxCell id="DqVOMwrkXYOldMzxp8PN-31" style="edgeStyle=orthogonalEdgeStyle;rounded=0;orthogonalLoop=1;jettySize=auto;html=1;exitX=1;exitY=0.75;exitDx=0;exitDy=0;entryX=0;entryY=0.5;entryDx=0;entryDy=0;dashed=1;fillColor=#dae8fc;strokeColor=#6c8ebf;" parent="C1SsH0Z7lR1WdP4EDRss-1" source="DqVOMwrkXYOldMzxp8PN-4" target="DqVOMwrkXYOldMzxp8PN-1" edge="1">
          <mxGeometry relative="1" as="geometry">
            <Array as="points">
              <mxPoint x="870" y="759" />
              <mxPoint x="870" y="950" />
              <mxPoint x="220" y="950" />
              <mxPoint x="220" y="650" />
            </Array>
          </mxGeometry>
        </mxCell>
        <mxCell id="DqVOMwrkXYOldMzxp8PN-4" value="" style="whiteSpace=wrap;html=1;aspect=fixed;" parent="C1SsH0Z7lR1WdP4EDRss-1" vertex="1">
          <mxGeometry x="664" y="631" width="170" height="170" as="geometry" />
        </mxCell>
        <mxCell id="DqVOMwrkXYOldMzxp8PN-2" value="Objetivo de Otimização" style="shape=parallelogram;perimeter=parallelogramPerimeter;whiteSpace=wrap;html=1;fixedSize=1;" parent="C1SsH0Z7lR1WdP4EDRss-1" vertex="1">
          <mxGeometry x="691.5" y="651" width="120" height="60" as="geometry" />
        </mxCell>
        <mxCell id="DqVOMwrkXYOldMzxp8PN-21" value="Ajusta" style="edgeStyle=orthogonalEdgeStyle;rounded=0;orthogonalLoop=1;jettySize=auto;html=1;exitX=1;exitY=0.5;exitDx=0;exitDy=0;entryX=0.5;entryY=0;entryDx=0;entryDy=0;fillColor=#f8cecc;strokeColor=#b85450;" parent="C1SsH0Z7lR1WdP4EDRss-1" source="DqVOMwrkXYOldMzxp8PN-14" target="DqVOMwrkXYOldMzxp8PN-4" edge="1">
          <mxGeometry relative="1" as="geometry" />
        </mxCell>
        <mxCell id="DqVOMwrkXYOldMzxp8PN-22" value="Escolhe" style="rounded=0;orthogonalLoop=1;jettySize=auto;html=1;exitX=0;exitY=0.75;exitDx=0;exitDy=0;entryX=1;entryY=0.5;entryDx=0;entryDy=0;fillColor=#f8cecc;strokeColor=#b85450;" parent="C1SsH0Z7lR1WdP4EDRss-1" source="DqVOMwrkXYOldMzxp8PN-14" target="DqVOMwrkXYOldMzxp8PN-1" edge="1">
          <mxGeometry relative="1" as="geometry" />
        </mxCell>
        <mxCell id="DqVOMwrkXYOldMzxp8PN-23" value="Muda" style="rounded=0;orthogonalLoop=1;jettySize=auto;html=1;exitX=0;exitY=1;exitDx=0;exitDy=0;entryX=1;entryY=0;entryDx=0;entryDy=0;fillColor=#f8cecc;strokeColor=#b85450;" parent="C1SsH0Z7lR1WdP4EDRss-1" source="DqVOMwrkXYOldMzxp8PN-14" target="DqVOMwrkXYOldMzxp8PN-11" edge="1">
          <mxGeometry relative="1" as="geometry" />
        </mxCell>
        <mxCell id="DqVOMwrkXYOldMzxp8PN-29" value="Foca e roda" style="edgeStyle=orthogonalEdgeStyle;rounded=0;orthogonalLoop=1;jettySize=auto;html=1;exitX=0.5;exitY=1;exitDx=0;exitDy=0;entryX=0.5;entryY=0;entryDx=0;entryDy=0;entryPerimeter=0;fillColor=#f8cecc;strokeColor=#b85450;" parent="C1SsH0Z7lR1WdP4EDRss-1" source="DqVOMwrkXYOldMzxp8PN-14" target="DqVOMwrkXYOldMzxp8PN-5" edge="1">
          <mxGeometry relative="1" as="geometry" />
        </mxCell>
        <mxCell id="DqVOMwrkXYOldMzxp8PN-14" value="" style="rounded=0;whiteSpace=wrap;html=1;" parent="C1SsH0Z7lR1WdP4EDRss-1" vertex="1">
          <mxGeometry x="510" y="500" width="120" height="140" as="geometry" />
        </mxCell>
        <mxCell id="DqVOMwrkXYOldMzxp8PN-3" value="Restrições" style="shape=parallelogram;perimeter=parallelogramPerimeter;whiteSpace=wrap;html=1;fixedSize=1;" parent="C1SsH0Z7lR1WdP4EDRss-1" vertex="1">
          <mxGeometry x="691.5" y="722" width="120" height="60" as="geometry" />
        </mxCell>
        <mxCell id="DqVOMwrkXYOldMzxp8PN-26" style="edgeStyle=orthogonalEdgeStyle;rounded=0;orthogonalLoop=1;jettySize=auto;html=1;exitX=1;exitY=0.5;exitDx=0;exitDy=0;entryX=0;entryY=0.365;entryDx=0;entryDy=0;entryPerimeter=0;" parent="C1SsH0Z7lR1WdP4EDRss-1" source="DqVOMwrkXYOldMzxp8PN-11" target="DqVOMwrkXYOldMzxp8PN-5" edge="1">
          <mxGeometry relative="1" as="geometry" />
        </mxCell>
        <mxCell id="DqVOMwrkXYOldMzxp8PN-11" value="Solução da Grade Horária" style="rhombus;whiteSpace=wrap;html=1;" parent="C1SsH0Z7lR1WdP4EDRss-1" vertex="1">
          <mxGeometry x="240" y="720" width="200" height="80" as="geometry" />
        </mxCell>
        <mxCell id="C1SsH0Z7lR1WdP4EDRss-4" value="Usuário" style="shape=umlActor;verticalLabelPosition=bottom;verticalAlign=top;html=1;outlineConnect=0;rounded=0;shadow=0;glass=0;sketch=0;fontFamily=Helvetica;fontSize=24;strokeWidth=6;gradientDirection=south;fillStyle=hatch;" parent="C1SsH0Z7lR1WdP4EDRss-1" vertex="1">
          <mxGeometry x="555" y="540" width="30" height="60" as="geometry" />
        </mxCell>
      </root>
    </mxGraphModel>
  </diagram>
</mxfile>
